<svg width="31" height="42" viewBox="0 0 31 42" fill="none" xmlns="http://www.w3.org/2000/svg">
<g clip-path="url(#clip0)">
<path d="M17.6644 34.4083V28.1446H13.6712V34.4083H9.26025L15.7433 41.9758L22.226 34.4083H17.6644Z" fill="black"/>
<path d="M28.4598 12.3658V9.00035C28.4598 8.8239 28.385 8.64471 28.2599 8.51894L19.9702 0.215038C19.8622 0.0815056 19.6437 0.0116577 19.4778 0.0116577H3.62463C3.24225 0.0116577 2.93232 0.318212 2.93232 0.69644V12.3658H0.757324V25.9633H2.93232V31.7228C2.93232 32.1013 3.24225 32.4076 3.62463 32.4076H12.5173V31.038H4.31694V25.9633H27.0752V31.038H18.8182V32.4076H27.7675C28.1499 32.4076 28.4598 32.1013 28.4598 31.7228V25.9633H30.5616V12.3658H28.4598ZM20.1701 2.36343L26.1096 8.31556H20.1701V2.36343ZM27.0752 12.3658H4.31694V1.38122H18.7855V9.00012C18.7855 9.37834 19.0954 9.6849 19.4778 9.6849H27.0752V12.3658Z" fill="black"/>
<path d="M11.1074 20.8769C11.0465 21.7184 10.735 22.3808 10.1729 22.8642C9.61426 23.3476 8.87663 23.5893 7.95996 23.5893C6.95736 23.5893 6.16781 23.2527 5.59131 22.5795C5.01839 21.9028 4.73193 20.9754 4.73193 19.7973V19.3193C4.73193 18.5673 4.86442 17.9049 5.12939 17.332C5.39437 16.7591 5.77214 16.3204 6.2627 16.0161C6.75684 15.7081 7.32975 15.5541 7.98145 15.5541C8.88379 15.5541 9.61068 15.7958 10.1621 16.2792C10.7135 16.7626 11.0322 17.4412 11.1182 18.3149H9.50684C9.46745 17.81 9.32601 17.4448 9.08252 17.2192C8.84261 16.99 8.47559 16.8754 7.98145 16.8754C7.44434 16.8754 7.0415 17.0688 6.77295 17.4555C6.50798 17.8386 6.37191 18.4348 6.36475 19.2441V19.8349C6.36475 20.68 6.49186 21.2976 6.74609 21.6879C7.00391 22.0782 7.40853 22.2734 7.95996 22.2734C8.45768 22.2734 8.82829 22.1606 9.07178 21.935C9.31885 21.7058 9.46029 21.3531 9.49609 20.8769H11.1074Z" fill="white"/>
<path d="M16.2207 21.4301C16.2207 21.1258 16.1133 20.893 15.8984 20.7319C15.6836 20.5672 15.2969 20.3953 14.7383 20.2162C14.1797 20.0336 13.7375 19.8546 13.4116 19.6791C12.5236 19.1993 12.0796 18.553 12.0796 17.7402C12.0796 17.3176 12.1978 16.9417 12.4341 16.6122C12.674 16.2792 13.016 16.0196 13.46 15.8334C13.9076 15.6472 14.4089 15.5541 14.9639 15.5541C15.5225 15.5541 16.0202 15.6562 16.457 15.8603C16.8939 16.0608 17.2323 16.3455 17.4722 16.7143C17.7157 17.0831 17.8374 17.5021 17.8374 17.9711H16.2261C16.2261 17.6131 16.1133 17.3356 15.8877 17.1386C15.6621 16.9381 15.3452 16.8378 14.937 16.8378C14.5431 16.8378 14.237 16.922 14.0186 17.0903C13.8001 17.255 13.6909 17.4734 13.6909 17.7455C13.6909 17.9998 13.818 18.2128 14.0723 18.3847C14.3301 18.5566 14.7078 18.7177 15.2056 18.8681C16.1222 19.1438 16.79 19.4858 17.209 19.894C17.6279 20.3022 17.8374 20.8106 17.8374 21.4194C17.8374 22.0961 17.5814 22.6279 17.0693 23.0146C16.5573 23.3977 15.868 23.5893 15.0015 23.5893C14.3999 23.5893 13.8521 23.4801 13.3579 23.2617C12.8638 23.0397 12.486 22.7371 12.2246 22.3539C11.9668 21.9708 11.8379 21.5268 11.8379 21.0219H13.4546C13.4546 21.8849 13.9702 22.3163 15.0015 22.3163C15.3846 22.3163 15.6836 22.2394 15.8984 22.0854C16.1133 21.9278 16.2207 21.7094 16.2207 21.4301Z" fill="white"/>
<path d="M21.8228 21.5429L23.5952 15.6616H25.3892L22.666 23.4819H20.9849L18.2725 15.6616H20.061L21.8228 21.5429Z" fill="white"/>
</g>
<defs>
<clipPath id="clip0">
<rect width="30" height="42" fill="white" transform="translate(0.74707)"/>
</clipPath>
</defs>
</svg>
