<svg width="194" height="38" viewBox="0 0 194 38" fill="none" xmlns="http://www.w3.org/2000/svg">
<path fill-rule="evenodd" clip-rule="evenodd" d="M2.58027 1.33131C3.21688 0.895907 4.00156 0.734113 4.75848 0.882188C8.4403 1.60246 13.5833 3.57544 16.3696 5.57798C16.3854 5.58936 16.4011 5.60089 16.4167 5.61259C16.512 5.6841 16.613 5.75886 16.7188 5.83726C18.0331 6.81096 20.1066 8.34713 21.7425 11.2285C23.5018 14.3271 24.6245 18.7002 24.5077 25.2429L18.7501 25.1401C18.8547 19.2797 17.8364 16.0117 16.7349 14.0717C15.7135 12.2727 14.5097 11.3747 13.2319 10.4214C13.1506 10.3608 13.069 10.2999 12.9871 10.2385C11.6087 9.25498 9.06098 8.11262 6.5912 7.31362C5.94178 13.1926 6.41033 19.2213 8.19428 23.8518C9.23425 26.5512 10.6648 28.634 12.4347 30.0015C14.1599 31.3344 16.3745 32.121 19.2983 31.9865C23.0478 31.814 25.537 30.9858 27.2331 29.8294C28.8923 28.6981 30.0423 27.0831 30.8193 24.8411C31.6158 22.5432 31.995 19.6528 32.0896 16.1255C32.1615 13.4485 32.0686 10.5126 31.9114 7.31854C29.3864 7.73468 27.6676 8.29745 26.5678 8.76557C25.8242 9.08209 25.3585 9.35744 25.1132 9.51981C24.9917 9.60021 24.923 9.65375 24.9002 9.67208C24.8151 9.74985 24.7254 9.82246 24.6315 9.8895L24.1148 10.2587L20.7671 5.57327L21.1651 5.28889C21.2016 5.25798 21.2417 5.22469 21.2857 5.18923C21.4481 5.05837 21.6623 4.89824 21.935 4.71777C22.481 4.35642 23.2566 3.91653 24.3125 3.46709C26.425 2.56791 29.6396 1.6387 34.3617 1.20951C35.1395 1.13882 35.9126 1.38711 36.5038 1.89745C37.095 2.40779 37.4535 3.13639 37.4971 3.91616C37.7425 8.30378 37.9477 12.4925 37.8461 16.28C37.7447 20.0564 37.3366 23.6216 36.2603 26.727C35.1646 29.8883 33.3562 32.6242 30.4771 34.5872C27.635 36.525 24.006 37.5345 19.563 37.7389L19.4306 34.8627L19.563 37.7389C19.563 37.7389 19.563 37.7389 19.563 37.7389C15.3562 37.9325 11.7816 36.7739 8.91398 34.5583C6.09113 32.3773 4.12534 29.3082 2.82078 25.922C0.23113 19.2002 0.0268136 10.6805 1.37188 3.19843C1.50834 2.43933 1.94365 1.76672 2.58027 1.33131Z" fill="white"/>
<path d="M48.2355 2.2905C49.3537 2.14136 50.8448 2.06693 52.4849 1.91785C54.1996 1.84328 56.1379 1.7687 58.3745 1.7687C62.6239 1.7687 65.9041 2.58877 68.1407 4.15438C70.3772 5.71993 71.4955 7.88196 71.4955 10.6403C71.4955 12.5041 71.0482 13.995 70.0791 15.2624C69.1099 16.5298 67.6934 17.5736 65.8296 18.3937C68.0662 19.2137 69.7808 20.2574 70.8991 21.6738C72.0174 23.0903 72.6138 24.8051 72.6138 26.8925C72.6138 30.0237 71.421 32.5584 68.9608 34.4222C66.5006 36.286 62.9221 37.1807 58.1508 37.1807C56.1379 37.1807 54.2742 37.1061 52.4104 37.0315C50.6211 36.957 49.2046 36.808 48.1609 36.6587L48.2355 2.2905ZM58.5236 33.2294C61.5056 33.2294 63.8167 32.7074 65.3823 31.6637C67.0224 30.62 67.8425 29.0544 67.8425 27.0415C67.8425 25.0286 67.0224 23.5377 65.4569 22.4194C63.8167 21.3011 61.5056 20.7047 58.5236 20.7047H52.8576V32.9311C54.6469 33.1549 56.5107 33.2294 58.5236 33.2294ZM58.3745 17.1263C60.9838 17.1263 63.0712 16.6045 64.5622 15.4862C66.1278 14.4424 66.8733 13.026 66.8733 11.2368C66.8733 9.373 66.1278 7.95643 64.6368 6.98722C63.1458 6.01813 61.0583 5.5708 58.449 5.5708C57.3307 5.5708 56.3615 5.57073 55.4669 5.6453C54.5723 5.71981 53.7522 5.71988 53.0067 5.79445V17.0516L58.3745 17.1263ZM81.3363 28.3089C81.3363 30.0982 81.6345 31.4401 82.3801 32.2602C83.1256 33.0803 84.1692 33.5276 85.4367 33.5276C86.033 33.5276 86.704 33.4531 87.3005 33.3039C87.8968 33.1549 88.4187 33.0056 88.866 32.782L89.9843 36.3604C89.3878 36.6586 88.6423 36.8825 87.8223 37.0315C86.9277 37.2552 85.9585 37.3297 84.9148 37.3297C83.7965 37.3297 82.6782 37.1806 81.7091 36.8079C80.7399 36.5096 79.9198 35.9878 79.1743 35.2423C78.4288 34.5713 77.9069 33.6766 77.4596 32.5583C77.0123 31.4401 76.8633 30.1728 76.8633 28.6072V0.203125H81.3363V28.3089ZM111.455 23.9105C111.455 22.6431 111.231 21.3756 110.859 20.2574C110.411 19.1391 109.89 18.0953 109.144 17.2753C108.399 16.4553 107.504 15.7098 106.535 15.1879C105.566 14.6661 104.447 14.4423 103.254 14.4423C100.645 14.4423 98.6323 15.2624 97.2158 16.9771C95.7993 18.6918 95.0538 20.9284 95.0538 23.7614C95.0538 25.0287 95.2774 26.2961 95.6502 27.4143C96.0975 28.6072 96.6194 29.5763 97.3649 30.471C98.1104 31.3656 99.005 32.0365 99.9742 32.5583C100.943 33.0803 102.062 33.3039 103.254 33.3039C104.522 33.3039 105.715 33.0804 106.684 32.633C107.728 32.1857 108.548 31.5147 109.293 30.6946C109.964 29.8746 110.56 28.8309 110.933 27.7126C111.231 26.5943 111.455 25.3269 111.455 23.9105ZM90.4316 23.9105C90.4316 21.823 90.7298 19.9592 91.4008 18.3192C92.0717 16.679 92.9663 15.2625 94.0846 14.0696C95.2029 12.9514 96.5448 12.0567 98.1104 11.3858C99.676 10.7894 101.391 10.4165 103.18 10.4165C104.969 10.4165 106.609 10.7147 108.175 11.3858C109.74 11.9822 111.082 12.8769 112.275 14.0696C113.393 15.1879 114.363 16.6044 114.959 18.2445C115.63 19.8846 115.928 21.7484 115.928 23.7614C115.928 25.7742 115.63 27.638 114.959 29.3527C114.288 30.9928 113.393 32.4092 112.275 33.6021C111.157 34.7948 109.74 35.6895 108.175 36.3604C106.609 37.0314 104.895 37.3297 103.105 37.3297C101.242 37.3297 99.5269 37.0314 97.9613 36.3604C96.3957 35.6895 95.0538 34.7948 93.9355 33.6021C92.8173 32.4092 91.9226 30.9928 91.2516 29.3527C90.7298 27.7125 90.4316 25.9234 90.4316 23.9105ZM140.232 23.9105C140.232 22.6431 140.008 21.3756 139.636 20.2574C139.188 19.1391 138.666 18.0953 137.921 17.2753C137.175 16.4553 136.281 15.7098 135.312 15.1879C134.342 14.6661 133.224 14.4423 132.031 14.4423C129.422 14.4423 127.409 15.2624 125.993 16.9771C124.576 18.6918 123.831 20.9284 123.831 23.7614C123.831 25.0287 124.054 26.2961 124.427 27.4143C124.874 28.6072 125.396 29.5763 126.142 30.471C126.887 31.3656 127.782 32.0365 128.751 32.5583C129.72 33.0803 130.838 33.3039 132.031 33.3039C133.299 33.3039 134.492 33.0804 135.461 32.633C136.504 32.1857 137.324 31.5147 138.07 30.6946C138.741 29.8746 139.337 28.8309 139.71 27.7126C140.083 26.5943 140.232 25.3269 140.232 23.9105ZM119.208 23.9105C119.208 21.823 119.507 19.9592 120.178 18.3192C120.849 16.679 121.743 15.2625 122.861 14.0696C123.98 12.9514 125.322 12.0567 126.887 11.3858C128.453 10.7894 130.168 10.4165 131.957 10.4165C133.746 10.4165 135.386 10.7147 136.952 11.3858C138.517 11.9822 139.859 12.8769 141.052 14.0696C142.17 15.1879 143.139 16.6044 143.736 18.2445C144.407 19.8846 144.705 21.7484 144.705 23.7614C144.705 25.7742 144.407 27.638 143.736 29.3527C143.065 30.9928 142.17 32.4092 141.052 33.6021C139.934 34.7948 138.517 35.6895 136.952 36.3604C135.386 37.0314 133.671 37.3297 131.882 37.3297C130.018 37.3297 128.304 37.0314 126.738 36.3604C125.173 35.6895 123.831 34.7948 122.712 33.6021C121.594 32.4092 120.7 30.9928 120.029 29.3527C119.507 27.7125 119.208 25.9234 119.208 23.9105ZM152.906 15.4115C153.8 13.9951 154.993 12.8768 156.41 11.9076C157.826 10.9384 159.466 10.4912 161.255 10.4912C163.268 10.4912 164.983 11.0131 166.25 11.9822C167.518 12.9514 168.487 14.2932 169.009 15.9333C170.053 14.4423 171.245 13.1005 172.662 12.0567C174.078 11.0131 175.793 10.4912 177.88 10.4912C179.297 10.4912 180.49 10.7148 181.533 11.1621C182.577 11.6094 183.472 12.2804 184.143 13.1005C184.814 13.9205 185.336 14.9643 185.708 16.0825C186.081 17.2753 186.23 18.5426 186.23 19.9591V36.7332H181.757V20.3321C181.757 18.5428 181.31 17.1263 180.49 16.008C179.67 14.8898 178.551 14.3678 177.06 14.3678C176.315 14.3678 175.569 14.5169 174.898 14.8151C174.227 15.1133 173.557 15.4862 172.886 16.008C172.289 16.5299 171.693 17.1263 171.096 17.7972C170.5 18.4683 170.053 19.1391 169.531 19.8846V36.7332H165.058V20.3321C165.058 18.5428 164.61 17.1263 163.79 16.008C162.97 14.8898 161.852 14.3678 160.361 14.3678C159.615 14.3678 158.944 14.5169 158.199 14.8151C157.528 15.1133 156.857 15.4862 156.186 16.008C155.515 16.5299 154.919 17.0517 154.397 17.7227C153.8 18.3937 153.353 19.0646 152.831 19.8101V36.7332H148.358V11.0876H152.682L152.906 15.4115Z" fill="white"/>
<path d="M190.601 31.1362C189.066 31.1362 187.816 32.386 187.816 33.9204C187.816 35.4549 189.066 36.7048 190.601 36.7048C192.135 36.7048 193.385 35.4549 193.385 33.9204C193.385 32.386 192.135 31.1362 190.601 31.1362ZM190.601 31.693C191.834 31.693 192.828 32.687 192.828 33.9204C192.828 35.1539 191.834 36.1478 190.601 36.1478C189.367 36.1478 188.373 35.1539 188.373 33.9204C188.373 32.687 189.367 31.693 190.601 31.693ZM189.626 32.5283V35.3126H190.209V34.312H190.653L191.184 35.3126H191.801V35.2866L191.184 34.1469C191.239 34.1188 191.328 34.0896 191.384 34.0337C191.467 33.9774 191.493 33.924 191.549 33.8683C191.605 33.7851 191.634 33.7257 191.662 33.6422C191.69 33.559 191.688 33.475 191.688 33.3636C191.688 33.2245 191.657 33.1096 191.601 32.9982C191.573 32.915 191.493 32.8382 191.41 32.7547C191.298 32.6715 191.21 32.6086 191.07 32.5807C190.959 32.5525 190.82 32.5288 190.653 32.5288L189.626 32.5283ZM190.235 33.0329H190.688C190.827 33.0329 190.935 33.0535 191.018 33.1378C191.102 33.2211 191.131 33.3118 191.131 33.451C191.131 33.5072 191.134 33.5607 191.105 33.6164C191.077 33.6726 191.046 33.7277 191.018 33.7556C190.99 33.7837 190.935 33.8064 190.879 33.8335C190.823 33.8616 190.771 33.868 190.688 33.868H190.235V33.0329Z" fill="white"/>
<path d="M37.7777 31.1362C36.2433 31.1362 34.9934 32.386 34.9934 33.9204C34.9934 35.4549 36.2433 36.7048 37.7777 36.7048C39.3121 36.7048 40.5619 35.4549 40.5619 33.9204C40.5619 32.386 39.3121 31.1362 37.7777 31.1362ZM37.7777 31.693C39.0111 31.693 40.0051 32.687 40.0051 33.9204C40.0051 35.1539 39.0111 36.1478 37.7777 36.1478C36.5442 36.1478 35.5503 35.1539 35.5503 33.9204C35.5503 32.687 36.5442 31.693 37.7777 31.693ZM36.8032 32.5283V35.3126H37.3861V34.312H37.8299L38.3606 35.3126H38.9784V35.2866L38.3606 34.1469C38.4163 34.1188 38.5051 34.0896 38.5607 34.0337C38.6443 33.9774 38.6703 33.924 38.726 33.8683C38.7817 33.7851 38.8114 33.7257 38.8392 33.6422C38.8671 33.559 38.8652 33.475 38.8652 33.3636C38.8652 33.2245 38.8339 33.1096 38.7782 32.9982C38.7503 32.915 38.6703 32.8382 38.5868 32.7547C38.4754 32.6715 38.3866 32.6086 38.2474 32.5807C38.1361 32.5525 37.9969 32.5288 37.8298 32.5288L36.8032 32.5283ZM37.4122 33.0329H37.8646C38.0039 33.0329 38.1118 33.0535 38.1953 33.1378C38.2789 33.2211 38.3084 33.3118 38.3084 33.451C38.3084 33.5072 38.3106 33.5607 38.2823 33.6164C38.2544 33.6726 38.2232 33.7277 38.1953 33.7556C38.1674 33.7837 38.1118 33.8064 38.0561 33.8335C38.0005 33.8616 37.9482 33.868 37.8647 33.868H37.4122V33.0329Z" fill="white"/>
</svg>
