<svg width="199" height="49" viewBox="0 0 199 49" fill="none" xmlns="http://www.w3.org/2000/svg">
<path fill-rule="evenodd" clip-rule="evenodd" d="M2.40644 11.7927C3.04305 11.3573 3.82773 11.1955 4.58465 11.3436C8.26647 12.0639 13.4095 14.0369 16.1957 16.0394C16.2116 16.0508 16.2273 16.0623 16.2429 16.074C16.3382 16.1455 16.4391 16.2203 16.5449 16.2987C17.8592 17.2724 19.9328 18.8086 21.5687 21.6899C23.328 24.7885 24.4506 29.1616 24.3338 35.7043L18.5763 35.6015C18.6809 29.7411 17.6625 26.4731 16.5611 24.5331C15.5397 22.7341 14.3359 21.8361 13.0581 20.8828C12.9768 20.8222 12.8952 20.7613 12.8133 20.6999C11.4349 19.7164 8.88715 18.574 6.41737 17.775C5.76795 23.654 6.2365 29.6827 8.02045 34.3132C9.06042 37.0126 10.4909 39.0954 12.2609 40.4629C13.9861 41.7959 16.2007 42.5825 19.1245 42.4479C22.8739 42.2754 25.3632 41.4472 27.0593 40.2908C28.7185 39.1595 29.8685 37.5445 30.6455 35.3025C31.442 33.0047 31.8211 30.1142 31.9158 26.5869C31.9877 23.9099 31.8948 20.974 31.7375 17.78C29.2126 18.1961 27.4937 18.7589 26.394 19.227C25.6503 19.5435 25.1847 19.8189 24.9393 19.9812C24.8179 20.0616 24.7491 20.1152 24.7263 20.1335C24.6413 20.2113 24.5515 20.2839 24.4577 20.3509L23.941 20.7201L20.5933 16.0347L20.9913 15.7503C21.0277 15.7194 21.0679 15.6861 21.1119 15.6507C21.2742 15.5198 21.4885 15.3597 21.7612 15.1792C22.3072 14.8178 23.0828 14.378 24.1387 13.9285C26.2512 13.0293 29.4657 12.1001 34.1879 11.6709C34.9657 11.6002 35.7388 11.8485 36.33 12.3589C36.9212 12.8692 37.2797 13.5978 37.3233 14.3776C37.5687 18.7652 37.7739 22.954 37.6722 26.7414C37.5709 30.5178 37.1628 34.083 36.0865 37.1884C34.9907 40.3497 33.1823 43.0856 30.3033 45.0486C27.4611 46.9864 23.8322 47.9959 19.3891 48.2003L19.2568 45.3241L19.3892 48.2003C19.3892 48.2003 19.3891 48.2003 19.3891 48.2003C15.1824 48.3939 11.6078 47.2354 8.74015 45.0198C5.91731 42.8387 3.95151 39.7696 2.64695 36.3834C0.0573022 29.6616 -0.147015 21.142 1.19805 13.6599C1.33451 12.9008 1.76982 12.2281 2.40644 11.7927Z" fill="white"/>
<path d="M48.0616 12.7524C49.1799 12.6033 50.6709 12.5288 52.311 12.3798C54.0257 12.3052 55.9641 12.2306 58.2006 12.2306C62.4501 12.2306 65.7303 13.0507 67.9668 14.6163C70.2034 16.1818 71.3217 18.3439 71.3217 21.1022C71.3217 22.966 70.8744 24.4569 69.9052 25.7243C68.936 26.9917 67.5196 28.0355 65.6558 28.8556C67.8924 29.6757 69.607 30.7193 70.7253 32.1357C71.8436 33.5522 72.4399 35.267 72.4399 37.3544C72.4399 40.4856 71.2472 43.0203 68.787 44.8841C66.3267 46.7479 62.7483 47.6426 57.977 47.6426C55.9641 47.6426 54.1003 47.568 52.2365 47.4935C50.4473 47.4189 49.0308 47.2699 47.9871 47.1207L48.0616 12.7524ZM58.3498 43.6914C61.3318 43.6914 63.6429 43.1694 65.2085 42.1256C66.8486 41.0819 67.6687 39.5163 67.6687 37.5034C67.6687 35.4905 66.8486 33.9996 65.283 32.8814C63.6429 31.7631 61.3318 31.1666 58.3498 31.1666H52.6838V43.3931C54.4731 43.6168 56.3369 43.6914 58.3498 43.6914ZM58.2006 27.5882C60.8099 27.5882 62.8974 27.0664 64.3884 25.9481C65.954 24.9043 66.6995 23.4879 66.6995 21.6987C66.6995 19.8349 65.954 18.4183 64.463 17.4491C62.9719 16.48 60.8845 16.0327 58.2752 16.0327C57.1569 16.0327 56.1877 16.0326 55.2931 16.1072C54.3985 16.1817 53.5784 16.1818 52.8329 16.2564V27.5135L58.2006 27.5882ZM81.1625 38.7708C81.1625 40.5601 81.4607 41.902 82.2062 42.7221C82.9517 43.5422 83.9954 43.9895 85.2628 43.9895C85.8592 43.9895 86.5302 43.915 87.1266 43.7659C87.723 43.6168 88.2449 43.4676 88.6922 43.2439L89.8104 46.8224C89.214 47.1205 88.4685 47.3444 87.6485 47.4935C86.7539 47.7171 85.7847 47.7916 84.7409 47.7916C83.6227 47.7916 82.5044 47.6426 81.5353 47.2698C80.5661 46.9715 79.746 46.4497 79.0005 45.7042C78.255 45.0333 77.7331 44.1385 77.2858 43.0202C76.8385 41.902 76.6894 40.6347 76.6894 39.0691V10.665H81.1625V38.7708ZM111.281 34.3724C111.281 33.105 111.058 31.8376 110.685 30.7193C110.238 29.601 109.716 28.5572 108.97 27.7372C108.225 26.9172 107.33 26.1717 106.361 25.6498C105.392 25.128 104.273 24.9042 103.081 24.9042C100.471 24.9042 98.4584 25.7243 97.042 27.439C95.6255 29.1537 94.88 31.3903 94.88 34.2233C94.88 35.4906 95.1036 36.758 95.4764 37.8762C95.9237 39.0691 96.4456 40.0382 97.1911 40.9329C97.9366 41.8275 98.8312 42.4984 99.8004 43.0202C100.77 43.5422 101.888 43.7659 103.081 43.7659C104.348 43.7659 105.541 43.5423 106.51 43.0949C107.554 42.6476 108.374 41.9766 109.119 41.1565C109.79 40.3365 110.387 39.2928 110.759 38.1745C111.058 37.0562 111.281 35.7888 111.281 34.3724ZM90.2578 34.3724C90.2578 32.2849 90.556 30.4212 91.227 28.7811C91.8979 27.1409 92.7925 25.7244 93.9108 24.5315C95.029 23.4133 96.371 22.5186 97.9366 21.8477C99.5021 21.2513 101.217 20.8784 103.006 20.8784C104.795 20.8784 106.435 21.1767 108.001 21.8477C109.567 22.4441 110.909 23.3388 112.101 24.5315C113.22 25.6498 114.189 27.0663 114.785 28.7064C115.456 30.3465 115.754 32.2103 115.754 34.2233C115.754 36.2361 115.456 38.0999 114.785 39.8146C114.114 41.4547 113.22 42.8711 112.101 44.064C110.983 45.2568 109.567 46.1514 108.001 46.8224C106.435 47.4933 104.721 47.7916 102.932 47.7916C101.068 47.7916 99.353 47.4933 97.7875 46.8224C96.2219 46.1514 94.88 45.2568 93.7617 44.064C92.6434 42.8711 91.7488 41.4547 91.0778 39.8146C90.556 38.1744 90.2578 36.3853 90.2578 34.3724ZM140.058 34.3724C140.058 33.105 139.834 31.8376 139.462 30.7193C139.014 29.601 138.493 28.5572 137.747 27.7372C137.002 26.9172 136.107 26.1717 135.138 25.6498C134.169 25.128 133.05 24.9042 131.857 24.9042C129.248 24.9042 127.235 25.7243 125.819 27.439C124.402 29.1537 123.657 31.3903 123.657 34.2233C123.657 35.4906 123.881 36.758 124.253 37.8762C124.701 39.0691 125.222 40.0382 125.968 40.9329C126.713 41.8275 127.608 42.4984 128.577 43.0202C129.546 43.5422 130.665 43.7659 131.857 43.7659C133.125 43.7659 134.318 43.5423 135.287 43.0949C136.331 42.6476 137.151 41.9766 137.896 41.1565C138.567 40.3365 139.164 39.2928 139.536 38.1745C139.909 37.0562 140.058 35.7888 140.058 34.3724ZM119.035 34.3724C119.035 32.2849 119.333 30.4212 120.004 28.7811C120.675 27.1409 121.569 25.7244 122.688 24.5315C123.806 23.4133 125.148 22.5186 126.713 21.8477C128.279 21.2513 129.994 20.8784 131.783 20.8784C133.572 20.8784 135.212 21.1767 136.778 21.8477C138.343 22.4441 139.685 23.3388 140.878 24.5315C141.997 25.6498 142.966 27.0663 143.562 28.7064C144.233 30.3465 144.531 32.2103 144.531 34.2233C144.531 36.2361 144.233 38.0999 143.562 39.8146C142.891 41.4547 141.997 42.8711 140.878 44.064C139.76 45.2568 138.343 46.1514 136.778 46.8224C135.212 47.4933 133.498 47.7916 131.708 47.7916C129.845 47.7916 128.13 47.4933 126.564 46.8224C124.999 46.1514 123.657 45.2568 122.539 44.064C121.42 42.8711 120.526 41.4547 119.855 39.8146C119.333 38.1744 119.035 36.3853 119.035 34.3724ZM152.732 25.8735C153.627 24.457 154.819 23.3387 156.236 22.3695C157.652 21.4004 159.292 20.9531 161.082 20.9531C163.095 20.9531 164.809 21.475 166.077 22.4442C167.344 23.4133 168.313 24.7551 168.835 26.3953C169.879 24.9042 171.072 23.5624 172.488 22.5187C173.905 21.475 175.619 20.9531 177.707 20.9531C179.123 20.9531 180.316 21.1767 181.36 21.624C182.403 22.0714 183.298 22.7423 183.969 23.5624C184.64 24.3824 185.162 25.4262 185.535 26.5444C185.907 27.7372 186.056 29.0046 186.056 30.421V47.1952H181.583V30.794C181.583 29.0047 181.136 27.5882 180.316 26.4699C179.496 25.3517 178.378 24.8297 176.887 24.8297C176.141 24.8297 175.396 24.9788 174.725 25.277C174.054 25.5752 173.383 25.9481 172.712 26.4699C172.115 26.9918 171.519 27.5882 170.922 28.2591C170.326 28.9302 169.879 29.601 169.357 30.3465V47.1952H164.884V30.794C164.884 29.0047 164.436 27.5882 163.616 26.4699C162.796 25.3517 161.678 24.8297 160.187 24.8297C159.442 24.8297 158.771 24.9788 158.025 25.277C157.354 25.5752 156.683 25.9481 156.012 26.4699C155.341 26.9918 154.745 27.5137 154.223 28.1846C153.627 28.8556 153.179 29.5265 152.657 30.272V47.1952H148.184V21.5495H152.508L152.732 25.8735Z" fill="white"/>
<path d="M91.5254 12.6773C91.6745 12.6027 91.8236 12.6027 91.8981 12.5282C93.4637 12.0808 94.6565 11.8572 95.3275 11.8572C95.8494 11.8572 96.073 12.0063 96.073 12.3791C96.073 12.5282 95.9985 12.6773 95.9239 12.7518C95.8494 12.8264 95.7003 12.9009 95.5512 12.9009C95.4766 12.9009 95.402 12.9009 95.2529 12.9009C95.1784 12.9009 95.0293 12.9009 95.0293 12.9009C94.6565 12.9009 94.0601 12.9755 93.4637 13.1991C93.2401 13.2737 92.7927 13.4228 92.0472 13.721C91.5999 13.9446 91.2272 14.0192 90.8544 14.0192C90.6308 14.0192 90.4817 13.9446 90.3325 13.721C90.1834 13.5719 90.1089 13.3482 90.1089 13.1246C90.1089 12.9009 90.258 12.4536 90.4816 11.8572C91.3017 9.99341 92.2709 8.35327 93.2401 6.86225C94.6565 4.7748 95.7003 3.20922 96.5203 2.1655C96.744 1.94185 96.8931 1.64364 97.1167 1.41999C97.4149 0.972679 97.7132 0.749023 97.9368 0.749023C98.0859 0.749023 98.1605 0.823576 98.235 0.898128C98.3096 0.972679 98.3841 1.12178 98.3841 1.19633C98.3841 1.34544 98.3096 1.56909 98.0859 1.8673C98.0114 1.94185 97.7877 2.3146 97.2658 2.98557C96.2967 4.25294 95.5512 5.22211 95.1038 5.96763C94.6565 6.63859 94.0601 7.45866 93.5383 8.27872C92.5691 9.99341 91.8981 11.4844 91.5254 12.6773Z" fill="white"/>
<path d="M98.1604 11.5592V11.7083C98.1604 11.8574 98.1604 12.0065 98.235 12.081C98.3841 12.3047 98.6823 12.4538 99.055 12.4538C99.8751 12.4538 100.919 11.8574 102.037 10.5155C102.261 10.2918 102.41 10.2173 102.484 10.2173C102.559 10.2173 102.634 10.2173 102.708 10.2918C102.783 10.3664 102.783 10.3664 102.783 10.4409C102.783 10.6646 102.484 11.1119 101.739 11.7828C101.217 12.2301 100.621 12.752 100.099 13.0502C99.5769 13.3484 98.9805 13.4975 98.4586 13.4975C97.9368 13.4975 97.4895 13.3484 97.1913 12.9757C96.9676 12.752 96.8931 12.4538 96.8931 11.9319C96.8931 10.7391 97.4149 9.6954 98.5332 8.50257C99.3533 7.5334 100.173 7.16064 100.844 7.16064C100.993 7.16064 101.142 7.2352 101.292 7.30975C101.441 7.45885 101.515 7.6825 101.515 7.90616C101.515 8.27892 101.441 8.80078 101.217 9.24809C100.546 10.59 99.5024 11.1119 98.1604 11.5592ZM98.3841 10.7391C98.8314 10.59 99.1296 10.5155 99.5769 10.2173C100.173 9.76995 100.397 9.54629 100.77 8.94988C100.844 8.80078 100.919 8.65168 100.919 8.50257C100.919 8.35347 100.844 8.27892 100.695 8.27892C100.546 8.27892 100.248 8.42802 99.9497 8.65167C99.2042 9.17353 98.7569 9.8445 98.3841 10.7391Z" fill="white"/>
<path d="M106.361 6.86214C105.913 7.5331 105.541 8.35317 105.093 9.17323C104.571 10.4406 104.348 11.2607 104.348 11.9316C104.348 12.0807 104.348 12.2298 104.422 12.3044C104.497 12.3789 104.571 12.4535 104.721 12.4535C105.019 12.4535 105.466 12.1553 105.988 11.4843C106.286 11.1116 106.51 10.7388 106.808 10.2915C106.957 10.0679 107.032 9.9933 107.181 9.9933C107.255 9.9933 107.33 9.9933 107.404 10.0679C107.479 10.1424 107.479 10.217 107.479 10.217C107.479 10.4406 107.181 11.037 106.435 11.9316C105.69 13.0499 104.87 13.4972 104.273 13.4972C103.975 13.4972 103.677 13.3481 103.453 13.0499C103.304 12.8263 103.229 12.6026 103.229 12.2298C103.229 11.4098 103.453 10.4406 103.9 9.32234C103.975 9.02413 104.348 8.35317 104.87 7.384C104.721 7.45855 104.571 7.45855 104.497 7.45855C104.348 7.45855 104.273 7.45855 104.124 7.384C103.975 7.30945 103.9 7.16034 103.9 7.01124C103.9 6.86214 103.975 6.71304 104.199 6.63848C104.273 6.63848 104.497 6.56393 104.944 6.48938C105.093 6.48938 105.317 6.41483 105.615 6.26573C105.839 5.81842 106.212 5.22201 106.808 4.47649C107.106 4.10373 107.33 3.80553 107.404 3.73098C107.554 3.58188 107.703 3.50732 107.852 3.50732C107.926 3.50732 108.001 3.58188 108.075 3.65643C108.15 3.73098 108.224 3.80553 108.224 3.88008C108.224 4.02918 108.075 4.40194 107.703 4.99835C107.479 5.29656 107.255 5.59477 107.181 5.81842C107.926 5.59477 108.523 5.52021 108.821 5.52021C109.194 5.52021 109.343 5.66932 109.343 5.96752C109.343 6.11662 109.268 6.26573 109.119 6.26573C109.045 6.34028 108.895 6.34028 108.597 6.34028C108.523 6.34028 108.001 6.48938 107.032 6.71304C106.883 6.71304 106.584 6.78759 106.361 6.86214Z" fill="white"/>
<path d="M113.369 0.152832C113.444 0.152832 113.518 0.152832 113.593 0.227383C113.667 0.301934 113.742 0.451038 113.742 0.60014C113.742 0.898346 113.369 1.86752 112.474 3.4331C112.176 3.95496 111.953 4.25316 111.878 4.47682C111.803 4.55137 111.654 4.62592 111.58 4.62592C111.356 4.62592 111.207 4.47682 111.207 4.17861C111.207 3.95496 111.356 3.65675 111.58 3.13489C112.176 1.86752 112.549 1.2711 112.549 1.122C112.773 0.451038 113.071 0.152832 113.369 0.152832Z" fill="white"/>
<path d="M114.338 6.63867C114.711 6.63867 115.083 6.71322 115.307 6.86233C115.531 7.01143 115.605 7.23508 115.605 7.53329C115.605 7.90605 115.456 8.2788 115.158 8.72611C114.86 9.17342 114.487 9.32252 113.816 9.54618C113.518 9.62073 113.294 9.69528 113.071 9.69528C112.772 9.69528 112.623 9.54618 112.623 9.32252C112.623 9.17342 112.698 9.02432 112.847 8.94977C112.921 8.94977 113.145 8.87521 113.518 8.80066C113.741 8.72611 113.965 8.65156 114.189 8.4279C114.338 8.2788 114.487 8.1297 114.487 7.90605C114.487 7.75694 114.412 7.68239 114.338 7.60784C114.263 7.53329 114.114 7.53329 113.965 7.53329C113.592 7.53329 113.145 7.68239 112.623 7.9806C112.101 8.35335 111.803 8.72611 111.803 9.32252C111.803 9.69528 111.952 10.068 112.325 10.6644C112.698 11.2609 112.921 11.7827 112.921 12.1555C112.921 12.7519 112.698 13.2737 112.176 13.572C111.878 13.7956 111.505 13.8702 111.058 13.8702C110.461 13.8702 109.865 13.6465 109.567 13.1992C109.343 12.901 109.194 12.5282 109.194 12.0064C109.194 11.4845 109.343 10.9627 109.567 10.6644C109.716 10.4408 109.939 10.2917 110.088 10.2917C110.238 10.2917 110.312 10.3662 110.312 10.5153C110.312 10.5899 110.312 10.6644 110.238 10.739C110.088 11.0372 110.014 11.3354 110.014 11.7827C110.014 12.0809 110.163 12.3791 110.387 12.6028C110.61 12.8264 110.834 12.901 111.058 12.901C111.281 12.901 111.505 12.8264 111.654 12.6773C111.803 12.5282 111.803 12.3791 111.803 12.1555C111.803 11.8573 111.654 11.5591 111.356 11.0372C110.909 10.4408 110.685 9.84438 110.685 9.32252C110.685 8.65156 111.058 7.9806 111.803 7.53329C112.772 6.93688 113.518 6.63867 114.338 6.63867Z" fill="white"/>
<path d="M123.284 12.6775C123.955 12.1556 124.552 11.6338 124.924 11.1864C125.446 10.59 125.893 9.99362 126.043 9.62086C126.117 9.47176 126.266 9.39721 126.341 9.39721C126.49 9.39721 126.564 9.47176 126.564 9.62086C126.564 9.76997 126.415 10.0682 126.192 10.59C125.446 11.932 124.179 13.0502 122.539 14.0194C121.793 15.585 121.197 16.6287 120.898 17.2251C119.929 18.7161 119.035 19.3871 118.289 19.3871C117.842 19.3871 117.544 19.238 117.32 18.8652C117.245 18.6416 117.171 18.4925 117.171 18.1943C117.171 17.076 117.842 16.1068 119.258 15.0631C119.482 14.914 120.377 14.3922 121.868 13.4975C122.166 12.9011 122.39 12.3047 122.539 12.0065C121.868 12.752 121.197 13.1993 120.749 13.1993C120.451 13.1993 120.228 13.0502 120.078 12.752C120.004 12.5284 119.929 12.3793 119.929 12.1556C119.929 11.7083 120.153 11.0373 120.526 10.2918C121.048 9.17356 121.793 8.27894 122.613 7.68253C123.284 7.16067 123.881 6.93701 124.402 6.93701C124.626 6.93701 124.85 7.01156 125.073 7.23522C125.222 7.38432 125.297 7.53342 125.297 7.75708C125.297 8.05528 125.222 8.42804 124.999 8.9499C125.148 9.09901 125.222 9.17356 125.222 9.24811C125.222 9.32266 125.222 9.32266 125.148 9.47176C124.999 9.69542 124.701 10.1427 124.328 10.8882C123.881 11.4101 123.582 11.932 123.284 12.6775ZM123.21 10.2173C123.135 10.1427 123.06 10.0682 123.06 9.99362C123.06 9.91907 123.135 9.84452 123.21 9.76997C123.508 9.47176 123.806 9.09901 124.03 8.72625C124.179 8.42804 124.253 8.27894 124.253 8.12983C124.253 7.98073 124.179 7.83163 124.03 7.83163C123.731 7.83163 123.359 8.12983 122.762 8.65169C122.166 9.32266 121.569 10.0682 121.197 10.8882C121.048 11.261 120.973 11.5592 120.973 11.8574C120.973 12.0065 120.973 12.0811 121.048 12.1556C121.122 12.2302 121.197 12.2302 121.271 12.2302C121.495 12.2302 121.793 12.0065 122.315 11.5592C122.613 11.261 122.837 10.9628 122.986 10.59C123.21 10.3664 123.21 10.2173 123.21 10.2173ZM121.271 14.7649C120.302 15.1377 119.557 15.7341 118.886 16.4796C118.587 16.8524 118.364 17.2251 118.215 17.6724C118.14 17.8215 118.14 17.8961 118.14 17.9706C118.14 18.0452 118.14 18.1197 118.215 18.1943C118.289 18.3434 118.364 18.3434 118.513 18.3434C118.886 18.3434 119.482 17.8961 120.004 16.9269C120.451 16.2559 120.898 15.4359 121.271 14.7649Z" fill="white"/>
<path d="M128.577 10.1424C129.248 9.47141 130.068 8.72589 130.888 8.05493C131.187 7.83127 131.485 7.60762 131.932 7.38397C132.081 7.30941 132.23 7.23486 132.23 7.23486C132.305 7.23486 132.454 7.30941 132.529 7.45852C132.603 7.53307 132.603 7.60762 132.603 7.68217C132.603 7.83127 132.454 7.98038 132.23 8.12948C131.559 8.65134 131.187 9.09865 131.187 9.39686C131.187 9.54596 131.261 9.62051 131.41 9.62051C131.708 9.62051 132.156 9.39686 132.976 8.94955C133.125 8.875 133.199 8.80044 133.274 8.80044C133.349 8.80044 133.349 8.80044 133.423 8.875C133.498 8.94955 133.498 9.0241 133.498 9.09865C133.498 9.3223 133.199 9.62051 132.678 10.0678C132.081 10.5151 131.485 10.7388 130.963 10.7388C130.739 10.7388 130.59 10.6642 130.367 10.5897C130.217 10.5151 130.143 10.366 130.143 10.0678C130.143 9.91871 130.217 9.69506 130.367 9.47141C129.845 9.84416 129.174 10.5151 128.428 11.4097C128.055 11.9316 127.608 12.6771 127.161 13.4972C127.012 13.7954 126.788 13.9445 126.564 13.9445C126.341 13.9445 126.192 13.7954 126.192 13.5717C126.192 13.3481 126.415 12.7517 126.788 11.7079C127.384 10.2169 127.981 9.09865 128.652 8.20403C129.025 7.68217 129.323 7.45852 129.696 7.45852C129.77 7.45852 129.845 7.45852 129.919 7.53307C129.994 7.60762 130.068 7.68217 130.068 7.75672C130.068 7.83127 129.994 7.98038 129.845 8.20403C129.845 8.20403 129.621 8.42769 129.323 8.875C128.95 9.3223 128.726 9.69506 128.577 10.1424Z" fill="white"/>
<path d="M137.002 6.8623C137.524 6.8623 137.822 7.16051 137.822 7.90602C137.822 8.87519 137.449 9.91891 136.555 11.3354C135.585 12.8264 134.765 13.5719 133.945 13.5719C133.572 13.5719 133.274 13.4228 133.125 13.0501C133.051 12.901 132.976 12.6773 132.976 12.3791C132.976 11.559 133.274 10.5899 133.945 9.47161C134.467 8.50244 135.213 7.75692 135.884 7.30961C136.256 7.01141 136.704 6.8623 137.002 6.8623ZM136.033 10.8135C135.884 10.6644 135.809 10.5899 135.809 10.5153C135.809 10.4408 135.884 10.2917 136.107 10.068C136.704 9.39705 137.076 8.80064 137.076 8.42788C137.076 8.35333 137.076 8.35333 137.002 8.27878C136.927 8.20423 136.853 8.12968 136.778 8.12968C136.555 8.12968 136.256 8.35333 135.809 8.72609C135.287 9.24795 134.84 9.84436 134.542 10.4408C134.243 11.1117 134.094 11.7081 134.094 12.0809C134.094 12.1555 134.094 12.3046 134.169 12.3791C134.243 12.5282 134.393 12.5282 134.467 12.5282C134.765 12.5282 135.138 12.3046 135.585 11.8573C135.735 11.6336 135.884 11.4845 135.958 11.2608C135.958 10.8881 136.033 10.8135 136.033 10.8135Z" fill="white"/>
<path d="M141.475 10.5897C140.878 11.3352 140.431 11.9317 140.133 12.2299C139.835 12.6026 139.536 12.9008 139.164 13.0499C138.865 13.2736 138.642 13.3481 138.418 13.3481C138.194 13.3481 138.045 13.199 137.896 12.9754C137.822 12.8263 137.747 12.6026 137.747 12.379C137.747 11.6334 138.194 10.5897 139.089 9.2478C139.835 8.05497 140.505 7.45856 140.878 7.45856C140.953 7.45856 141.027 7.53311 141.176 7.60766C141.251 7.68221 141.326 7.75677 141.326 7.90587C141.326 8.05497 141.176 8.27863 140.953 8.50228C140.431 9.02414 139.835 9.69511 139.462 10.3661C139.089 10.9625 138.94 11.4098 138.94 11.5589C138.94 11.708 139.014 11.7825 139.089 11.7825C139.462 11.7825 140.431 10.9625 141.698 9.17325C142.146 8.65139 142.369 8.20407 142.444 8.12952C142.593 7.98042 142.817 7.90587 142.966 7.90587C143.115 7.90587 143.189 7.90587 143.264 7.98042C143.338 8.05497 143.338 8.12952 143.338 8.20407C143.338 8.27863 143.189 8.57683 142.891 9.2478C142.146 10.5897 141.773 11.4098 141.773 11.8571C141.773 12.0062 141.847 12.0808 141.997 12.0808C142.22 12.0808 142.593 11.7825 143.04 11.2607C143.413 10.7388 143.786 9.99331 144.233 9.2478C144.382 8.87504 144.531 8.42773 144.606 7.83132C144.755 7.16035 144.979 6.7876 145.426 6.7876C145.65 6.7876 145.724 6.9367 145.724 7.16035C145.724 8.12952 145.277 9.2478 144.233 10.8134C143.189 12.4535 142.295 13.2736 141.624 13.2736C141.102 13.2736 140.878 12.9754 140.878 12.2299C140.953 12.0808 141.176 11.4098 141.475 10.5897Z" fill="white"/>
<path d="M152.583 11.7825C152.359 12.1553 152.136 12.4535 151.912 12.8262C151.465 13.3481 151.092 13.5718 150.645 13.5718C150.197 13.5718 150.048 13.4227 149.824 13.0499C149.675 12.8262 149.601 12.6026 149.601 12.3044C149.601 11.5589 149.824 10.6643 150.272 9.84419C150.794 8.80047 151.465 8.05495 152.21 7.53309C152.657 7.16033 153.179 7.01123 153.627 7.01123C153.925 7.01123 154.148 7.08578 154.298 7.23488C154.447 7.38399 154.521 7.53309 154.521 7.75674C154.521 7.90585 154.447 8.1295 154.372 8.35316C154.447 8.50226 154.521 8.57681 154.521 8.72592C154.521 8.87502 154.447 9.09867 154.223 9.39688C153.999 9.69508 153.85 10.1424 153.627 10.7388C153.403 11.3352 153.328 11.8571 153.328 12.1553C153.328 12.4535 153.403 12.6771 153.552 12.8262C153.627 12.9008 153.701 12.9754 153.925 13.0499C154.074 13.1245 154.148 13.2736 154.148 13.4972C154.148 13.6463 154.074 13.7209 153.999 13.7954C153.925 13.87 153.776 13.9445 153.627 13.9445C153.254 13.9445 152.956 13.7954 152.657 13.4972C152.434 13.2736 152.359 12.9008 152.359 12.4535C152.583 12.3044 152.583 12.0807 152.583 11.7825ZM153.925 8.42771C153.85 8.2786 153.776 8.20405 153.701 8.1295C153.627 8.05495 153.478 8.05495 153.403 8.05495C152.881 8.05495 152.285 8.50226 151.688 9.47143C151.017 10.5152 150.645 11.3352 150.645 12.0062C150.645 12.1553 150.645 12.3044 150.719 12.3789C150.794 12.4535 150.868 12.528 151.017 12.528C151.316 12.528 151.688 12.2298 152.21 11.4843C152.434 11.1116 152.732 10.5152 153.179 9.76964C153.403 9.32233 153.552 9.02412 153.701 8.80046C153.701 8.65136 153.776 8.50226 153.925 8.42771Z" fill="white"/>
<path d="M161.231 10.0678C161.007 10.5897 160.858 11.037 160.783 11.4097C160.709 11.7079 160.634 11.9316 160.634 12.0807C160.634 12.2298 160.709 12.3044 160.858 12.3044C161.082 12.3044 161.38 12.0807 161.827 11.6334C161.976 11.4097 162.274 11.037 162.647 10.366C162.796 10.1424 162.945 10.0678 163.095 10.0678C163.244 10.0678 163.318 10.1424 163.318 10.2915C163.318 10.5897 163.02 11.1115 162.274 12.0807C161.603 13.0499 160.933 13.4972 160.336 13.4972C160.112 13.4972 159.889 13.4226 159.74 13.199C159.665 13.0499 159.591 12.9008 159.591 12.6771C159.591 12.3044 159.665 11.7079 159.889 11.1115C160.112 10.4406 160.411 9.6205 160.933 8.65133C162.125 6.19113 163.318 4.10369 164.511 2.61266C165.555 1.27073 166.3 0.674316 166.897 0.674316C167.12 0.674316 167.269 0.748869 167.344 0.897972C167.493 1.04707 167.568 1.19618 167.568 1.41983C167.568 2.389 166.748 3.95458 165.033 6.19113C164.287 7.23485 163.318 8.12947 162.274 9.17319C162.125 9.32229 161.678 9.69505 161.231 10.0678ZM161.902 8.42767C163.318 7.1603 164.66 5.66927 165.704 3.80548C166.226 2.83631 166.524 2.16535 166.524 1.86714C166.524 1.71804 166.449 1.64349 166.3 1.64349C165.928 1.64349 165.182 2.389 164.287 3.88003C163.542 5.14741 162.722 6.63844 161.902 8.42767Z" fill="white"/>
<path d="M166.748 7.384C166.822 7.384 166.971 7.45855 167.046 7.5331C167.121 7.60765 167.121 7.68221 167.121 7.75676C167.121 7.90586 167.046 8.05496 166.822 8.35317C166.151 9.47144 165.555 10.3661 165.257 11.1116C164.958 11.7825 164.66 12.6026 164.437 13.3481C164.362 13.6463 164.138 13.87 163.915 13.87C163.766 13.87 163.691 13.7954 163.617 13.7209C163.542 13.6463 163.542 13.5718 163.542 13.4227C163.542 13.199 163.766 12.6026 164.138 11.4098C164.437 10.4406 165.108 9.47144 165.779 8.35317C166.002 7.98041 166.226 7.75676 166.3 7.68221C166.524 7.45855 166.599 7.384 166.748 7.384ZM168.686 3.50732C168.984 3.50732 169.133 3.65643 169.133 3.95463C169.133 4.25284 168.984 4.55104 168.686 4.9238C168.388 5.29656 168.164 5.37111 167.866 5.37111C167.717 5.37111 167.642 5.29656 167.568 5.22201C167.493 5.14746 167.419 4.99835 167.419 4.9238C167.419 4.62559 167.568 4.25284 167.941 3.88008C168.239 3.73098 168.462 3.50732 168.686 3.50732Z" fill="white"/>
<path d="M169.805 8.12988C170.326 7.68258 170.923 7.45892 171.37 7.45892C171.668 7.45892 171.892 7.60802 172.041 7.83168C172.19 8.05533 172.265 8.27899 172.265 8.50264C172.265 9.0245 172.116 9.69546 171.743 10.441C171.37 11.261 170.774 12.0811 170.028 12.7521C169.432 13.3485 168.835 13.7212 168.314 13.7212C168.09 13.7212 167.941 13.7212 167.792 13.6467C167.643 13.5721 167.493 13.4976 167.344 13.3485C167.27 13.423 167.27 13.4976 167.27 13.4976C167.195 13.7212 167.046 13.8703 167.046 13.9449C166.972 14.0194 166.897 14.0194 166.822 14.0194C166.673 14.0194 166.599 13.9449 166.524 13.7958C166.45 13.7212 166.45 13.5721 166.45 13.4976C166.45 13.3485 166.822 12.3048 167.643 10.5901C168.761 8.20444 170.028 5.74424 171.445 3.35859C172.041 2.31487 172.414 1.79301 172.563 1.64391C172.712 1.42025 172.861 1.3457 172.936 1.3457C173.085 1.3457 173.234 1.42025 173.308 1.56936C173.383 1.64391 173.383 1.79301 173.383 1.86756C173.383 2.01667 173.308 2.16577 173.159 2.38942C173.159 2.46397 172.936 2.76218 172.563 3.5077C171.296 5.22238 170.401 6.86251 169.805 8.12988ZM167.792 12.2302C167.866 12.3793 168.015 12.4539 168.09 12.5284C168.164 12.603 168.314 12.603 168.388 12.603C168.984 12.603 169.655 12.0811 170.252 11.0374C170.55 10.5901 170.774 10.0682 170.923 9.62091C171.072 9.24816 171.146 8.94995 171.146 8.65174C171.146 8.50264 171.146 8.42809 171.072 8.35354C170.997 8.27899 170.923 8.27899 170.774 8.27899C170.475 8.27899 170.103 8.50264 169.581 8.8754C169.134 9.24816 168.761 9.91912 168.239 10.7392C168.015 11.1119 167.866 11.4847 167.717 11.8575C167.866 12.1557 167.792 12.2302 167.792 12.2302Z" fill="white"/>
<path d="M174.352 10.1424C175.023 9.47141 175.843 8.72589 176.663 8.05493C176.962 7.83127 177.26 7.60762 177.707 7.38397C177.856 7.30941 178.005 7.23486 178.005 7.23486C178.08 7.23486 178.229 7.30941 178.303 7.45852C178.378 7.53307 178.378 7.60762 178.378 7.68217C178.378 7.83127 178.229 7.98038 178.005 8.12948C177.334 8.65134 176.962 9.09865 176.962 9.39686C176.962 9.54596 177.036 9.62051 177.185 9.62051C177.483 9.62051 177.931 9.39686 178.751 8.94955C178.9 8.875 178.974 8.80044 179.049 8.80044C179.124 8.80044 179.124 8.80044 179.198 8.875C179.273 8.94955 179.273 9.0241 179.273 9.09865C179.273 9.3223 178.974 9.62051 178.453 10.0678C177.856 10.5151 177.26 10.7388 176.738 10.7388C176.514 10.7388 176.365 10.6642 176.141 10.5897C175.992 10.5151 175.918 10.366 175.918 10.0678C175.918 9.91871 175.992 9.69506 176.141 9.47141C175.62 9.84416 174.949 10.5151 174.203 11.4097C173.83 11.9316 173.383 12.6771 172.936 13.4972C172.787 13.7954 172.563 13.9445 172.339 13.9445C172.116 13.9445 171.967 13.7954 171.967 13.5717C171.967 13.3481 172.19 12.7517 172.563 11.7079C173.159 10.2169 173.756 9.09865 174.427 8.20403C174.8 7.68217 175.098 7.45852 175.471 7.45852C175.545 7.45852 175.62 7.45852 175.694 7.53307C175.769 7.60762 175.843 7.68217 175.843 7.75672C175.843 7.83127 175.769 7.98038 175.62 8.20403C175.62 8.20403 175.396 8.42769 175.098 8.875C174.8 9.3223 174.576 9.69506 174.352 10.1424Z" fill="white"/>
<path d="M182.18 11.7825C181.956 12.1553 181.733 12.4535 181.509 12.8262C181.062 13.3481 180.689 13.5718 180.241 13.5718C179.869 13.5718 179.645 13.4227 179.421 13.0499C179.272 12.8262 179.198 12.6026 179.198 12.3044C179.198 11.5589 179.421 10.6643 179.869 9.84419C180.391 8.80047 181.062 8.05495 181.807 7.53309C182.254 7.16033 182.776 7.01123 183.224 7.01123C183.522 7.01123 183.745 7.08578 183.894 7.23488C184.044 7.38399 184.118 7.53309 184.118 7.75674C184.118 7.90585 184.044 8.1295 183.969 8.35316C184.044 8.50226 184.118 8.57681 184.118 8.72592C184.118 8.87502 184.044 9.09867 183.82 9.39688C183.596 9.69508 183.447 10.1424 183.224 10.7388C183 11.3352 182.925 11.8571 182.925 12.1553C182.925 12.4535 183 12.6771 183.149 12.8262C183.224 12.9008 183.298 12.9754 183.522 13.0499C183.671 13.1245 183.745 13.2736 183.745 13.4972C183.745 13.6463 183.671 13.7209 183.596 13.7954C183.522 13.87 183.373 13.9445 183.224 13.9445C182.851 13.9445 182.553 13.7954 182.254 13.4972C182.031 13.2736 181.956 12.9008 181.956 12.4535C182.105 12.3044 182.105 12.0807 182.18 11.7825ZM183.447 8.42771C183.373 8.2786 183.298 8.20405 183.224 8.1295C183.149 8.05495 183 8.05495 182.925 8.05495C182.403 8.05495 181.807 8.50226 181.211 9.47143C180.54 10.5152 180.167 11.3352 180.167 12.0062C180.167 12.1553 180.167 12.3044 180.241 12.3789C180.316 12.4535 180.391 12.528 180.54 12.528C180.838 12.528 181.211 12.2298 181.732 11.4843C181.956 11.1116 182.254 10.5152 182.702 9.76964C182.925 9.32233 183.074 9.02412 183.224 8.80046C183.149 8.65136 183.224 8.50226 183.447 8.42771Z" fill="white"/>
<path d="M186.951 10.1424C187.622 9.47141 188.442 8.72589 189.262 8.05493C189.561 7.83127 189.859 7.60762 190.306 7.38397C190.455 7.30941 190.604 7.23486 190.604 7.23486C190.679 7.23486 190.828 7.30941 190.903 7.45852C190.977 7.53307 190.977 7.60762 190.977 7.68217C190.977 7.83127 190.828 7.98038 190.604 8.12948C189.933 8.65134 189.561 9.09865 189.561 9.39686C189.561 9.54596 189.635 9.62051 189.784 9.62051C190.082 9.62051 190.53 9.39686 191.35 8.94955C191.499 8.875 191.573 8.80044 191.648 8.80044C191.723 8.80044 191.723 8.80044 191.797 8.875C191.872 8.94955 191.872 9.0241 191.872 9.09865C191.872 9.3223 191.573 9.62051 191.052 10.0678C190.455 10.5151 189.859 10.7388 189.337 10.7388C189.113 10.7388 188.964 10.6642 188.741 10.5897C188.591 10.5151 188.517 10.366 188.517 10.0678C188.517 9.91871 188.591 9.69506 188.741 9.47141C188.219 9.84416 187.548 10.5151 186.802 11.4097C186.429 11.9316 185.982 12.6771 185.535 13.4972C185.386 13.7954 185.162 13.9445 184.938 13.9445C184.715 13.9445 184.566 13.7954 184.566 13.5717C184.566 13.3481 184.789 12.7517 185.162 11.7079C185.758 10.2169 186.355 9.09865 187.026 8.20403C187.399 7.68217 187.697 7.45852 188.07 7.45852C188.144 7.45852 188.219 7.45852 188.293 7.53307C188.368 7.60762 188.442 7.68217 188.442 7.75672C188.442 7.83127 188.368 7.98038 188.219 8.20403C188.219 8.20403 187.995 8.42769 187.697 8.875C187.324 9.3223 187.1 9.69506 186.951 10.1424Z" fill="white"/>
<path d="M195.152 10.5897C194.555 11.2606 194.034 11.8571 193.661 12.2298C192.99 12.9008 192.319 13.2735 191.872 13.2735C191.648 13.2735 191.499 13.199 191.35 13.0499C191.275 12.9008 191.201 12.7517 191.201 12.528C191.201 11.8571 191.648 10.8133 192.543 9.54596C193.363 8.27858 194.108 7.68217 194.481 7.68217C194.555 7.68217 194.705 7.75672 194.779 7.83127C194.854 7.90583 194.854 7.98038 194.854 8.05493C194.854 8.20403 194.779 8.35313 194.705 8.42769C194.63 8.50224 194.406 8.80044 194.034 9.1732C193.661 9.54596 193.288 9.99327 192.915 10.5151C192.543 11.037 192.393 11.4843 192.393 11.7079C192.393 11.8571 192.468 11.9316 192.617 11.9316C192.915 11.9316 193.363 11.5588 194.183 10.8133C194.63 10.366 195.003 9.99327 195.301 9.62051C195.375 9.54596 195.599 9.24775 195.972 8.57679C196.345 8.05493 196.568 7.75672 196.643 7.60762C196.867 7.38397 197.016 7.23486 197.165 7.23486C197.239 7.23486 197.388 7.30941 197.463 7.38397C197.538 7.45852 197.612 7.53307 197.612 7.68217C197.612 7.90583 197.463 8.20403 197.239 8.72589C196.941 9.24775 196.643 9.84416 196.27 10.2915C195.823 11.037 195.525 11.7825 195.226 12.3044C195.674 12.0807 196.046 11.7825 196.419 11.3352C197.016 10.7388 197.463 10.2169 197.612 9.91872C197.761 9.62051 197.836 9.54596 197.985 9.54596C198.134 9.54596 198.283 9.62051 198.283 9.84416C198.283 10.2169 197.985 10.8133 197.314 11.4843C196.643 12.3044 195.674 13.0499 194.555 13.6463C194.034 15.0628 193.437 16.1065 192.915 17.0757C191.946 18.7903 190.977 19.5359 189.933 19.5359C189.56 19.5359 189.188 19.3868 188.89 19.0885C188.666 18.8649 188.591 18.5667 188.591 18.1194C188.591 17.0011 189.337 15.9574 190.828 14.8391C191.275 14.5409 191.946 14.1681 192.766 13.5717C193.064 13.3481 193.363 13.199 193.586 13.1244C193.735 12.8262 193.884 12.4535 194.108 11.8571C194.705 11.5588 194.928 11.1115 195.152 10.5897ZM193.288 14.69C192.617 15.0628 191.797 15.6592 191.052 16.2556C190.306 16.9266 189.859 17.5975 189.859 18.1939C189.859 18.343 189.859 18.4176 189.933 18.4921C190.008 18.6412 190.157 18.6412 190.306 18.6412C190.828 18.6412 191.424 18.1194 192.021 17.0011C192.095 16.852 192.393 16.2556 192.841 15.2119C193.064 15.1373 193.139 14.9137 193.288 14.69Z" fill="white"/>
<path d="M190.427 41.5977C188.892 41.5977 187.643 42.8474 187.643 44.3819C187.643 45.9163 188.892 47.1662 190.427 47.1662C191.961 47.1662 193.211 45.9163 193.211 44.3819C193.211 42.8474 191.961 41.5977 190.427 41.5977ZM190.427 42.1544C191.66 42.1544 192.654 43.1484 192.654 44.3819C192.654 45.6153 191.66 46.6093 190.427 46.6093C189.193 46.6093 188.199 45.6153 188.199 44.3819C188.199 43.1484 189.193 42.1544 190.427 42.1544ZM189.452 42.9897V45.774H190.035V44.7734H190.479L191.01 45.774H191.628V45.748L191.01 44.6083C191.065 44.5802 191.154 44.551 191.21 44.4951C191.293 44.4389 191.32 44.3854 191.375 44.3297C191.431 44.2465 191.461 44.1871 191.488 44.1037C191.516 44.0204 191.514 43.9364 191.514 43.8251C191.514 43.6859 191.483 43.571 191.427 43.4596C191.4 43.3764 191.32 43.2996 191.236 43.2162C191.125 43.1329 191.036 43.07 190.897 43.0421C190.785 43.014 190.646 42.9902 190.479 42.9902L189.452 42.9897ZM190.061 43.4944H190.514C190.653 43.4944 190.761 43.5149 190.844 43.5993C190.928 43.6825 190.958 43.7732 190.958 43.9124C190.958 43.9687 190.96 44.0221 190.932 44.0778C190.904 44.134 190.872 44.1891 190.844 44.217C190.817 44.2451 190.761 44.2679 190.705 44.2949C190.65 44.323 190.597 44.3295 190.514 44.3295H190.061V43.4944Z" fill="white"/>
<path d="M37.6039 41.5977C36.0694 41.5977 34.8196 42.8474 34.8196 44.3819C34.8196 45.9163 36.0694 47.1662 37.6039 47.1662C39.1383 47.1662 40.3881 45.9163 40.3881 44.3819C40.3881 42.8474 39.1383 41.5977 37.6039 41.5977ZM37.6039 42.1544C38.8373 42.1544 39.8313 43.1484 39.8313 44.3819C39.8313 45.6153 38.8373 46.6093 37.6039 46.6093C36.3704 46.6093 35.3764 45.6153 35.3764 44.3819C35.3764 43.1484 36.3704 42.1544 37.6039 42.1544ZM36.6294 42.9897V45.774H37.2123V44.7734H37.656L38.1868 45.774H38.8045V45.748L38.1868 44.6083C38.2424 44.5802 38.3312 44.551 38.3869 44.4951C38.4705 44.4389 38.4965 44.3854 38.5522 44.3297C38.6079 44.2465 38.6376 44.1871 38.6654 44.1037C38.6933 44.0204 38.6914 43.9364 38.6914 43.8251C38.6914 43.6859 38.6601 43.571 38.6044 43.4596C38.5765 43.3764 38.4965 43.2996 38.413 43.2162C38.3016 43.1329 38.2128 43.07 38.0736 43.0421C37.9622 43.014 37.823 42.9902 37.656 42.9902L36.6294 42.9897ZM37.2384 43.4944H37.6908C37.83 43.4944 37.9379 43.5149 38.0215 43.5993C38.105 43.6825 38.1346 43.7732 38.1346 43.9124C38.1346 43.9687 38.1367 44.0221 38.1085 44.0778C38.0806 44.134 38.0494 44.1891 38.0215 44.217C37.9936 44.2451 37.938 44.2679 37.8823 44.2949C37.8266 44.323 37.7744 44.3295 37.6909 44.3295H37.2384V43.4944Z" fill="white"/>
</svg>
