<svg width="26" height="36" viewBox="0 0 26 36" fill="none" xmlns="http://www.w3.org/2000/svg">
<g clip-path="url(#clip0)">
<path d="M14.3506 28.6852V23.4655H11.0229V28.6852H7.34717L12.7497 34.9915L18.152 28.6852H14.3506Z" fill="#5D5D5D"/>
<path d="M23.3469 10.3165V7.51194C23.3469 7.3649 23.2845 7.21558 23.1803 7.11077L16.2722 0.190846C16.1822 0.0795689 16.0001 0.0213623 15.8619 0.0213623H2.6509C2.33224 0.0213623 2.07397 0.276824 2.07397 0.592015V10.3165H0.261475V21.6478H2.07397V26.4473C2.07397 26.7627 2.33224 27.018 2.6509 27.018H10.0615V25.8767H3.22782V21.6478H22.193V25.8767H15.3122V27.018H22.7699C23.0886 27.018 23.3469 26.7627 23.3469 26.4473V21.6478H25.0984V10.3165H23.3469ZM16.4388 1.98117L21.3884 6.94128H16.4388V1.98117ZM22.193 10.3165H3.22782V1.16267H15.2849V7.51174C15.2849 7.82693 15.5432 8.0824 15.8619 8.0824H22.193V10.3165Z" fill="#5D5D5D"/>
<path d="M4.17236 16.8987V19.4036H2.70752V12.2943H5.48096C6.01481 12.2943 6.48356 12.3919 6.88721 12.5872C7.29411 12.7825 7.60661 13.0609 7.82471 13.4222C8.04281 13.7803 8.15186 14.1888 8.15186 14.6478C8.15186 15.3444 7.9126 15.8945 7.43408 16.2982C6.95882 16.6985 6.29964 16.8987 5.45654 16.8987H4.17236ZM4.17236 15.7122H5.48096C5.86833 15.7122 6.16292 15.6211 6.36475 15.4388C6.56982 15.2565 6.67236 14.9961 6.67236 14.6575C6.67236 14.3092 6.56982 14.0276 6.36475 13.8128C6.15967 13.598 5.87647 13.4873 5.51514 13.4808H4.17236V15.7122Z" fill="white"/>
<path d="M14.9438 19.4036H13.479L10.6274 14.7259V19.4036H9.1626V12.2943H10.6274L13.4839 16.9818V12.2943H14.9438V19.4036Z" fill="white"/>
<path d="M21.8481 18.5052C21.5845 18.8209 21.2118 19.0667 20.73 19.2425C20.2482 19.415 19.7144 19.5013 19.1284 19.5013C18.5132 19.5013 17.9728 19.3678 17.5073 19.1009C17.0451 18.8307 16.687 18.4401 16.4331 17.929C16.1825 17.4179 16.0539 16.8174 16.0474 16.1273V15.6439C16.0474 14.9342 16.1662 14.3206 16.4038 13.803C16.6447 13.2822 16.9897 12.8851 17.439 12.6116C17.8914 12.3349 18.4204 12.1966 19.0259 12.1966C19.869 12.1966 20.5282 12.3984 21.0034 12.8021C21.4787 13.2025 21.7603 13.7868 21.8481 14.555H20.4224C20.3573 14.1481 20.2124 13.8502 19.9878 13.6614C19.7664 13.4726 19.4605 13.3782 19.0698 13.3782C18.5718 13.3782 18.1925 13.5654 17.9321 13.9398C17.6717 14.3141 17.5399 14.8707 17.5366 15.6097V16.0638C17.5366 16.8092 17.6782 17.3724 17.9614 17.7532C18.2446 18.1341 18.6597 18.3245 19.2065 18.3245C19.7567 18.3245 20.1489 18.2073 20.3833 17.973V16.7474H19.0503V15.6683H21.8481V18.5052Z" fill="white"/>
</g>
<defs>
<clipPath id="clip0">
<rect width="25" height="35" fill="white" transform="translate(0.25293 0.0116577)"/>
</clipPath>
</defs>
</svg>
