<svg width="31" height="42" viewBox="0 0 31 42" fill="none" xmlns="http://www.w3.org/2000/svg">
<path d="M17.6644 34.4082V28.1445H13.6712V34.4082H9.26025L15.7433 41.9757L22.226 34.4082H17.6644Z" fill="black"/>
<path d="M28.4598 12.3657V9.00029C28.4598 8.82384 28.385 8.64465 28.2599 8.51888L19.9702 0.214977C19.8622 0.0814446 19.6437 0.0115967 19.4778 0.0115967H3.62463C3.24225 0.0115967 2.93232 0.318151 2.93232 0.696379V12.3657H0.757324V25.9632H2.93232V31.7227C2.93232 32.1012 3.24225 32.4075 3.62463 32.4075H12.5173V31.0379H4.31694V25.9632H27.0752V31.0379H18.8182V32.4075H27.7675C28.1499 32.4075 28.4598 32.1012 28.4598 31.7227V25.9632H30.5616V12.3657H28.4598ZM20.1701 2.36337L26.1096 8.3155H20.1701V2.36337ZM27.0752 12.3657H4.31694V1.38116H18.7855V9.00006C18.7855 9.37828 19.0954 9.68484 19.4778 9.68484H27.0752V12.3657Z" fill="black"/>
<path d="M9.38184 20.9536C9.38184 20.814 9.36035 20.6886 9.31738 20.5776C9.27799 20.4631 9.2028 20.3592 9.0918 20.2661C8.98079 20.1694 8.82503 20.0745 8.62451 19.9814C8.42399 19.8883 8.16439 19.7917 7.8457 19.6914C7.49121 19.5768 7.15462 19.4479 6.83594 19.3047C6.52083 19.1615 6.24154 18.995 5.99805 18.8052C5.75814 18.6118 5.56836 18.388 5.42871 18.1338C5.29264 17.8796 5.22461 17.5841 5.22461 17.2476C5.22461 16.9217 5.29622 16.6263 5.43945 16.3613C5.58268 16.0928 5.7832 15.8636 6.04102 15.6738C6.29883 15.4805 6.60319 15.3319 6.9541 15.228C7.30859 15.1242 7.6971 15.0723 8.11963 15.0723C8.69613 15.0723 9.19922 15.1761 9.62891 15.3838C10.0586 15.5915 10.3916 15.8761 10.6279 16.2378C10.8678 16.5994 10.9878 17.013 10.9878 17.4785H9.38721C9.38721 17.2493 9.33887 17.0488 9.24219 16.877C9.14909 16.7015 9.00586 16.5636 8.8125 16.4634C8.62272 16.3631 8.38281 16.313 8.09277 16.313C7.81348 16.313 7.58073 16.356 7.39453 16.4419C7.20833 16.5243 7.06868 16.637 6.97559 16.7803C6.88249 16.9199 6.83594 17.0775 6.83594 17.2529C6.83594 17.3854 6.86816 17.5054 6.93262 17.6128C7.00065 17.7202 7.10091 17.8205 7.2334 17.9136C7.36589 18.0067 7.52881 18.0944 7.72217 18.1768C7.91553 18.2591 8.13932 18.3397 8.39355 18.4185C8.81966 18.5474 9.19385 18.6924 9.51611 18.8535C9.84196 19.0146 10.1141 19.1955 10.3325 19.396C10.5509 19.5965 10.7157 19.8239 10.8267 20.0781C10.9377 20.3324 10.9932 20.6206 10.9932 20.9429C10.9932 21.283 10.9269 21.5874 10.7944 21.856C10.6619 22.1245 10.4704 22.3519 10.2197 22.5381C9.96908 22.7243 9.67008 22.8657 9.32275 22.9624C8.97542 23.0591 8.58691 23.1074 8.15723 23.1074C7.77051 23.1074 7.38916 23.0573 7.01318 22.957C6.63721 22.8532 6.29525 22.6974 5.9873 22.4897C5.68294 22.2821 5.43945 22.0171 5.25684 21.6948C5.07422 21.3726 4.98291 20.9912 4.98291 20.5508H6.59961C6.59961 20.7943 6.63721 21.0002 6.7124 21.1685C6.7876 21.3368 6.89323 21.4728 7.0293 21.5767C7.16895 21.6805 7.33366 21.7557 7.52344 21.8022C7.7168 21.8488 7.92806 21.8721 8.15723 21.8721C8.43652 21.8721 8.66569 21.8327 8.84473 21.7539C9.02734 21.6751 9.16162 21.5659 9.24756 21.4263C9.33708 21.2866 9.38184 21.1291 9.38184 20.9536Z" fill="white"/>
<path d="M14.9087 21.3672L16.751 15.1797H18.5449L15.8218 23H14.6401L14.9087 21.3672ZM13.2114 15.1797L15.0483 21.3672L15.3276 23H14.1353L11.4282 15.1797H13.2114Z" fill="white"/>
<path d="M25.3984 18.9126V22.0117C25.2767 22.1585 25.0887 22.3179 24.8345 22.4897C24.5802 22.658 24.2526 22.8031 23.8516 22.9248C23.4505 23.0465 22.9653 23.1074 22.396 23.1074C21.8911 23.1074 21.431 23.0251 21.0156 22.8604C20.6003 22.6921 20.2422 22.4468 19.9414 22.1245C19.6442 21.8022 19.415 21.4084 19.2539 20.9429C19.0928 20.4738 19.0122 19.9385 19.0122 19.3369V18.8481C19.0122 18.2466 19.0892 17.7113 19.2432 17.2422C19.4007 16.7731 19.6245 16.3774 19.9146 16.0552C20.2046 15.7329 20.5501 15.4876 20.9512 15.3193C21.3522 15.151 21.798 15.0669 22.2886 15.0669C22.9689 15.0669 23.5275 15.1779 23.9644 15.3999C24.4012 15.6183 24.7342 15.9227 24.9634 16.313C25.1961 16.6997 25.3394 17.1437 25.3931 17.645H23.8301C23.7907 17.38 23.7155 17.1491 23.6045 16.9521C23.4935 16.7552 23.3341 16.6012 23.1265 16.4902C22.9224 16.3792 22.6574 16.3237 22.3315 16.3237C22.063 16.3237 21.8231 16.3792 21.6118 16.4902C21.4041 16.5977 21.2287 16.757 21.0854 16.9683C20.9422 17.1795 20.833 17.4409 20.7578 17.7524C20.6826 18.064 20.645 18.4256 20.645 18.8374V19.3369C20.645 19.7451 20.6844 20.1068 20.7632 20.4219C20.842 20.7334 20.9583 20.9966 21.1123 21.2114C21.2699 21.4227 21.4632 21.582 21.6924 21.6895C21.9215 21.7969 22.1883 21.8506 22.4927 21.8506C22.7469 21.8506 22.9582 21.8291 23.1265 21.7861C23.2983 21.7432 23.4362 21.6912 23.54 21.6304C23.6475 21.5659 23.7298 21.505 23.7871 21.4478V20.062H22.3154V18.9126H25.3984Z" fill="white"/>
</svg>
