<svg width="30" height="43" viewBox="0 0 30 43" fill="none" xmlns="http://www.w3.org/2000/svg">
<g clip-path="url(#clip0)">
<path d="M16.9173 35.0348V28.7711H12.9241V35.0348H8.51318L14.9962 42.6023L21.479 35.0348H16.9173Z" fill="black"/>
<path d="M27.7127 12.9923V9.62681C27.7127 9.45036 27.6379 9.27118 27.5129 9.14541L19.2232 0.841503C19.1152 0.70797 18.8966 0.638123 18.7307 0.638123H2.87756C2.49518 0.638123 2.18525 0.944677 2.18525 1.32291V12.9923H0.0102539V26.5898H2.18525V32.3493C2.18525 32.7277 2.49518 33.0341 2.87756 33.0341H11.7703V31.6645H3.56987V26.5898H26.3281V31.6645H18.0712V33.0341H27.0204C27.4028 33.0341 27.7127 32.7277 27.7127 32.3493V26.5898H29.8146V12.9923H27.7127ZM19.423 2.98989L25.3626 8.94203H19.423V2.98989ZM26.3281 12.9923H3.56987V2.00769H18.0384V9.62658C18.0384 10.0048 18.3483 10.3114 18.7307 10.3114H26.3281V12.9923Z" fill="black"/>
<path d="M5.83252 21.353V24.1083H4.22119V16.288H7.27197C7.85921 16.288 8.37484 16.3954 8.81885 16.6103C9.26644 16.8251 9.61019 17.1313 9.8501 17.5287C10.09 17.9226 10.21 18.372 10.21 18.8769C10.21 19.6432 9.94678 20.2483 9.42041 20.6923C8.89762 21.1328 8.17253 21.353 7.24512 21.353H5.83252ZM5.83252 20.0478H7.27197C7.69808 20.0478 8.02214 19.9475 8.24414 19.747C8.46973 19.5465 8.58252 19.26 8.58252 18.8876C8.58252 18.5045 8.46973 18.1948 8.24414 17.9584C8.01855 17.7221 7.70703 17.6004 7.30957 17.5932H5.83252V20.0478Z" fill="white"/>
<path d="M17.6812 24.1083H16.0698L12.9331 18.9628V24.1083H11.3218V16.288H12.9331L16.0752 21.4443V16.288H17.6812V24.1083Z" fill="white"/>
<path d="M25.2759 23.1201C24.9858 23.4674 24.5758 23.7377 24.0459 23.9311C23.516 24.1209 22.9287 24.2158 22.2842 24.2158C21.6074 24.2158 21.013 24.0689 20.501 23.7753C19.9925 23.4781 19.5986 23.0484 19.3193 22.4863C19.0436 21.9241 18.9022 21.2634 18.895 20.5043V19.9726C18.895 19.192 19.0257 18.517 19.2871 17.9477C19.5521 17.3748 19.9316 16.9379 20.4258 16.6371C20.9235 16.3328 21.5054 16.1806 22.1714 16.1806C23.0988 16.1806 23.8239 16.4026 24.3467 16.8466C24.8695 17.287 25.1792 17.9298 25.2759 18.7748H23.7075C23.6359 18.3273 23.4766 17.9996 23.2295 17.7919C22.986 17.5842 22.6494 17.4804 22.2197 17.4804C21.6719 17.4804 21.2547 17.6863 20.9683 18.0981C20.6818 18.5099 20.5368 19.1222 20.5332 19.935V20.4345C20.5332 21.2545 20.689 21.874 21.0005 22.2929C21.312 22.7119 21.7686 22.9213 22.3701 22.9213C22.9753 22.9213 23.4067 22.7924 23.6646 22.5346V21.1865H22.1982V19.9995H25.2759V23.1201Z" fill="white"/>
</g>
<defs>
<clipPath id="clip0">
<rect width="30" height="42" fill="white" transform="translate(0 0.626465)"/>
</clipPath>
</defs>
</svg>
