<svg width="29" height="46" viewBox="0 0 29 46" fill="none" xmlns="http://www.w3.org/2000/svg">
<mask id="path-2-inside-1" fill="white">
<path fill-rule="evenodd" clip-rule="evenodd" d="M20.6083 8.87477H25.708L25.4241 40.3253H15.2589H3.07511V2.67276H19.9655V8.23198C19.9655 8.58698 20.2533 8.87477 20.6083 8.87477ZM0.460938 2.67276C0.460938 1.229 1.63134 0.0585938 3.07511 0.0585938H21.1201C21.2253 0.0585938 21.322 0.0973976 21.3947 0.17355C22.1673 0.982931 26.7864 5.82987 27.8358 7.12254C27.97 7.28791 28.0382 7.61187 28.0382 7.82487V43.0091C28.0382 44.4528 26.8678 45.6232 25.4241 45.6232H14.2496H3.07511C1.63134 45.6232 0.460938 44.4528 0.460938 43.0091V2.67276ZM18.6379 41.7637H8.36816V43.4226H18.6379V41.7637Z"/>
</mask>
<path fill-rule="evenodd" clip-rule="evenodd" d="M20.6083 8.87477H25.708L25.4241 40.3253H15.2589H3.07511V2.67276H19.9655V8.23198C19.9655 8.58698 20.2533 8.87477 20.6083 8.87477ZM0.460938 2.67276C0.460938 1.229 1.63134 0.0585938 3.07511 0.0585938H21.1201C21.2253 0.0585938 21.322 0.0973976 21.3947 0.17355C22.1673 0.982931 26.7864 5.82987 27.8358 7.12254C27.97 7.28791 28.0382 7.61187 28.0382 7.82487V43.0091C28.0382 44.4528 26.8678 45.6232 25.4241 45.6232H14.2496H3.07511C1.63134 45.6232 0.460938 44.4528 0.460938 43.0091V2.67276ZM18.6379 41.7637H8.36816V43.4226H18.6379V41.7637Z" fill="#1D94A4"/>
<path d="M25.708 8.87477L28.3221 8.89837L28.3459 6.26061H25.708V8.87477ZM25.4241 40.3253V42.9394H28.0147L28.0381 40.3489L25.4241 40.3253ZM3.07511 40.3253H0.46095V42.9394H3.07511V40.3253ZM3.07511 2.67276V0.0586066H0.46095V2.67276H3.07511ZM19.9655 2.67276H22.5796V0.0586066H19.9655V2.67276ZM21.3947 0.17355L19.5038 1.97861L19.5038 1.97861L21.3947 0.17355ZM27.8358 7.12254L29.8654 5.47491L29.8654 5.47491L27.8358 7.12254ZM8.36816 41.7637V39.1495H5.75401V41.7637H8.36816ZM18.6379 41.7637H21.2521V39.1495H18.6379V41.7637ZM8.36816 43.4226H5.75401V46.0367H8.36816V43.4226ZM18.6379 43.4226V46.0367H21.2521V43.4226H18.6379ZM25.708 6.26061H20.6083V11.4889H25.708V6.26061ZM28.0381 40.3489L28.3221 8.89837L23.094 8.85116L22.81 40.3017L28.0381 40.3489ZM15.2589 42.9394H25.4241V37.7111H15.2589V42.9394ZM3.07511 42.9394H15.2589V37.7111H3.07511V42.9394ZM0.46095 2.67276V40.3253H5.68926V2.67276H0.46095ZM19.9655 0.0586066H3.07511V5.28692H19.9655V0.0586066ZM22.5796 8.23198V2.67276H17.3513V8.23198H22.5796ZM20.6083 6.26061C21.697 6.26061 22.5796 7.14322 22.5796 8.23198H17.3513C17.3513 10.0307 18.8095 11.4889 20.6083 11.4889V6.26061ZM3.07511 -2.55556C0.187583 -2.55556 -2.15322 -0.214762 -2.15322 2.67276H3.07509L3.07511 2.67275V-2.55556ZM21.1201 -2.55556H3.07511V2.67275H21.1201V-2.55556ZM23.2856 -1.6315C22.6895 -2.25601 21.8948 -2.55556 21.1201 -2.55556V2.67275C20.5559 2.67275 19.9545 2.45081 19.5038 1.97861L23.2856 -1.6315ZM29.8654 5.47491C28.7299 4.07628 24.0023 -0.880733 23.2856 -1.63151L19.5038 1.97861C20.3323 2.8466 24.8428 7.58345 25.8062 8.77016L29.8654 5.47491ZM30.6524 7.82487C30.6524 7.47537 30.6015 7.11698 30.5151 6.78932C30.4399 6.50428 30.2694 5.97261 29.8654 5.47491L25.8062 8.77016C25.6542 8.58291 25.5728 8.41858 25.5345 8.33232C25.4929 8.23849 25.471 8.16563 25.4596 8.12237C25.4408 8.05128 25.4241 7.96138 25.4241 7.82487H30.6524ZM30.6524 43.0091V7.82487H25.4241V43.0091H30.6524ZM25.4241 48.2374C28.3116 48.2374 30.6524 45.8966 30.6524 43.0091H25.4241L25.4241 43.0091V48.2374ZM14.2496 48.2374H25.4241V43.0091H14.2496V48.2374ZM3.07511 48.2374H14.2496V43.0091H3.07511V48.2374ZM-2.15322 43.0091C-2.15322 45.8966 0.187574 48.2374 3.07511 48.2374V43.0091L3.07509 43.0091H-2.15322ZM-2.15322 2.67276V43.0091H3.07509V2.67276H-2.15322ZM8.36816 44.3778H18.6379V39.1495H8.36816V44.3778ZM10.9823 43.4226V41.7637H5.75401V43.4226H10.9823ZM18.6379 40.8084H8.36816V46.0367H18.6379V40.8084ZM16.0237 41.7637V43.4226H21.2521V41.7637H16.0237Z" fill="#1D94A4" mask="url(#path-2-inside-1)"/>
<path fill-rule="evenodd" clip-rule="evenodd" d="M7.2578 11.7876C7.52543 11.61 7.85531 11.544 8.17352 11.6044C9.72135 11.8982 11.8835 12.7031 13.0548 13.5201C13.0615 13.5247 13.0681 13.5294 13.0746 13.5342C13.1147 13.5634 13.1571 13.5939 13.2016 13.6259C13.7541 14.0231 14.6258 14.6498 15.3136 15.8253C16.0532 17.0894 16.5252 18.8734 16.476 21.5426L14.0556 21.5007C14.0996 19.1099 13.6714 17.7766 13.2084 16.9852C12.779 16.2513 12.2729 15.8849 11.7358 15.496C11.7016 15.4713 11.6673 15.4464 11.6328 15.4214C11.0534 15.0202 9.98229 14.5541 8.94399 14.2282C8.67098 16.6266 8.86795 19.086 9.61792 20.9751C10.0551 22.0763 10.6565 22.9261 11.4006 23.484C12.1259 24.0277 13.0569 24.3486 14.286 24.2938C15.8623 24.2234 16.9088 23.8855 17.6218 23.4137C18.3194 22.9522 18.8028 22.2933 19.1295 21.3787C19.4643 20.4413 19.6237 19.2621 19.6635 17.823C19.6937 16.731 19.6547 15.5332 19.5886 14.2302C18.5271 14.3999 17.8045 14.6295 17.3421 14.8205C17.0295 14.9496 16.8337 15.062 16.7306 15.1282C16.6795 15.161 16.6506 15.1828 16.6411 15.1903C16.6053 15.222 16.5676 15.2517 16.5281 15.279L16.3109 15.4296L14.9035 13.5182L15.0709 13.4021C15.0862 13.3895 15.103 13.376 15.1215 13.3615C15.1898 13.3081 15.2799 13.2428 15.3945 13.1691C15.6241 13.0217 15.9501 12.8423 16.394 12.6589C17.2821 12.2921 18.6335 11.913 20.6187 11.7379C20.9457 11.7091 21.2707 11.8104 21.5192 12.0186C21.7677 12.2268 21.9185 12.524 21.9368 12.8421C22.0399 14.6321 22.1262 16.341 22.0835 17.8861C22.0409 19.4267 21.8693 20.8812 21.4168 22.1481C20.9562 23.4378 20.1959 24.5539 18.9856 25.3547C17.7908 26.1453 16.2652 26.5571 14.3973 26.6405C12.6288 26.7195 11.126 26.2469 9.92048 25.343C8.73376 24.4532 7.90735 23.2011 7.35891 21.8197C6.27023 19.0774 6.18433 15.6017 6.7498 12.5493C6.80716 12.2396 6.99017 11.9652 7.2578 11.7876Z" fill="#1D94A4"/>
<path d="M3.73617 34.6416C3.73617 33.9092 3.90609 33.3218 4.24594 32.8794C4.58578 32.4341 5.04135 32.2114 5.61264 32.2114C6.11654 32.2114 6.52377 32.3872 6.83432 32.7388V30.3042H7.90219V37.0542H6.93539L6.88266 36.562C6.56332 36.9487 6.13705 37.1421 5.60385 37.1421C5.04721 37.1421 4.59604 36.918 4.25033 36.4697C3.90756 36.0215 3.73617 35.4121 3.73617 34.6416ZM4.80404 34.7339C4.80404 35.2173 4.89633 35.5952 5.0809 35.8677C5.2684 36.1372 5.53354 36.272 5.87631 36.272C6.31283 36.272 6.63217 36.0771 6.83432 35.6875V33.6572C6.63803 33.2764 6.32162 33.0859 5.8851 33.0859C5.53939 33.0859 5.27279 33.2236 5.08529 33.499C4.89779 33.7715 4.80404 34.1831 4.80404 34.7339ZM9.61219 37.0542H8.54432V32.2993H9.61219V37.0542ZM8.4784 31.0645C8.4784 30.9004 8.52967 30.7642 8.63221 30.6558C8.73768 30.5474 8.88709 30.4932 9.08045 30.4932C9.27381 30.4932 9.42322 30.5474 9.52869 30.6558C9.63416 30.7642 9.68689 30.9004 9.68689 31.0645C9.68689 31.2256 9.63416 31.3604 9.52869 31.4688C9.42322 31.5742 9.27381 31.627 9.08045 31.627C8.88709 31.627 8.73768 31.5742 8.63221 31.4688C8.52967 31.3604 8.4784 31.2256 8.4784 31.0645ZM10.0522 34.6416C10.0522 33.9033 10.225 33.3145 10.5707 32.875C10.9194 32.4326 11.3808 32.2114 11.955 32.2114C12.497 32.2114 12.9233 32.4004 13.2338 32.7783L13.2821 32.2993H14.2446V36.9092C14.2446 37.5332 14.0497 38.0254 13.6601 38.3857C13.2734 38.7461 12.7504 38.9263 12.0912 38.9263C11.7426 38.9263 11.4013 38.853 11.0673 38.7065C10.7362 38.563 10.4843 38.374 10.3114 38.1396L10.8168 37.498C11.1449 37.8877 11.5492 38.0825 12.0297 38.0825C12.3842 38.0825 12.664 37.9858 12.8691 37.7925C13.0741 37.6021 13.1767 37.3208 13.1767 36.9487V36.6279C12.8691 36.9707 12.4589 37.1421 11.9462 37.1421C11.3896 37.1421 10.934 36.9209 10.5795 36.4785C10.2279 36.0361 10.0522 35.4238 10.0522 34.6416ZM11.1156 34.7339C11.1156 35.2114 11.2123 35.5879 11.4057 35.8633C11.602 36.1357 11.873 36.272 12.2187 36.272C12.6493 36.272 12.9687 36.0874 13.1767 35.7183V33.6265C12.9745 33.2661 12.6581 33.0859 12.2275 33.0859C11.8759 33.0859 11.602 33.2251 11.4057 33.5034C11.2123 33.7817 11.1156 34.1919 11.1156 34.7339ZM15.9414 37.0542H14.8735V32.2993H15.9414V37.0542ZM14.8076 31.0645C14.8076 30.9004 14.8588 30.7642 14.9614 30.6558C15.0669 30.5474 15.2163 30.4932 15.4096 30.4932C15.603 30.4932 15.7524 30.5474 15.8579 30.6558C15.9633 30.7642 16.0161 30.9004 16.0161 31.0645C16.0161 31.2256 15.9633 31.3604 15.8579 31.4688C15.7524 31.5742 15.603 31.627 15.4096 31.627C15.2163 31.627 15.0669 31.5742 14.9614 31.4688C14.8588 31.3604 14.8076 31.2256 14.8076 31.0645ZM17.9062 31.1436V32.2993H18.7456V33.0903H17.9062V35.7446C17.9062 35.9263 17.9414 36.0581 18.0117 36.1401C18.085 36.2192 18.2139 36.2588 18.3984 36.2588C18.5215 36.2588 18.646 36.2441 18.772 36.2148V37.041C18.5288 37.1084 18.2944 37.1421 18.0688 37.1421C17.2485 37.1421 16.8384 36.6895 16.8384 35.7842V33.0903H16.0562V32.2993H16.8384V31.1436H17.9062ZM21.8662 37.0542C21.8194 36.9634 21.7784 36.8154 21.7432 36.6104C21.4034 36.9648 20.9873 37.1421 20.4952 37.1421C20.0176 37.1421 19.628 37.0059 19.3262 36.7334C19.0245 36.4609 18.8736 36.124 18.8736 35.7227C18.8736 35.2158 19.0611 34.8276 19.4361 34.5581C19.814 34.2856 20.3531 34.1494 21.0533 34.1494H21.708V33.8374C21.708 33.5913 21.6392 33.395 21.5015 33.2485C21.3638 33.0991 21.1543 33.0244 20.8731 33.0244C20.6299 33.0244 20.4307 33.0859 20.2754 33.209C20.1202 33.3291 20.0425 33.4829 20.0425 33.6704H18.9746C18.9746 33.4097 19.0611 33.1665 19.2339 32.9409C19.4068 32.7124 19.6412 32.5337 19.937 32.4048C20.2359 32.2759 20.5684 32.2114 20.9346 32.2114C21.4912 32.2114 21.9351 32.3521 22.2662 32.6333C22.5972 32.9116 22.7671 33.3042 22.7759 33.811V35.9556C22.7759 36.3833 22.836 36.7246 22.9561 36.9795V37.0542H21.8662ZM20.6929 36.2852C20.9038 36.2852 21.1016 36.2339 21.2862 36.1313C21.4737 36.0288 21.6143 35.8911 21.708 35.7183V34.8218H21.1324C20.7369 34.8218 20.4395 34.8906 20.2403 35.0283C20.0411 35.166 19.9414 35.3608 19.9414 35.6128C19.9414 35.8179 20.0088 35.9819 20.1436 36.105C20.2813 36.2251 20.4644 36.2852 20.6929 36.2852ZM24.4903 37.0542H23.4224V30.3042H24.4903V37.0542Z" fill="#1D94A4"/>
</svg>
