<svg width="101" height="101" viewBox="0 0 101 101" fill="none" xmlns="http://www.w3.org/2000/svg">
<path d="M98.9109 11.7037H92.9386V5.25598C92.9386 2.40564 90.6083 0.0869141 87.7439 0.0869141C84.8789 0.0869141 82.5486 2.40564 82.5486 5.25598V11.7037H76.5763C75.886 11.7037 75.3263 12.2634 75.3263 12.9537V21.1166C75.3263 21.8069 75.886 22.3666 76.5763 22.3666H77.6652V24.2617H22.6566V22.3666H23.7455C24.4358 22.3666 24.9955 21.8069 24.9955 21.1166V12.9537C24.9955 12.2634 24.4358 11.7037 23.7455 11.7037H17.7732V5.25598C17.7732 2.40564 15.4429 0.0869141 12.5779 0.0869141C9.7135 0.0869141 7.38318 2.40564 7.38318 5.25598V11.7037H1.41089C0.720581 11.7037 0.160889 12.2634 0.160889 12.9537V21.1166C0.160889 21.8069 0.720581 22.3666 1.41089 22.3666H2.49976V77.9574H1.41089C0.720581 77.9574 0.160889 78.5171 0.160889 79.2074V87.3702C0.160889 88.0605 0.720581 88.6202 1.41089 88.6202H7.38318V95.0454C7.38318 97.8951 9.7135 100.214 12.5779 100.214C15.4429 100.214 17.7732 97.8951 17.7732 95.0454V88.6202H23.7455C24.4358 88.6202 24.9955 88.0605 24.9955 87.3702V79.2074C24.9955 78.5171 24.4358 77.9574 23.7455 77.9574H22.6566V75.9487H77.6652V77.9574H76.5763C75.886 77.9574 75.3263 78.5171 75.3263 79.2074V87.3702C75.3263 88.0605 75.886 88.6202 76.5763 88.6202H82.5486V95.0454C82.5486 97.8951 84.8789 100.214 87.7439 100.214C90.6083 100.214 92.9386 97.8951 92.9386 95.0454V88.6202H98.9109C99.6012 88.6202 100.161 88.0605 100.161 87.3702V79.2074C100.161 78.5171 99.6012 77.9574 98.9109 77.9574H97.822V22.3666H98.9109C99.6012 22.3666 100.161 21.8069 100.161 21.1166V12.9537C100.161 12.2634 99.6012 11.7037 98.9109 11.7037ZM85.0486 5.25598C85.0486 3.78442 86.2577 2.58691 87.7439 2.58691C89.2295 2.58691 90.4386 3.78442 90.4386 5.25598V11.7037H85.0486V5.25598ZM77.8263 14.2037H97.6609V19.8666H77.8263V14.2037ZM9.88318 5.25598C9.88318 3.78442 11.0923 2.58691 12.5779 2.58691C14.0641 2.58691 15.2732 3.78442 15.2732 5.25598V11.7037H9.88318V5.25598ZM2.66089 14.2037H22.4955V19.8666H2.66089V14.2037ZM15.2732 95.0454C15.2732 96.517 14.0641 97.7139 12.5779 97.7139C11.0923 97.7139 9.88318 96.517 9.88318 95.0454V88.6202H15.2732V95.0454ZM22.4955 86.1202H2.66089V80.4574H22.4955V86.1202ZM4.99976 77.9574V22.3666H20.1566V77.9574H4.99976ZM22.6566 73.4487V26.7617H77.6652V73.4487H22.6566ZM90.4386 95.0454C90.4386 96.517 89.2295 97.7139 87.7439 97.7139C86.2577 97.7139 85.0486 96.517 85.0486 95.0454V88.6202H90.4386V95.0454V95.0454ZM97.6609 86.1202H77.8263V80.4574H97.6609V86.1202ZM95.322 77.9574H80.1652V22.3666H95.322V77.9574V77.9574Z" fill="#1D94A4"/>
</svg>
