<svg width="63" height="47" viewBox="0 0 63 47" fill="none" xmlns="http://www.w3.org/2000/svg">
<path d="M40.4883 19.5656L39.9378 18.628C39.6053 18.8232 39.401 19.18 39.401 19.5656H40.4883ZM40.4883 35.4637H39.401C39.401 35.5452 39.4102 35.6265 39.4283 35.7059L40.4883 35.4637ZM46.8119 45.2293L46.0043 45.9573C46.2104 46.186 46.5039 46.3166 46.8119 46.3166V45.2293ZM61.2705 45.2293V46.3166C61.871 46.3166 62.3577 45.8298 62.3577 45.2293H61.2705ZM55.0424 7.44581L55.3051 6.39073C54.9822 6.31037 54.6404 6.38223 54.3772 6.58578C54.114 6.78933 53.9586 7.10215 53.9552 7.43483L55.0424 7.44581ZM54.8015 31.2985L53.7142 31.2875V31.2985H54.8015ZM47.445 31.9566H46.3577C46.3577 32.5016 46.9048 32.7098 47.445 32.7819V31.9566ZM39.401 19.5656V35.4637H41.5756V19.5656H39.401ZM39.4283 35.7059C39.6751 36.7861 40.2397 37.9687 40.8914 39.0903C41.5516 40.2266 42.3417 41.3682 43.0939 42.3778C43.8476 43.3896 44.573 44.2818 45.1095 44.9208C45.3781 45.2406 45.6002 45.498 45.7558 45.6761C45.8336 45.7652 45.8949 45.8346 45.9371 45.8821C45.9583 45.9059 45.9746 45.9242 45.9859 45.9368C45.9915 45.9431 45.9959 45.948 45.999 45.9514C46.0005 45.9532 46.0026 45.9555 46.0026 45.9555L46.0043 45.9573C46.0043 45.9573 46.0043 45.9573 46.8119 45.2293C47.6194 44.5013 47.6195 44.5014 47.6195 44.5014L47.6168 44.4983C47.6146 44.4959 47.6111 44.492 47.6063 44.4867C47.5968 44.476 47.5823 44.4598 47.563 44.4381C47.5245 44.3948 47.4672 44.3299 47.3935 44.2455C47.2461 44.0767 47.0333 43.8302 46.7748 43.5224C46.2573 42.906 45.5596 42.0477 44.8377 41.0787C44.1142 40.1075 43.376 39.038 42.7716 37.9978C42.1587 36.943 41.7224 35.9837 41.5482 35.2215L39.4283 35.7059ZM46.8119 46.3166H61.2705V44.142H46.8119V46.3166ZM62.3577 45.2293V16.1287H60.1832V45.2293H62.3577ZM53.9552 7.43483L53.7142 31.2875L55.8887 31.3095L56.1296 7.45679L53.9552 7.43483ZM44.8449 19.1342C43.5398 18.2981 42.3587 18.1224 41.4603 18.1962C41.0197 18.2325 40.6618 18.3274 40.4044 18.4188C40.2756 18.4645 40.1712 18.5097 40.0931 18.5469C40.054 18.5655 40.0214 18.5821 39.9955 18.5959C39.9825 18.6028 39.9712 18.609 39.9616 18.6144C39.9568 18.6171 39.9524 18.6196 39.9484 18.6218C39.9465 18.623 39.9446 18.6241 39.9428 18.6251L39.9402 18.6266L39.939 18.6273C39.939 18.6273 39.9378 18.628 40.4883 19.5656C41.0387 20.5033 41.0376 20.5039 41.0376 20.5039L41.0365 20.5046L41.0343 20.5058L41.0304 20.5081C41.028 20.5095 41.0259 20.5107 41.0241 20.5117C41.0206 20.5137 41.0175 20.5153 41.0175 20.5153C41.0157 20.5163 41.019 20.5145 41.0272 20.5106C41.0437 20.5027 41.0794 20.4867 41.1323 20.4679C41.2386 20.4302 41.4113 20.3822 41.6385 20.3635C42.0759 20.3275 42.7799 20.3938 43.672 20.9652L44.8449 19.1342ZM48.5323 31.9566C48.5323 30.9185 48.5926 29.8825 48.6215 28.7266C48.6496 27.6066 48.6448 26.4337 48.4966 25.2908C48.1961 22.9724 47.2899 20.7004 44.8449 19.1342L43.672 20.9652C45.4047 22.0752 46.0918 23.6551 46.3401 25.5704C46.4664 26.5444 46.4749 27.5837 46.4476 28.6721C46.4213 29.7246 46.3577 30.8932 46.3577 31.9566H48.5323ZM62.3577 16.1287C62.3577 14.0334 62.0559 11.9422 60.9785 10.1831C59.8768 8.38442 58.0532 7.07483 55.3051 6.39073L54.7798 8.50089C57.0846 9.07463 58.375 10.0959 59.1241 11.3189C59.8975 12.5814 60.1832 14.2027 60.1832 16.1287H62.3577ZM53.7142 31.2985C53.7142 30.9608 53.8834 30.7417 53.97 30.6539C54.0514 30.5715 54.1148 30.5446 54.0981 30.5528C54.0688 30.5673 53.9587 30.6096 53.731 30.6612C53.2939 30.7604 52.6474 30.8455 51.8916 30.9039C50.3756 31.021 48.62 31.0164 47.5886 30.8789L47.445 32.7819C48.6858 32.9473 50.2974 32.905 51.8916 32.7819C52.6909 32.7201 53.625 32.9151 54.2122 32.7819C54.4966 32.7174 54.8015 32.6304 55.0591 32.5035C55.1859 32.441 55.3608 32.3405 55.5177 32.1814C55.6799 32.0171 55.8888 31.7185 55.8888 31.2985H53.7142Z" fill="white"/>
<path d="M8.34204 12.8311V6.78809H10.4588C11.192 6.78809 11.7481 6.9292 12.1272 7.21143C12.5063 7.49089 12.6958 7.90177 12.6958 8.44409C12.6958 8.74015 12.6197 9.00164 12.4675 9.22853C12.3154 9.45265 12.1037 9.61727 11.8325 9.72241C12.1424 9.79989 12.3859 9.95622 12.563 10.1914C12.7429 10.4266 12.8328 10.7144 12.8328 11.0547C12.8328 11.6357 12.6474 12.0757 12.2766 12.3745C11.9059 12.6733 11.3774 12.8255 10.6912 12.8311H8.34204ZM9.58716 10.1997V11.8308H10.6538C10.9471 11.8308 11.1754 11.7616 11.3386 11.6233C11.5047 11.4822 11.5877 11.2885 11.5877 11.0422C11.5877 10.4889 11.3013 10.208 10.7285 10.1997H9.58716ZM9.58716 9.31983H10.5086C11.1367 9.30877 11.4507 9.05835 11.4507 8.5686C11.4507 8.29468 11.3705 8.09823 11.21 7.97925C11.0523 7.8575 10.8019 7.79663 10.4588 7.79663H9.58716V9.31983ZM14.9578 12.8311H13.7542V6.45605H14.9578V12.8311ZM15.763 10.5442C15.763 10.0987 15.8487 9.70166 16.0203 9.35303C16.1918 9.00439 16.4381 8.73462 16.759 8.5437C17.0828 8.35278 17.4577 8.25733 17.8838 8.25733C18.4898 8.25733 18.9837 8.44272 19.3655 8.81349C19.7501 9.18425 19.9645 9.68783 20.0088 10.3242L20.0171 10.6313C20.0171 11.3203 19.8248 11.8737 19.4402 12.2915C19.0556 12.7065 18.5396 12.9141 17.8921 12.9141C17.2446 12.9141 16.7272 12.7065 16.3399 12.2915C15.9553 11.8765 15.763 11.312 15.763 10.5981V10.5442ZM16.9624 10.6313C16.9624 11.0575 17.0427 11.384 17.2031 11.6108C17.3636 11.835 17.5933 11.947 17.8921 11.947C18.1826 11.947 18.4095 11.8363 18.5728 11.615C18.736 11.3909 18.8176 11.0339 18.8176 10.5442C18.8176 10.1264 18.736 9.80265 18.5728 9.573C18.4095 9.34334 18.1799 9.22853 17.8838 9.22853C17.5905 9.22853 17.3636 9.34334 17.2031 9.573C17.0427 9.79989 16.9624 10.1527 16.9624 10.6313ZM20.5691 10.5442C20.5691 10.0987 20.6549 9.70166 20.8264 9.35303C20.998 9.00439 21.2442 8.73462 21.5652 8.5437C21.8889 8.35278 22.2638 8.25733 22.69 8.25733C23.2959 8.25733 23.7898 8.44272 24.1716 8.81349C24.5562 9.18425 24.7707 9.68783 24.815 10.3242L24.8233 10.6313C24.8233 11.3203 24.631 11.8737 24.2464 12.2915C23.8617 12.7065 23.3457 12.9141 22.6983 12.9141C22.0508 12.9141 21.5334 12.7065 21.146 12.2915C20.7614 11.8765 20.5691 11.312 20.5691 10.5981V10.5442ZM21.7686 10.6313C21.7686 11.0575 21.8488 11.384 22.0093 11.6108C22.1698 11.835 22.3994 11.947 22.6983 11.947C22.9888 11.947 23.2157 11.8363 23.3789 11.615C23.5422 11.3909 23.6238 11.0339 23.6238 10.5442C23.6238 10.1264 23.5422 9.80265 23.3789 9.573C23.2157 9.34334 22.986 9.22853 22.69 9.22853C22.3967 9.22853 22.1698 9.34334 22.0093 9.573C21.8488 9.79989 21.7686 10.1527 21.7686 10.6313ZM26.6868 8.34033L26.7241 8.84254C27.0423 8.4524 27.4726 8.25733 28.0149 8.25733C28.5932 8.25733 28.9902 8.4856 29.2061 8.94214C29.5215 8.4856 29.9711 8.25733 30.5549 8.25733C31.0419 8.25733 31.4044 8.39982 31.6423 8.68481C31.8803 8.96704 31.9993 9.39315 31.9993 9.96313V12.8311H30.7957V9.96729C30.7957 9.71273 30.7459 9.52734 30.6463 9.41113C30.5466 9.29215 30.3709 9.23267 30.1192 9.23267C29.7595 9.23267 29.5104 9.40422 29.3721 9.74731L29.3762 12.8311H28.1768V9.97145C28.1768 9.71135 28.1256 9.52319 28.0232 9.40698C27.9208 9.29077 27.7465 9.23267 27.5003 9.23267C27.1599 9.23267 26.9137 9.37378 26.7615 9.65601V12.8311H25.562V8.34033H26.6868ZM34.2488 10.7019V12.8311H33.0037V6.78809H35.3611C35.8149 6.78809 36.2133 6.87109 36.5564 7.03711C36.9023 7.20312 37.1679 7.4397 37.3533 7.74683C37.5387 8.05119 37.6314 8.39845 37.6314 8.78858C37.6314 9.38071 37.428 9.84831 37.0213 10.1914C36.6173 10.5317 36.057 10.7019 35.3403 10.7019H34.2488ZM34.2488 9.69337H35.3611C35.6904 9.69337 35.9408 9.6159 36.1123 9.46095C36.2866 9.306 36.3738 9.08464 36.3738 8.79688C36.3738 8.50081 36.2866 8.26148 36.1123 8.07887C35.938 7.89625 35.6973 7.80216 35.3902 7.79663H34.2488V9.69337ZM43.0642 6.78809V10.7683C43.0642 11.4296 42.8567 11.9526 42.4417 12.3372C42.0294 12.7218 41.4649 12.9141 40.7483 12.9141C40.0427 12.9141 39.4824 12.7273 39.0674 12.3538C38.6524 11.9802 38.4407 11.467 38.4324 10.814V6.78809H39.6775V10.7766C39.6775 11.1723 39.7716 11.4614 39.9597 11.644C40.1506 11.8239 40.4135 11.9138 40.7483 11.9138C41.4483 11.9138 41.8039 11.5458 41.815 10.8098V6.78809H43.0642ZM44.0852 12.8311V6.78809H46.2019C46.9352 6.78809 47.4913 6.9292 47.8704 7.21143C48.2494 7.49089 48.439 7.90177 48.439 8.44409C48.439 8.74015 48.3629 9.00164 48.2107 9.22853C48.0585 9.45265 47.8469 9.61727 47.5757 9.72241C47.8856 9.79989 48.1291 9.95622 48.3062 10.1914C48.486 10.4266 48.5759 10.7144 48.5759 11.0547C48.5759 11.6357 48.3906 12.0757 48.0198 12.3745C47.649 12.6733 47.1205 12.8255 46.4343 12.8311H44.0852ZM45.3303 10.1997V11.8308H46.397C46.6903 11.8308 46.9186 11.7616 47.0818 11.6233C47.2478 11.4822 47.3308 11.2885 47.3308 11.0422C47.3308 10.4889 47.0444 10.208 46.4717 10.1997H45.3303ZM45.3303 9.31983H46.2517C46.8798 9.30877 47.1939 9.05835 47.1939 8.5686C47.1939 8.29468 47.1136 8.09823 46.9531 7.97925C46.7954 7.8575 46.545 7.79663 46.2019 7.79663H45.3303V9.31983Z" fill="white"/>
<path fill-rule="evenodd" clip-rule="evenodd" d="M22.6816 16.6709C22.898 16.5273 23.1647 16.474 23.422 16.5228C24.6734 16.7604 26.4214 17.4111 27.3684 18.0716C27.3738 18.0754 27.3791 18.0792 27.3844 18.083C27.4168 18.1066 27.4511 18.1313 27.4871 18.1571C27.9338 18.4783 28.6386 18.985 29.1946 19.9353C29.7926 20.9573 30.1741 22.3997 30.1344 24.5577L28.1775 24.5238C28.2131 22.5909 27.867 21.513 27.4926 20.8731C27.1454 20.2797 26.7363 19.9835 26.302 19.6691C26.2743 19.6491 26.2466 19.629 26.2188 19.6088C25.7503 19.2844 24.8843 18.9076 24.0449 18.6441C23.8242 20.5831 23.9834 22.5716 24.5897 24.0989C24.9432 24.9892 25.4294 25.6762 26.031 26.1272C26.6174 26.5669 27.3701 26.8263 28.3638 26.7819C29.6382 26.7251 30.4843 26.4519 31.0608 26.0705C31.6247 25.6973 32.0156 25.1646 32.2797 24.4252C32.5504 23.6673 32.6792 22.7139 32.7114 21.5505C32.7358 20.6676 32.7043 19.6992 32.6508 18.6457C31.7926 18.783 31.2084 18.9686 30.8346 19.123C30.5819 19.2274 30.4236 19.3182 30.3402 19.3717C30.2989 19.3983 30.2756 19.4159 30.2678 19.422C30.2389 19.4476 30.2084 19.4716 30.1765 19.4937L30.0009 19.6155L28.8631 18.0701L28.9984 17.9763C29.0107 17.9661 29.0244 17.9551 29.0393 17.9434C29.0945 17.9002 29.1673 17.8474 29.26 17.7879C29.4456 17.6687 29.7092 17.5236 30.0681 17.3754C30.7861 17.0788 31.8787 16.7723 33.4837 16.6308C33.748 16.6074 34.0108 16.6893 34.2117 16.8577C34.4127 17.026 34.5345 17.2663 34.5493 17.5235C34.6327 18.9707 34.7025 20.3522 34.6679 21.6015C34.6335 22.847 34.4948 24.0229 34.129 25.0472C33.7565 26.0899 33.1419 26.9923 32.1634 27.6397C31.1974 28.2789 29.9639 28.6118 28.4538 28.6793C27.024 28.7431 25.809 28.361 24.8344 27.6302C23.8749 26.9108 23.2068 25.8985 22.7634 24.7817C21.8832 22.5646 21.8137 19.7546 22.2709 17.2868C22.3173 17.0364 22.4653 16.8145 22.6816 16.6709Z" fill="white"/>
<path d="M5.39917 1.95886H1.67578V31.0514H5.39917V1.95886Z" fill="white"/>
<path d="M55.1013 1.95886H51.3779V31.0514H55.1013V1.95886Z" fill="white"/>
<path fill-rule="evenodd" clip-rule="evenodd" d="M0 2.8994C0 1.29811 1.29811 0 2.8994 0H53.8785C55.4798 0 56.7779 1.29811 56.7779 2.8994V30.1109C56.7779 31.7122 55.4798 33.0103 53.8785 33.0103H49V33C48.5155 33 47.7822 32.9563 47.1868 32.7526C46.8082 32.6231 46.5557 32.4587 46.4199 32.2494V30.1109H53.8785V2.8994H2.8994V30.1109H41.5699V33.0103H2.8994C1.29811 33.0103 0 31.7122 0 30.1109V2.8994Z" fill="white"/>
</svg>
