<svg width="281" height="38" viewBox="0 0 281 38" fill="none" xmlns="http://www.w3.org/2000/svg">
<path fill-rule="evenodd" clip-rule="evenodd" d="M1.56516 0.868171C2.05707 0.533114 2.6634 0.40861 3.24827 0.522557C6.09321 1.07682 10.0672 2.59509 12.2202 4.13609C12.2324 4.14485 12.2445 4.15373 12.2566 4.16273C12.3303 4.21776 12.4082 4.27528 12.49 4.33562C13.5056 5.0849 15.1078 6.26703 16.3718 8.48429C17.7313 10.8688 18.5987 14.234 18.5085 19.2687L14.0596 19.1896C14.1404 14.6799 13.3536 12.1651 12.5024 10.6722C11.7132 9.28786 10.7831 8.5968 9.79571 7.86325C9.73288 7.81657 9.66981 7.76971 9.60654 7.7225C8.54143 6.96564 6.57281 6.08657 4.66441 5.47171C4.16261 9.99574 4.52466 14.635 5.90311 18.1983C6.7067 20.2755 7.81206 21.8783 9.1797 22.9307C10.5127 23.9564 12.224 24.5617 14.4832 24.4582C17.3804 24.3254 19.3038 23.6881 20.6144 22.7982C21.8965 21.9276 22.7851 20.6848 23.3855 18.9596C24.0009 17.1913 24.2939 14.967 24.3671 12.2527C24.4226 10.1927 24.3508 7.93343 24.2293 5.4755C22.2783 5.79573 20.9501 6.2288 20.1003 6.58903C19.5257 6.8326 19.1659 7.04449 18.9763 7.16944C18.8825 7.23131 18.8294 7.27251 18.8118 7.28662C18.746 7.34646 18.6767 7.40233 18.6042 7.45392L18.2049 7.73805L15.6181 4.13247L15.9257 3.91363C15.9538 3.88984 15.9849 3.86423 16.0189 3.83694C16.1443 3.73624 16.3099 3.61302 16.5206 3.47414C16.9425 3.19607 17.5418 2.85756 18.3577 2.51171C19.99 1.81976 22.4739 1.10472 26.1227 0.774441C26.7237 0.720041 27.3211 0.911111 27.7779 1.30383C28.2347 1.69655 28.5117 2.25723 28.5454 2.85728C28.735 6.23367 28.8936 9.45702 28.815 12.3716C28.7367 15.2776 28.4214 18.0211 27.5897 20.4108C26.743 22.8435 25.3457 24.9489 23.1211 26.4594C20.9249 27.9507 18.1208 28.7275 14.6877 28.8848C14.6877 28.8848 14.6877 28.8848 14.6877 28.8848C11.4372 29.0337 8.67503 28.1422 6.45923 26.4372C4.27801 24.7589 2.75905 22.3971 1.75101 19.7914C-0.250013 14.6188 -0.407888 8.06265 0.631442 2.30497C0.736888 1.72082 1.07325 1.20323 1.56516 0.868171Z" fill="#D65649"/>
<path d="M36.8428 1.60629C37.7068 1.49152 38.859 1.43425 40.1263 1.31953C41.4512 1.26214 42.949 1.20475 44.6772 1.20475C47.9607 1.20475 50.4953 1.83582 52.2235 3.0406C53.9517 4.24533 54.8158 5.90907 54.8158 8.0317C54.8158 9.46593 54.4702 10.6132 53.7213 11.5885C52.9724 12.5638 51.8779 13.3671 50.4378 13.9981C52.166 14.6292 53.4908 15.4323 54.355 16.5223C55.2191 17.6123 55.6799 18.9318 55.6799 20.5382C55.6799 22.9477 54.7582 24.8983 52.8572 26.3325C50.9562 27.7667 48.1911 28.4552 44.5043 28.4552C42.949 28.4552 41.5089 28.3978 40.0687 28.3405C38.6861 28.2831 37.5916 28.1684 36.7851 28.0536L36.8428 1.60629ZM44.7924 25.4146C47.0966 25.4146 48.8824 25.0129 50.0921 24.2098C51.3594 23.4066 51.9931 22.2018 51.9931 20.6528C51.9931 19.1039 51.3594 17.9566 50.1497 17.096C48.8824 16.2355 47.0966 15.7765 44.7924 15.7765H40.4143V25.1851C41.7969 25.3572 43.237 25.4146 44.7924 25.4146ZM44.6772 13.0228C46.6934 13.0228 48.3063 12.6213 49.4584 11.7607C50.6682 10.9575 51.2442 9.86754 51.2442 8.49069C51.2442 7.05646 50.6682 5.96638 49.5161 5.22054C48.3639 4.4748 46.751 4.13057 44.7348 4.13057C43.8707 4.13057 43.1218 4.13051 42.4305 4.1879C41.7393 4.24524 41.1056 4.24529 40.5295 4.30268V12.9654L44.6772 13.0228ZM62.4198 21.6282C62.4198 23.0051 62.6502 24.0377 63.2263 24.6688C63.8023 25.2999 64.6088 25.6441 65.5881 25.6441C66.0489 25.6441 66.5674 25.5867 67.0283 25.472C67.4891 25.3572 67.8924 25.2424 68.238 25.0703L69.1021 27.824C68.6412 28.0535 68.0651 28.2257 67.4315 28.3405C66.7402 28.5126 65.9914 28.5699 65.1849 28.5699C64.3208 28.5699 63.4567 28.4552 62.7078 28.1683C61.9589 27.9388 61.3253 27.5373 60.7492 26.9636C60.1731 26.4473 59.7699 25.7588 59.4243 24.8982C59.0786 24.0377 58.9635 23.0625 58.9635 21.8577V0H62.4198V21.6282ZM85.6926 18.2435C85.6926 17.2682 85.5197 16.2928 85.2317 15.4323C84.8861 14.5717 84.4829 13.7685 83.9068 13.1375C83.3308 12.5065 82.6395 11.9328 81.8906 11.5312C81.1417 11.1296 80.2776 10.9574 79.3559 10.9574C77.3397 10.9574 75.7844 11.5885 74.6899 12.908C73.5953 14.2275 73.0193 15.9486 73.0193 18.1287C73.0193 19.1039 73.1921 20.0792 73.4801 20.9397C73.8258 21.8577 74.229 22.6035 74.8051 23.2919C75.3811 23.9803 76.0724 24.4966 76.8213 24.8982C77.5702 25.2999 78.4343 25.472 79.3559 25.472C80.3352 25.472 81.2569 25.2999 82.0058 24.9556C82.8123 24.6114 83.446 24.0951 84.022 23.464C84.5405 22.833 85.0013 22.0298 85.2893 21.1693C85.5197 20.3087 85.6926 19.3334 85.6926 18.2435ZM69.4477 18.2435C69.4477 16.6371 69.6781 15.2029 70.1966 13.9408C70.715 12.6786 71.4063 11.5886 72.2704 10.6706C73.1345 9.81013 74.1714 9.12164 75.3811 8.60535C76.5908 8.14641 77.9158 7.85948 79.2983 7.85948C80.6809 7.85948 81.9482 8.08897 83.1579 8.60535C84.3676 9.0643 85.4045 9.75279 86.3263 10.6706C87.1903 11.5312 87.9392 12.6212 88.4 13.8833C88.9185 15.1454 89.1489 16.5796 89.1489 18.1287C89.1489 19.6776 88.9185 21.1119 88.4 22.4314C87.8816 23.6934 87.1903 24.7835 86.3263 25.7014C85.4622 26.6192 84.3676 27.3077 83.1579 27.824C81.9482 28.3404 80.6232 28.5699 79.2407 28.5699C77.8006 28.5699 76.4756 28.3404 75.2659 27.824C74.0562 27.3077 73.0193 26.6192 72.1552 25.7014C71.2911 24.7835 70.5998 23.6934 70.0814 22.4314C69.6781 21.1692 69.4477 19.7924 69.4477 18.2435ZM107.928 18.2435C107.928 17.2682 107.756 16.2928 107.468 15.4323C107.122 14.5717 106.719 13.7685 106.143 13.1375C105.567 12.5065 104.875 11.9328 104.126 11.5312C103.378 11.1296 102.514 10.9574 101.592 10.9574C99.5756 10.9574 98.0203 11.5885 96.9257 12.908C95.8312 14.2275 95.2552 15.9486 95.2552 18.1287C95.2552 19.1039 95.428 20.0792 95.716 20.9397C96.0616 21.8577 96.4649 22.6035 97.041 23.2919C97.617 23.9803 98.3083 24.4966 99.0572 24.8982C99.806 25.2999 100.67 25.472 101.592 25.472C102.571 25.472 103.493 25.2999 104.242 24.9556C105.048 24.6114 105.682 24.0951 106.258 23.464C106.776 22.833 107.237 22.0298 107.525 21.1693C107.813 20.3087 107.928 19.3334 107.928 18.2435ZM91.6836 18.2435C91.6836 16.6371 91.914 15.2029 92.4325 13.9408C92.9509 12.6786 93.6422 11.5886 94.5063 10.6706C95.3704 9.81013 96.4073 9.12164 97.617 8.60535C98.8267 8.14641 100.152 7.85948 101.534 7.85948C102.917 7.85948 104.184 8.08897 105.394 8.60535C106.604 9.0643 107.64 9.75279 108.562 10.6706C109.426 11.5312 110.175 12.6212 110.636 13.8833C111.154 15.1454 111.385 16.5796 111.385 18.1287C111.385 19.6776 111.154 21.1119 110.636 22.4314C110.118 23.6934 109.426 24.7835 108.562 25.7014C107.698 26.6192 106.604 27.3077 105.394 27.824C104.184 28.3404 102.859 28.5699 101.477 28.5699C100.036 28.5699 98.7115 28.3404 97.5018 27.824C96.2921 27.3077 95.2552 26.6192 94.3911 25.7014C93.527 24.7835 92.8357 23.6934 92.3173 22.4314C91.914 21.1692 91.6836 19.7924 91.6836 18.2435ZM117.721 11.7033C118.413 10.6133 119.334 9.75273 120.429 9.0069C121.523 8.26111 122.791 7.91693 124.173 7.91693C125.729 7.91693 127.054 8.31856 128.033 9.06434C129.012 9.81013 129.761 10.8427 130.164 12.1048C130.971 10.9574 131.893 9.92489 132.987 9.12168C134.082 8.31855 135.407 7.91693 137.019 7.91693C138.114 7.91693 139.036 8.08898 139.842 8.43325C140.649 8.77747 141.34 9.29377 141.858 9.92488C142.377 10.5559 142.78 11.3591 143.068 12.2196C143.356 13.1375 143.471 14.1127 143.471 15.2028V28.1109H140.015V15.4898C140.015 14.1129 139.669 13.0228 139.036 12.1623C138.402 11.3018 137.538 10.9001 136.386 10.9001C135.81 10.9001 135.234 11.0148 134.715 11.2443C134.197 11.4738 133.678 11.7607 133.16 12.1623C132.699 12.5639 132.238 13.0228 131.777 13.5391C131.316 14.0555 130.971 14.5717 130.568 15.1454V28.1109H127.111V15.4898C127.111 14.1129 126.766 13.0228 126.132 12.1623C125.498 11.3018 124.634 10.9001 123.482 10.9001C122.906 10.9001 122.388 11.0148 121.812 11.2443C121.293 11.4738 120.775 11.7607 120.256 12.1623C119.738 12.5639 119.277 12.9655 118.874 13.4818C118.413 13.9981 118.067 14.5144 117.664 15.0881V28.1109H114.208V8.37592H117.549L117.721 11.7033Z" fill="#D65649"/>
<path d="M146.849 23.8038C145.663 23.8038 144.697 24.7656 144.697 25.9464C144.697 27.1271 145.663 28.089 146.849 28.089C148.034 28.089 149 27.1271 149 25.9464C149 24.7656 148.034 23.8038 146.849 23.8038ZM146.849 24.2323C147.802 24.2323 148.57 24.9972 148.57 25.9464C148.57 26.8955 147.802 27.6604 146.849 27.6604C145.895 27.6604 145.127 26.8955 145.127 25.9464C145.127 24.9972 145.895 24.2323 146.849 24.2323ZM146.096 24.8751V27.0177H146.546V26.2477H146.889L147.299 27.0177H147.776V26.9977L147.299 26.1206C147.342 26.099 147.411 26.0765 147.454 26.0335C147.518 25.9902 147.538 25.9491 147.581 25.9062C147.624 25.8422 147.647 25.7965 147.669 25.7323C147.69 25.6682 147.689 25.6036 147.689 25.5179C147.689 25.4108 147.665 25.3224 147.622 25.2367C147.6 25.1726 147.538 25.1136 147.474 25.0493C147.388 24.9853 147.319 24.9368 147.212 24.9154C147.125 24.8937 147.018 24.8755 146.889 24.8755L146.096 24.8751ZM146.566 25.2634H146.916C147.023 25.2634 147.107 25.2792 147.171 25.3441C147.236 25.4082 147.259 25.478 147.259 25.5851C147.259 25.6284 147.26 25.6695 147.239 25.7124C147.217 25.7556 147.193 25.7981 147.171 25.8195C147.15 25.8412 147.107 25.8586 147.064 25.8794C147.021 25.9011 146.98 25.906 146.916 25.906H146.566V25.2634Z" fill="#D65649"/>
<path d="M28.7624 23.8038C27.5768 23.8038 26.611 24.7656 26.611 25.9464C26.611 27.1271 27.5768 28.089 28.7624 28.089C29.948 28.089 30.9138 27.1271 30.9138 25.9464C30.9138 24.7656 29.948 23.8038 28.7624 23.8038ZM28.7624 24.2323C29.7155 24.2323 30.4835 24.9972 30.4835 25.9464C30.4835 26.8955 29.7155 27.6604 28.7624 27.6604C27.8093 27.6604 27.0413 26.8955 27.0413 25.9464C27.0413 24.9972 27.8093 24.2323 28.7624 24.2323ZM28.0094 24.8751V27.0177H28.4598V26.2477H28.8027L29.2128 27.0177H29.6902V26.9977L29.2128 26.1206C29.2558 26.099 29.3244 26.0765 29.3675 26.0335C29.432 25.9902 29.4522 25.9491 29.4952 25.9062C29.5382 25.8422 29.5611 25.7965 29.5826 25.7323C29.6042 25.6682 29.6027 25.6036 29.6027 25.5179C29.6027 25.4108 29.5785 25.3224 29.5355 25.2367C29.514 25.1726 29.4521 25.1136 29.3876 25.0493C29.3016 24.9853 29.2329 24.9368 29.1254 24.9154C29.0393 24.8937 28.9318 24.8755 28.8027 24.8755L28.0094 24.8751ZM28.48 25.2634H28.8296C28.9372 25.2634 29.0205 25.2792 29.0851 25.3441C29.1497 25.4082 29.1725 25.478 29.1725 25.5851C29.1725 25.6284 29.1742 25.6695 29.1523 25.7124C29.1308 25.7556 29.1066 25.7981 29.0851 25.8195C29.0635 25.8412 29.0206 25.8586 28.9776 25.8794C28.9345 25.9011 28.8942 25.906 28.8296 25.906H28.48V25.2634Z" fill="#D65649"/>
<path d="M169.565 26.0403C170.45 26.0403 171.287 26.0403 172.077 26.0403C172.866 26.0284 173.595 26.0164 174.265 26.0044C174.935 25.9805 175.533 25.9506 176.059 25.9148C176.585 25.8789 177.028 25.831 177.386 25.7712V29.0001H161.87C162.002 28.2825 162.079 27.2481 162.103 25.8968C162.127 24.5335 162.139 22.967 162.139 21.1971V10.6138C162.139 8.84394 162.127 7.28335 162.103 5.93203C162.079 4.56876 162.002 3.52837 161.87 2.81085H165.547V26.0403H169.565Z" fill="#D65649"/>
<path d="M181.153 4.8737C181.153 4.53886 181.207 4.22794 181.315 3.94094C181.422 3.64197 181.572 3.38486 181.763 3.16961C181.966 2.9424 182.206 2.769 182.481 2.64941C182.756 2.51787 183.061 2.4521 183.395 2.4521C183.73 2.4521 184.041 2.51787 184.328 2.64941C184.615 2.769 184.86 2.9424 185.064 3.16961C185.267 3.38486 185.428 3.64197 185.548 3.94094C185.668 4.22794 185.727 4.53886 185.727 4.8737C185.727 5.20854 185.668 5.52544 185.548 5.82441C185.428 6.11141 185.267 6.36852 185.064 6.59573C184.86 6.81099 184.615 6.98438 184.328 7.11593C184.041 7.23551 183.73 7.29531 183.395 7.29531C183.061 7.29531 182.756 7.23551 182.481 7.11593C182.206 6.98438 181.966 6.81099 181.763 6.59573C181.572 6.36852 181.422 6.11141 181.315 5.82441C181.207 5.52544 181.153 5.20854 181.153 4.8737ZM185.1 20.4796C185.1 21.0536 185.105 21.7352 185.117 22.5245C185.141 23.3018 185.165 24.0911 185.189 24.8923C185.225 25.6935 185.261 26.4589 185.297 27.1883C185.345 27.9178 185.398 28.5217 185.458 29.0001H181.781V19.493C181.781 18.62 181.775 17.759 181.763 16.91C181.763 16.0609 181.751 15.2597 181.727 14.5063C181.715 13.741 181.691 13.0354 181.655 12.3896C181.62 11.7319 181.572 11.1699 181.512 10.7035H185.1V20.4796Z" fill="#D65649"/>
<path d="M194.445 0.299561V14.2014C194.864 13.6513 195.318 13.143 195.808 12.6766C196.299 12.2103 196.825 11.8037 197.387 11.4569C197.961 11.1101 198.577 10.841 199.235 10.6497C199.892 10.4464 200.598 10.3447 201.351 10.3447C202.26 10.3447 203.091 10.566 203.845 11.0084C204.598 11.4509 205.25 12.0727 205.8 12.874C206.35 13.6632 206.774 14.608 207.073 15.7081C207.384 16.8083 207.54 18.0102 207.54 19.3136C207.54 20.8563 207.33 22.2495 206.912 23.4931C206.505 24.7368 205.925 25.8011 205.172 26.6861C204.419 27.571 203.504 28.2526 202.427 28.731C201.363 29.2093 200.167 29.4485 198.84 29.4485C198.11 29.4485 197.405 29.3947 196.723 29.2871C196.042 29.1914 195.378 29.0658 194.732 28.9104C194.098 28.7429 193.482 28.5695 192.885 28.3902C192.287 28.1988 191.701 28.0135 191.127 27.8341V6.61367C191.127 5.84832 191.115 5.08298 191.091 4.31763C191.079 3.54032 191.055 2.80487 191.019 2.11128C190.983 1.40573 190.929 0.801819 190.858 0.299561L194.445 0.299561ZM194.445 25.6816C194.888 25.8609 195.288 26.0164 195.647 26.1479C196.018 26.2675 196.376 26.3692 196.723 26.4529C197.07 26.5246 197.411 26.5785 197.746 26.6143C198.092 26.6502 198.457 26.6681 198.84 26.6681C199.629 26.6681 200.359 26.5067 201.028 26.1838C201.698 25.8609 202.272 25.4065 202.75 24.8205C203.241 24.2346 203.623 23.529 203.898 22.7039C204.173 21.8668 204.311 20.946 204.311 19.9415C204.311 18.9489 204.221 18.052 204.042 17.2508C203.862 16.4496 203.599 15.7739 203.253 15.2238C202.918 14.6618 202.499 14.2313 201.997 13.9323C201.495 13.6333 200.921 13.4839 200.275 13.4839C199.713 13.4839 199.151 13.6094 198.589 13.8605C198.027 14.0997 197.489 14.4405 196.974 14.883C196.472 15.3255 196 15.8576 195.557 16.4795C195.115 17.0893 194.744 17.765 194.445 18.5064V25.6816Z" fill="#D65649"/>
<path d="M212.042 29.0001V17.9683C212.042 16.1984 211.94 14.7036 211.737 13.4839C211.546 12.2521 211.349 11.3253 211.145 10.7035H214.374C214.446 10.8948 214.518 11.146 214.589 11.4569C214.661 11.7558 214.727 12.0727 214.787 12.4076C214.846 12.7424 214.9 13.0713 214.948 13.3942L215.092 14.2014C215.522 13.5795 215.988 13.0294 216.491 12.5511C217.005 12.0727 217.519 11.6721 218.033 11.3493C218.56 11.0144 219.068 10.7633 219.558 10.5959C220.06 10.4284 220.515 10.3447 220.921 10.3447C221.675 10.3447 222.309 10.5122 222.823 10.847C223.349 11.1699 223.773 11.6123 224.096 12.1744C224.431 12.7245 224.67 13.3643 224.814 14.0937C224.969 14.8112 225.047 15.5646 225.047 16.3539L222.177 16.9817C222.177 16.5393 222.135 16.1147 222.051 15.7081C221.968 15.2896 221.842 14.9249 221.675 14.6139C221.507 14.2911 221.292 14.0399 221.029 13.8605C220.778 13.6692 220.473 13.5735 220.114 13.5735C219.731 13.5735 219.307 13.723 218.841 14.022C218.374 14.309 217.914 14.6917 217.459 15.17C217.017 15.6483 216.604 16.1865 216.222 16.7844C215.839 17.3823 215.552 17.9862 215.361 18.5961V29.0001H212.042Z" fill="#D65649"/>
<path d="M239.666 13.5377C239.523 13.5018 239.361 13.4659 239.182 13.43C239.003 13.3942 238.787 13.3583 238.536 13.3224C238.297 13.2865 238.01 13.2626 237.675 13.2507C237.352 13.2267 236.97 13.2148 236.527 13.2148C235.355 13.2148 234.375 13.454 233.585 13.9323C232.808 14.3987 232.186 15.0265 231.72 15.8158C231.253 16.5931 230.919 17.49 230.715 18.5064C230.524 19.5229 230.428 20.5693 230.428 21.6456C230.428 22.3391 230.494 22.9789 230.626 23.5649C230.769 24.1389 230.961 24.6412 231.2 25.0717C231.439 25.4902 231.714 25.8191 232.025 26.0583C232.336 26.2855 232.671 26.3991 233.029 26.3991C233.556 26.3991 234.082 26.1958 234.608 25.7892C235.146 25.3826 235.66 24.8624 236.151 24.2286C236.641 23.5828 237.101 22.8653 237.532 22.0761C237.962 21.2748 238.333 20.4856 238.644 19.7083C238.967 18.919 239.218 18.1776 239.397 17.484C239.577 16.7904 239.666 16.2343 239.666 15.8158V13.5377ZM241.012 29.0001C240.88 28.7131 240.761 28.3184 240.653 27.8162C240.557 27.3139 240.474 26.7817 240.402 26.2197C240.342 25.6457 240.294 25.0777 240.258 24.5156C240.222 23.9536 240.204 23.4752 240.204 23.0806V21.6456C239.846 22.5783 239.415 23.5111 238.913 24.4439C238.423 25.3647 237.855 26.1958 237.209 26.9372C236.575 27.6786 235.864 28.2825 235.074 28.7489C234.285 29.2153 233.424 29.4485 232.491 29.4485C231.738 29.4485 231.032 29.2811 230.375 28.9462C229.717 28.6114 229.143 28.1151 228.653 27.4574C228.174 26.7997 227.797 25.9865 227.522 25.0179C227.247 24.0373 227.11 22.9132 227.11 21.6456C227.11 20.2225 227.301 18.8353 227.684 17.484C228.067 16.1207 228.653 14.9129 229.442 13.8605C230.231 12.7962 231.236 11.9472 232.455 11.3134C233.675 10.6676 235.122 10.3447 236.796 10.3447C237.956 10.3447 239.05 10.4225 240.079 10.5779C241.107 10.7214 242.076 10.9128 242.985 11.1519V19.493C242.985 21.7532 243.092 23.6546 243.308 25.1972C243.523 26.7279 243.804 27.9955 244.151 29.0001H241.012Z" fill="#D65649"/>
<path d="M248.635 29.0001V17.9683C248.635 16.1984 248.534 14.7036 248.33 13.4839C248.139 12.2521 247.942 11.3253 247.738 10.7035H250.967C251.039 10.8948 251.111 11.146 251.182 11.4569C251.254 11.7558 251.32 12.0727 251.38 12.4076C251.44 12.7424 251.493 13.0713 251.541 13.3942L251.685 14.2014C252.115 13.5795 252.582 13.0294 253.084 12.5511C253.598 12.0727 254.112 11.6721 254.626 11.3493C255.153 11.0144 255.661 10.7633 256.151 10.5959C256.653 10.4284 257.108 10.3447 257.514 10.3447C258.268 10.3447 258.902 10.5122 259.416 10.847C259.942 11.1699 260.367 11.6123 260.689 12.1744C261.024 12.7245 261.263 13.3643 261.407 14.0937C261.562 14.8112 261.64 15.5646 261.64 16.3539L258.77 16.9817C258.77 16.5393 258.728 16.1147 258.645 15.7081C258.561 15.2896 258.435 14.9249 258.268 14.6139C258.1 14.2911 257.885 14.0399 257.622 13.8605C257.371 13.6692 257.066 13.5735 256.707 13.5735C256.325 13.5735 255.9 13.723 255.434 14.022C254.967 14.309 254.507 14.6917 254.052 15.17C253.61 15.6483 253.197 16.1865 252.815 16.7844C252.432 17.3823 252.145 17.9862 251.954 18.5961V29.0001H248.635Z" fill="#D65649"/>
<path d="M273.569 29.0001C272.947 30.7221 272.337 32.1272 271.739 33.2154C271.141 34.3037 270.531 35.1587 269.909 35.7805C269.3 36.4144 268.66 36.8449 267.99 37.0721C267.332 37.3112 266.621 37.4308 265.856 37.4308C265.03 37.4308 264.253 37.2993 263.524 37.0362C262.806 36.7731 262.118 36.3964 261.461 35.9061L262.537 33.0361C262.728 33.1915 262.95 33.347 263.201 33.5024C263.464 33.6699 263.739 33.8134 264.026 33.933C264.325 34.0645 264.63 34.1721 264.941 34.2558C265.252 34.3395 265.557 34.3814 265.856 34.3814C266.214 34.3814 266.567 34.3156 266.914 34.1841C267.261 34.0645 267.607 33.8253 267.954 33.4666C268.313 33.1198 268.678 32.6235 269.048 31.9777C269.419 31.3439 269.814 30.5068 270.232 29.4664L265.228 17.0714C264.893 16.2582 264.504 15.3434 264.062 14.3269C263.619 13.3105 263.051 12.1026 262.358 10.7035H265.945L271.739 25.3587C271.966 24.7129 272.211 24.0133 272.475 23.26C272.75 22.4946 273.031 21.7113 273.318 20.9101C273.605 20.0969 273.892 19.2837 274.179 18.4706C274.466 17.6454 274.741 16.8562 275.004 16.1028C275.626 14.3329 276.253 12.5331 276.887 10.7035H280.475C280.164 11.3971 279.883 12.0428 279.632 12.6408C279.381 13.2267 279.147 13.7828 278.932 14.309C278.717 14.8232 278.52 15.3075 278.34 15.762C278.173 16.2164 278.017 16.6529 277.874 17.0714L273.569 29.0001Z" fill="#D65649"/>
</svg>
