<svg width="64" height="50" viewBox="0 0 64 50" fill="#1a818f" xmlns="http://www.w3.org/2000/svg">
<rect x="1.4497" y="2.06164" width="53.8785" height="30.1109" rx="1.4497" fill="white" stroke="#1a818f" stroke-width="2.8994"/>
<path d="M40.4883 20.1776V36.0757C41.3302 39.7603 46.8119 45.8412 46.8119 45.8412H61.2705V16.7406C61.2705 12.7194 60.0954 9.31558 55.0424 8.05774L54.8015 31.9104C54.8015 32.5686 49.7172 32.8714 47.445 32.5686C47.445 28.3656 48.4362 23.3378 44.2585 20.6616C42.0612 19.2541 40.4883 20.1776 40.4883 20.1776Z" fill="white"/>
<path d="M40.4883 20.1776L39.9378 19.2399C39.6053 19.4352 39.401 19.7919 39.401 20.1776H40.4883ZM40.4883 36.0757H39.401C39.401 36.1572 39.4102 36.2384 39.4283 36.3178L40.4883 36.0757ZM46.8119 45.8412L46.0043 46.5692C46.2104 46.798 46.5039 46.9285 46.8119 46.9285V45.8412ZM61.2705 45.8412V46.9285C61.871 46.9285 62.3577 46.4417 62.3577 45.8412H61.2705ZM55.0424 8.05774L55.3051 7.00266C54.9822 6.9223 54.6404 6.99416 54.3772 7.19771C54.114 7.40126 53.9586 7.71408 53.9552 8.04676L55.0424 8.05774ZM54.8015 31.9104L53.7142 31.8995V31.9104H54.8015ZM47.445 32.5686H46.3577C46.3577 33.1135 46.7611 33.5743 47.3013 33.6463L47.445 32.5686ZM44.2585 20.6616L43.672 21.5772L44.2585 20.6616ZM39.401 20.1776V36.0757H41.5756V20.1776H39.401ZM39.4283 36.3178C39.6751 37.398 40.2397 38.5806 40.8914 39.7022C41.5516 40.8385 42.3417 41.9801 43.0939 42.9897C43.8476 44.0015 44.573 44.8938 45.1095 45.5327C45.3781 45.8526 45.6002 46.1099 45.7558 46.2881C45.8336 46.3772 45.8949 46.4465 45.9371 46.4941C45.9583 46.5178 45.9746 46.5362 45.9859 46.5488C45.9915 46.5551 45.9959 46.56 45.999 46.5634C46.0005 46.5651 46.0017 46.5664 46.0026 46.5674C46.0031 46.5679 46.0034 46.5683 46.0037 46.5686C46.0038 46.5688 46.004 46.5689 46.004 46.569C46.0042 46.5691 46.0043 46.5692 46.8119 45.8412C47.6194 45.1132 47.6195 45.1133 47.6195 45.1134C47.6195 45.1133 47.6195 45.1134 47.6195 45.1133C47.6194 45.1133 47.6193 45.1131 47.6191 45.1129C47.6186 45.1124 47.6179 45.1115 47.6168 45.1103C47.6146 45.1078 47.6111 45.1039 47.6063 45.0986C47.5968 45.088 47.5823 45.0717 47.563 45.0501C47.5245 45.0067 47.4672 44.9418 47.3935 44.8575C47.2461 44.6887 47.0333 44.4421 46.7748 44.1343C46.2573 43.518 45.5596 42.6597 44.8377 41.6906C44.1142 40.7195 43.376 39.6499 42.7716 38.6098C42.1587 37.5549 41.7224 36.5956 41.5482 35.8335L39.4283 36.3178ZM46.8119 46.9285H61.2705V44.754H46.8119V46.9285ZM62.3577 45.8412V16.7406H60.1832V45.8412H62.3577ZM53.9552 8.04676L53.7143 31.8995L55.8887 31.9214L56.1296 8.06872L53.9552 8.04676ZM44.8449 19.7461C43.5398 18.9101 42.3587 18.7343 41.4603 18.8082C41.0197 18.8444 40.6618 18.9393 40.4044 19.0307C40.2756 19.0765 40.1712 19.1217 40.0931 19.1588C40.054 19.1774 40.0214 19.194 39.9955 19.2078C39.9825 19.2147 39.9712 19.2209 39.9616 19.2263C39.9568 19.229 39.9524 19.2315 39.9484 19.2338C39.9465 19.2349 39.9446 19.236 39.9428 19.237C39.9419 19.2375 39.9411 19.238 39.9402 19.2385C39.9398 19.2388 39.9392 19.2391 39.939 19.2392C39.9384 19.2396 39.9378 19.2399 40.4883 20.1776C41.0387 21.1152 41.0382 21.1155 41.0376 21.1159C41.0374 21.116 41.0368 21.1163 41.0365 21.1165C41.0357 21.117 41.035 21.1174 41.0343 21.1178C41.0329 21.1186 41.0316 21.1193 41.0304 21.12C41.028 21.1214 41.0259 21.1226 41.0241 21.1236C41.0206 21.1256 41.0184 21.1268 41.0175 21.1273C41.0157 21.1282 41.019 21.1264 41.0272 21.1225C41.0437 21.1146 41.0794 21.0987 41.1323 21.0798C41.2386 21.0421 41.4113 20.9941 41.6385 20.9754C42.0759 20.9395 42.7799 21.0057 43.672 21.5772L44.8449 19.7461ZM48.5323 32.5686C48.5323 31.5305 48.5926 30.4945 48.6215 29.3385C48.6496 28.2185 48.6448 27.0456 48.4966 25.9028C48.1961 23.5843 47.2899 21.3123 44.8449 19.7461L43.672 21.5772C45.4047 22.6872 46.0918 24.2671 46.3401 26.1823C46.4664 27.1563 46.4749 28.1956 46.4476 29.2841C46.4213 30.3365 46.3577 31.5051 46.3577 32.5686H48.5323ZM62.3577 16.7406C62.3577 14.6454 62.0559 12.5541 60.9785 10.795C59.8768 8.99635 58.0532 7.68676 55.3051 7.00266L54.7798 9.11282C57.0846 9.68656 58.375 10.7078 59.1241 11.9308C59.8975 13.1934 60.1832 14.8146 60.1832 16.7406H62.3577ZM53.7142 31.9104C53.7142 31.5727 53.8834 31.3536 53.97 31.2659C54.0514 31.1834 54.1148 31.1565 54.0981 31.1647C54.0688 31.1792 53.9587 31.2215 53.731 31.2732C53.2939 31.3724 52.6474 31.4574 51.8916 31.5158C50.3756 31.6329 48.62 31.6283 47.5886 31.4908L47.3013 33.6463C48.5421 33.8117 50.4648 33.8071 52.059 33.6839C52.8583 33.6222 53.625 33.5271 54.2122 33.3938C54.4966 33.3293 54.8015 33.2423 55.0591 33.1154C55.1859 33.053 55.3608 32.9524 55.5177 32.7933C55.6799 32.629 55.8888 32.3304 55.8888 31.9104H53.7142Z"/>
<path d="M8.34205 13.443V7.40002H10.4588C11.192 7.40002 11.7481 7.54114 12.1272 7.82336C12.5063 8.10282 12.6958 8.51371 12.6958 9.05603C12.6958 9.35209 12.6197 9.61357 12.4675 9.84045C12.3154 10.0646 12.1037 10.2292 11.8325 10.3344C12.1424 10.4118 12.3859 10.5682 12.563 10.8033C12.7429 11.0385 12.8328 11.3263 12.8328 11.6666C12.8328 12.2477 12.6474 12.6876 12.2766 12.9865C11.9059 13.2853 11.3774 13.4375 10.6912 13.443H8.34205ZM9.58717 10.8116V12.4427H10.6538C10.9471 12.4427 11.1754 12.3736 11.3386 12.2352C11.5047 12.0941 11.5877 11.9004 11.5877 11.6542C11.5877 11.1008 11.3013 10.8199 10.7285 10.8116H9.58717ZM9.58717 9.93176H10.5086C11.1367 9.92069 11.4507 9.67029 11.4507 9.18054C11.4507 8.90662 11.3705 8.71016 11.21 8.59119C11.0523 8.46944 10.8019 8.40857 10.4588 8.40857H9.58717V9.93176ZM14.9578 13.443H13.7542V7.06799H14.9578V13.443ZM15.763 11.1561C15.763 10.7107 15.8487 10.3136 16.0203 9.96497C16.1918 9.61633 16.4381 9.34656 16.759 9.15564C17.0828 8.96472 17.4577 8.86926 17.8838 8.86926C18.4898 8.86926 18.9837 9.05465 19.3655 9.42542C19.7501 9.79618 19.9645 10.2998 20.0088 10.9362L20.0171 11.2433C20.0171 11.9323 19.8248 12.4856 19.4402 12.9034C19.0556 13.3185 18.5396 13.526 17.8921 13.526C17.2446 13.526 16.7272 13.3185 16.3399 12.9034C15.9553 12.4884 15.763 11.924 15.763 11.2101V11.1561ZM16.9624 11.2433C16.9624 11.6694 17.0427 11.9959 17.2031 12.2228C17.3636 12.4469 17.5933 12.559 17.8921 12.559C18.1826 12.559 18.4095 12.4483 18.5728 12.2269C18.736 12.0028 18.8176 11.6459 18.8176 11.1561C18.8176 10.7383 18.736 10.4146 18.5728 10.1849C18.4095 9.95528 18.1799 9.84045 17.8838 9.84045C17.5905 9.84045 17.3636 9.95528 17.2031 10.1849C17.0427 10.4118 16.9624 10.7646 16.9624 11.2433ZM20.5691 11.1561C20.5691 10.7107 20.6549 10.3136 20.8264 9.96497C20.998 9.61633 21.2442 9.34656 21.5652 9.15564C21.8889 8.96472 22.2638 8.86926 22.69 8.86926C23.2959 8.86926 23.7898 9.05465 24.1716 9.42542C24.5562 9.79618 24.7707 10.2998 24.815 10.9362L24.8233 11.2433C24.8233 11.9323 24.631 12.4856 24.2464 12.9034C23.8617 13.3185 23.3457 13.526 22.6983 13.526C22.0508 13.526 21.5334 13.3185 21.146 12.9034C20.7614 12.4884 20.5691 11.924 20.5691 11.2101V11.1561ZM21.7686 11.2433C21.7686 11.6694 21.8488 11.9959 22.0093 12.2228C22.1698 12.4469 22.3994 12.559 22.6983 12.559C22.9888 12.559 23.2157 12.4483 23.3789 12.2269C23.5422 12.0028 23.6238 11.6459 23.6238 11.1561C23.6238 10.7383 23.5422 10.4146 23.3789 10.1849C23.2157 9.95528 22.986 9.84045 22.69 9.84045C22.3967 9.84045 22.1698 9.95528 22.0093 10.1849C21.8488 10.4118 21.7686 10.7646 21.7686 11.2433ZM26.6868 8.95227L26.7241 9.45447C27.0423 9.06433 27.4726 8.86926 28.0149 8.86926C28.5932 8.86926 28.9902 9.09753 29.2061 9.55408C29.5215 9.09753 29.9711 8.86926 30.5549 8.86926C31.0419 8.86926 31.4044 9.01176 31.6423 9.29675C31.8803 9.57898 31.9993 10.0051 31.9993 10.5751V13.443H30.7957V10.5792C30.7957 10.3247 30.7459 10.1393 30.6463 10.0231C30.5466 9.90409 30.3709 9.8446 30.1192 9.8446C29.7595 9.8446 29.5104 10.0162 29.3721 10.3593L29.3762 13.443H28.1768V10.5834C28.1768 10.3233 28.1256 10.1351 28.0232 10.0189C27.9208 9.90271 27.7465 9.8446 27.5003 9.8446C27.1599 9.8446 26.9137 9.98572 26.7615 10.2679V13.443H25.562V8.95227H26.6868ZM34.2488 11.3138V13.443H33.0037V7.40002H35.3611C35.8149 7.40002 36.2133 7.48303 36.5564 7.64905C36.9023 7.81506 37.1679 8.05164 37.3533 8.35876C37.5387 8.66313 37.6314 9.01038 37.6314 9.40051C37.6314 9.99264 37.428 10.4602 37.0213 10.8033C36.6173 11.1437 36.057 11.3138 35.3403 11.3138H34.2488ZM34.2488 10.3053H35.3611C35.6904 10.3053 35.9408 10.2278 36.1123 10.0729C36.2866 9.91793 36.3738 9.69657 36.3738 9.40881C36.3738 9.11275 36.2866 8.87341 36.1123 8.6908C35.938 8.50818 35.6973 8.4141 35.3902 8.40857H34.2488V10.3053ZM43.0642 7.40002V11.3802C43.0642 12.0415 42.8567 12.5645 42.4417 12.9491C42.0294 13.3337 41.4649 13.526 40.7483 13.526C40.0427 13.526 39.4824 13.3392 39.0674 12.9657C38.6524 12.5922 38.4407 12.0789 38.4324 11.4259V7.40002H39.6775V11.3885C39.6775 11.7842 39.7716 12.0734 39.9597 12.256C40.1506 12.4358 40.4135 12.5258 40.7483 12.5258C41.4483 12.5258 41.8039 12.1578 41.815 11.4218V7.40002H43.0642ZM44.0852 13.443V7.40002H46.2019C46.9352 7.40002 47.4913 7.54114 47.8704 7.82336C48.2494 8.10282 48.439 8.51371 48.439 9.05603C48.439 9.35209 48.3629 9.61357 48.2107 9.84045C48.0585 10.0646 47.8469 10.2292 47.5757 10.3344C47.8856 10.4118 48.1291 10.5682 48.3062 10.8033C48.486 11.0385 48.5759 11.3263 48.5759 11.6666C48.5759 12.2477 48.3906 12.6876 48.0198 12.9865C47.649 13.2853 47.1205 13.4375 46.4343 13.443H44.0852ZM45.3303 10.8116V12.4427H46.397C46.6903 12.4427 46.9186 12.3736 47.0818 12.2352C47.2478 12.0941 47.3308 11.9004 47.3308 11.6542C47.3308 11.1008 47.0444 10.8199 46.4717 10.8116H45.3303ZM45.3303 9.93176H46.2517C46.8798 9.92069 47.1939 9.67029 47.1939 9.18054C47.1939 8.90662 47.1136 8.71016 46.9531 8.59119C46.7954 8.46944 46.545 8.40857 46.2019 8.40857H45.3303V9.93176Z"/>
<path fill-rule="evenodd" clip-rule="evenodd" d="M22.6816 17.2829C22.898 17.1393 23.1647 17.0859 23.422 17.1347C24.6734 17.3723 26.4214 18.0231 27.3684 18.6836C27.3738 18.6873 27.3791 18.6911 27.3844 18.695C27.4168 18.7186 27.4511 18.7432 27.4871 18.7691C27.9338 19.0902 28.6386 19.5969 29.1946 20.5473C29.7926 21.5693 30.1741 23.0116 30.1344 25.1696L28.1775 25.1357C28.2131 23.2028 27.867 22.1249 27.4926 21.485C27.1454 20.8917 26.7363 20.5955 26.302 20.2811C26.2743 20.2611 26.2466 20.241 26.2188 20.2207C25.7503 19.8963 24.8843 19.5196 24.0449 19.256C23.8242 21.1951 23.9834 23.1835 24.5897 24.7108C24.9432 25.6011 25.4294 26.2881 26.031 26.7392C26.6174 27.1788 27.3701 27.4383 28.3638 27.3939C29.6382 27.337 30.4843 27.0638 31.0608 26.6824C31.6247 26.3093 32.0156 25.7766 32.2797 25.0371C32.5504 24.2792 32.6792 23.3258 32.7114 22.1624C32.7358 21.2795 32.7043 20.3111 32.6508 19.2576C31.7926 19.3949 31.2084 19.5805 30.8346 19.7349C30.5819 19.8393 30.4236 19.9301 30.3402 19.9837C30.2989 20.0102 30.2756 20.0279 30.2678 20.0339C30.2389 20.0596 30.2084 20.0835 30.1765 20.1056L30.0009 20.2274L28.8631 18.682L28.9984 18.5882C29.0107 18.578 29.0244 18.567 29.0393 18.5553C29.0945 18.5122 29.1673 18.4594 29.26 18.3998C29.4456 18.2806 29.7092 18.1356 30.0681 17.9873C30.7861 17.6907 31.8787 17.3843 33.4837 17.2427C33.748 17.2194 34.0108 17.3013 34.2117 17.4696C34.4127 17.6379 34.5345 17.8782 34.5493 18.1354C34.6327 19.5826 34.7025 20.9642 34.6679 22.2134C34.6335 23.459 34.4948 24.6349 34.129 25.6591C33.7565 26.7018 33.1419 27.6042 32.1634 28.2517C31.1974 28.8908 29.9639 29.2238 28.4538 29.2912C27.024 29.355 25.809 28.9729 24.8344 28.2422C23.8749 27.5228 23.2068 26.5105 22.7634 25.3936C21.8832 23.1766 21.8137 20.3665 22.2709 17.8987C22.3173 17.6483 22.4653 17.4265 22.6816 17.2829Z"/>
<rect x="1.67578" y="2.5708" width="3.72339" height="29.0925"/>
<rect x="51.3779" y="2.5708" width="3.72339" height="29.0925"/>
<rect x="1.67578" y="11.248" width="1.86169" height="11.738" fill="white"/>
<circle cx="53.1647" cy="17.1171" r="1.26042" fill="white"/>
</svg>
