<svg width="96" height="71" viewBox="0 0 96 71" fill="none" xmlns="http://www.w3.org/2000/svg">
<path d="M18.1651 0.627197H1.36514C0.965135 0.627197 0.665123 0.927209 0.665123 1.32721L0.565147 69.2272C0.565147 69.6272 0.86516 69.9272 1.26516 69.9272H18.0651C18.4651 69.9272 18.7652 69.6272 18.7652 69.2272L18.8651 1.32721C18.8651 0.927209 18.5651 0.627197 18.1651 0.627197ZM15.8651 61.7272C15.8651 62.1272 15.5651 62.4272 15.1651 62.4272H4.16512C3.76512 62.4272 3.46517 62.1272 3.46517 61.7272V60.4272C3.46517 60.0272 3.76512 59.7272 4.16512 59.7272H15.1651C15.5651 59.7272 15.8651 60.0272 15.8651 60.4272V61.7272ZM15.9652 13.9272C15.9652 14.3272 15.6652 14.6272 15.2652 14.6272H4.26516C3.86516 14.6272 3.56515 14.3272 3.56515 13.9272V8.72723C3.56515 8.32723 3.86516 8.02722 4.26516 8.02722H15.2652C15.6652 8.02722 15.9652 8.32723 15.9652 8.72723V13.9272Z" fill="#1a818f"/>
<path d="M41.3651 8.02722H24.5651C24.1651 8.02722 23.8651 8.32723 23.8651 8.72723L23.7652 69.1273C23.7652 69.5273 24.0652 69.8272 24.4652 69.8272H41.2652C41.6652 69.8272 41.9652 69.5273 41.9652 69.1273L42.0651 8.72723C42.0651 8.42723 41.7651 8.02722 41.3651 8.02722ZM39.0651 61.7272C39.0651 62.1272 38.7651 62.4272 38.3651 62.4272H27.3651C26.9651 62.4272 26.6651 62.1272 26.6651 61.7272V60.4272C26.6651 60.0272 26.9651 59.7272 27.3651 59.7272H38.3651C38.7651 59.7272 39.0651 60.0272 39.0651 60.4272V61.7272ZM39.1651 21.4272C39.1651 21.8272 38.8652 22.1272 38.4652 22.1272H27.4652C27.0652 22.1272 26.7652 21.8272 26.7652 21.4272V16.2272C26.7652 15.8272 27.0652 15.5272 27.4652 15.5272H38.4652C38.8652 15.5272 39.1651 15.8272 39.1651 16.2272V21.4272Z" fill="#1a818f"/>
<path d="M95.5651 65.1273L82.6651 13.7272C82.5651 13.3272 82.1652 13.1272 81.7652 13.2272L65.4652 17.3272C65.3652 17.3272 65.2651 17.4272 65.1651 17.4272V1.32721C65.1651 0.927209 64.8652 0.627197 64.4652 0.627197H47.6651C47.2651 0.627197 46.9652 0.927209 46.9652 1.32721L46.8651 69.2272C46.8651 69.6272 47.1651 69.9272 47.5651 69.9272H64.3651C64.7651 69.9272 65.0651 69.6272 65.0651 69.2272L65.1651 19.1272L77.7652 69.6273C77.8652 70.0273 78.2651 70.2273 78.6651 70.1273L94.9652 66.0272C95.3652 65.9272 95.6651 65.5273 95.5651 65.1273ZM62.2652 61.7272C62.2652 62.1272 61.9651 62.4272 61.5651 62.4272H50.5651C50.1651 62.4272 49.8651 62.1272 49.8651 61.7272V60.4272C49.8651 60.0272 50.1651 59.7272 50.5651 59.7272H61.5651C61.9651 59.7272 62.2652 60.0272 62.2652 60.4272V61.7272ZM62.3651 13.9272C62.3651 14.3272 62.0651 14.6272 61.6651 14.6272H50.6651C50.2651 14.6272 49.9652 14.3272 49.9652 13.9272V8.72723C49.9652 8.32723 50.2651 8.02722 50.6651 8.02722H61.6651C62.0651 8.02722 62.3651 8.32723 62.3651 8.72723V13.9272ZM71.7652 30.2272C71.3652 30.3272 70.9651 30.1272 70.8651 29.7272L69.5651 24.7272C69.4651 24.3272 69.6651 23.9272 70.0651 23.8272L80.7652 21.1272C81.1652 21.0272 81.5651 21.2272 81.6651 21.6272L82.9652 26.6272C83.0652 27.0272 82.8652 27.4272 82.4652 27.5272L71.7652 30.2272ZM90.3651 59.4272L79.6651 62.1273C79.2651 62.2273 78.8652 62.0273 78.7652 61.6273L78.4652 60.3272C78.3652 59.9272 78.5652 59.5272 78.9652 59.4272L89.6651 56.7272C90.0651 56.6272 90.4651 56.8272 90.5651 57.2272L90.8651 58.5272C91.0651 58.9272 90.7651 59.3272 90.3651 59.4272Z" fill="#1a818f"/>
</svg>
