<svg width="100" height="101" viewBox="0 0 100 101" fill="none" xmlns="http://www.w3.org/2000/svg">
<g clip-path="url(#clip0)">
<path d="M95.1393 49.5002H88.4836C88.1016 39.892 84.2623 31.1592 78.1721 24.5166L82.8853 19.8035L87.523 24.4412L89.841 22.1232L78.2492 10.5314L75.9312 12.8494L80.5689 17.4871L75.8574 22.1986C69.2148 16.0576 60.4607 12.1773 50.8197 11.7789V5.18054H57.3771V1.90186H40.9836V5.18054H47.541V11.7789C37.9246 12.1756 29.1902 16.0363 22.5541 22.1478L17.8918 17.4855L22.5295 12.8478L20.2115 10.5297L8.61967 22.1215L10.9377 24.4396L15.5754 19.8019L20.2393 24.4658C14.1295 31.1019 10.2738 39.833 9.87705 49.4428H3.27869V42.8855H0V59.2789H3.27869V52.7215H9.87705C10.2738 62.3428 14.1377 71.0805 20.2541 77.7183L15.5705 82.4019L10.9344 77.7642L8.61639 80.0822L20.2082 91.674L22.5262 89.356L17.8885 84.7183L22.5721 80.0346C29.2066 86.1363 37.9328 89.9887 47.5393 90.3838V96.9838H40.982V100.263H57.3754V96.9838H50.818V90.3855C60.4279 89.9887 69.159 86.133 75.7934 80.0281L80.4853 84.7199L75.8475 89.3576L78.1656 91.6756L89.7574 80.0838L87.4394 77.7658L82.8016 82.4035L78.1098 77.7117C84.2098 71.0887 88.0689 62.3756 88.4787 52.7822H95.1361V59.3396H98.4148V42.9461H95.1361V49.5002H95.1393ZM49.1803 87.1478C29.2934 87.1478 13.1148 70.9691 13.1148 51.0822C13.1148 31.1953 29.2934 15.0166 49.1803 15.0166C69.0672 15.0166 85.2459 31.1953 85.2459 51.0822C85.2459 70.9691 69.0672 87.1478 49.1803 87.1478Z" fill="#1D94A4"/>
<path d="M49.1804 42.8857C44.6607 42.8857 40.9836 46.5628 40.9836 51.0825C40.9836 55.6021 44.6607 59.2792 49.1804 59.2792C53.7 59.2792 57.3771 55.6021 57.3771 51.0825C57.3771 46.5628 53.7 42.8857 49.1804 42.8857ZM49.1804 56.0005C46.4689 56.0005 44.2623 53.7939 44.2623 51.0825C44.2623 48.371 46.4689 46.1644 49.1804 46.1644C51.8918 46.1644 54.0984 48.371 54.0984 51.0825C54.0984 53.7939 51.8918 56.0005 49.1804 56.0005Z" fill="#1D94A4"/>
<path d="M49.1804 18.2954C44.5836 18.2954 40.9836 20.8167 40.9836 24.0331C40.9836 26.8561 43.7558 29.1397 47.541 29.6577V33.0495H50.8197V29.6577C54.6049 29.1397 57.3771 26.8544 57.3771 24.0331C57.3771 20.8167 53.7771 18.2954 49.1804 18.2954ZM49.1804 26.4921C46.3656 26.4921 44.2623 25.1938 44.2623 24.0331C44.2623 22.8725 46.3656 21.5741 49.1804 21.5741C51.9951 21.5741 54.0984 22.8725 54.0984 24.0331C54.0984 25.1938 51.9951 26.4921 49.1804 26.4921Z" fill="#1D94A4"/>
<path d="M50.8197 72.507V69.1152H47.541V72.507C43.7558 73.0251 40.9836 75.3103 40.9836 78.1316C40.9836 81.348 44.5836 83.8693 49.1804 83.8693C53.7771 83.8693 57.3771 81.348 57.3771 78.1316C57.3771 75.3087 54.6049 73.0251 50.8197 72.507ZM49.1804 80.5906C46.3656 80.5906 44.2623 79.2923 44.2623 78.1316C44.2623 76.971 46.3656 75.6726 49.1804 75.6726C51.9951 75.6726 54.0984 76.971 54.0984 78.1316C54.0984 79.2923 51.9951 80.5906 49.1804 80.5906Z" fill="#1D94A4"/>
<path d="M27.7557 52.7218H31.1475V49.4431H27.7557C27.2377 45.6579 24.9524 42.8857 22.1311 42.8857C18.9147 42.8857 16.3934 46.4857 16.3934 51.0825C16.3934 55.6792 18.9147 59.2792 22.1311 59.2792C24.9541 59.2792 27.2377 56.5071 27.7557 52.7218ZM22.1311 56.0005C20.9705 56.0005 19.6721 53.8972 19.6721 51.0825C19.6721 48.2677 20.9705 46.1644 22.1311 46.1644C23.2918 46.1644 24.5902 48.2677 24.5902 51.0825C24.5902 53.8972 23.2918 56.0005 22.1311 56.0005Z" fill="#1D94A4"/>
<path d="M70.6049 49.4431H67.2131V52.7218H70.6049C71.123 56.5071 73.4082 59.2792 76.2295 59.2792C79.4459 59.2792 81.9672 55.6792 81.9672 51.0825C81.9672 46.4857 79.4459 42.8857 76.2295 42.8857C73.4066 42.8857 71.123 45.6579 70.6049 49.4431ZM76.2295 46.1644C77.3902 46.1644 78.6885 48.2677 78.6885 51.0825C78.6885 53.8972 77.3902 56.0005 76.2295 56.0005C75.0689 56.0005 73.7705 53.8972 73.7705 51.0825C73.7705 48.2677 75.0689 46.1644 76.2295 46.1644Z" fill="#1D94A4"/>
<path d="M36.9788 31.096C37.4329 29.1304 37.0214 27.332 35.8509 26.1615C34.6804 24.991 32.8821 24.5796 30.9165 25.0337C29.1985 25.4304 27.4509 26.4484 25.9985 27.9025C24.546 29.3566 23.5263 31.1025 23.1296 32.8206C22.6755 34.7861 23.0886 36.5845 24.2575 37.755C25.1165 38.614 26.3132 39.0648 27.6673 39.0648C28.1575 39.0648 28.6706 39.0058 29.1935 38.8845C30.446 38.596 31.7116 37.9681 32.8689 37.091L35.2706 39.4927L37.5886 37.1747L35.187 34.773C36.064 33.6124 36.6903 32.3484 36.9788 31.096ZM28.4558 35.6861C27.6149 35.8796 26.9312 35.7894 26.5771 35.432C26.223 35.0779 26.1312 34.3927 26.3247 33.5533C26.5804 32.4419 27.3067 31.2255 28.3165 30.2156C29.3263 29.2058 30.5427 28.4796 31.6542 28.2238C31.9427 28.1566 32.2132 28.1238 32.4575 28.1238C32.9263 28.1238 33.3001 28.2435 33.5329 28.4763C33.887 28.8304 33.9788 29.5156 33.7853 30.355C33.5296 31.4665 32.8034 32.6829 31.7935 33.6927C30.7837 34.7025 29.5673 35.4304 28.4558 35.6861Z" fill="#1D94A4"/>
<path d="M69.1673 63.284C67.9148 63.5725 66.6493 64.1987 65.4919 65.0774L63.0903 62.6758L60.7722 64.9938L63.1739 67.3955C62.2968 68.5528 61.6689 69.8184 61.3804 71.0709C60.9263 73.0364 61.3378 74.8348 62.5083 76.0053C63.3673 76.8643 64.564 77.3135 65.9165 77.3135C66.4066 77.3135 66.9198 77.2545 67.4427 77.1332C69.1607 76.7364 70.9083 75.7184 72.3607 74.2643C73.8132 72.8102 74.8329 71.0643 75.2296 69.3463C75.6837 67.3807 75.2706 65.5823 74.1017 64.4119C72.9329 63.2414 71.1345 62.8299 69.1673 63.284ZM72.0378 68.6102C71.7821 69.7217 71.0558 70.9381 70.046 71.9479C69.0362 72.9578 67.8198 73.684 66.7083 73.9397C65.8657 74.1348 65.1821 74.0414 64.8296 73.6873C64.4755 73.3332 64.3837 72.6479 64.5771 71.8086C64.8329 70.6971 65.5591 69.4807 66.5689 68.4709C67.5788 67.461 68.7952 66.7348 69.9067 66.4791C70.1952 66.4118 70.4657 66.3791 70.7099 66.3791C71.1788 66.3791 71.5526 66.4987 71.7853 66.7315C72.1394 67.0856 72.2312 67.7709 72.0378 68.6102Z" fill="#1D94A4"/>
<path d="M35.2704 62.6738L32.8688 65.0755C31.7114 64.1984 30.4458 63.5722 29.1934 63.282C27.2278 62.8296 25.4294 63.2394 24.259 64.4099C23.0885 65.5804 22.677 67.3804 23.1311 69.3443C23.5278 71.0624 24.5458 72.8099 25.9999 74.2624C27.454 75.7148 29.1999 76.7345 30.918 77.1312C31.4409 77.2525 31.9524 77.3115 32.4442 77.3115C33.7967 77.3115 34.9934 76.8624 35.8524 76.0033C37.0229 74.8328 37.436 73.0328 36.9819 71.0673C36.6934 69.8148 36.0671 68.5492 35.1885 67.3919L37.5901 64.9902L35.2704 62.6738ZM33.5311 73.6869C33.1786 74.041 32.495 74.1328 31.6524 73.9394C30.5409 73.6837 29.3245 72.9574 28.3147 71.9476C27.3049 70.9378 26.5786 69.7214 26.3229 68.6099C26.1294 67.7706 26.2212 67.0853 26.5753 66.7312C26.8081 66.4984 27.1819 66.3787 27.6508 66.3787C27.895 66.3787 28.1655 66.4115 28.454 66.4787C29.5655 66.7345 30.7819 67.4607 31.7917 68.4705C32.8016 69.4804 33.5278 70.6968 33.7835 71.8083C33.9786 72.646 33.8852 73.3312 33.5311 73.6869Z" fill="#1D94A4"/>
<path d="M67.4459 25.0303C65.482 24.5762 63.6836 24.9876 62.5115 26.1581C61.341 27.3286 60.9279 29.1286 61.382 31.0942C61.6705 32.3466 62.2984 33.6122 63.1754 34.7696L60.7738 37.1712L63.0918 39.4893L65.4935 37.0876C66.6508 37.9647 67.9164 38.5926 69.1689 38.8811C69.6918 39.0024 70.2033 39.0614 70.6951 39.0614C72.0476 39.0614 73.2443 38.6122 74.1033 37.7532C75.2738 36.5827 75.6853 34.7827 75.2312 32.8188C74.8344 31.1007 73.8164 29.3532 72.3623 27.9007C70.9082 26.4483 69.164 25.427 67.4459 25.0303ZM71.7853 35.4335C71.4312 35.7893 70.7476 35.8794 69.9066 35.6876C68.7951 35.4319 67.5787 34.7057 66.5689 33.6958C65.559 32.686 64.8328 31.4696 64.5771 30.3581C64.3836 29.5188 64.4754 28.8335 64.8312 28.4794C65.064 28.2466 65.4377 28.127 65.9066 28.127C66.1508 28.127 66.4213 28.1598 66.7099 28.227C67.8213 28.4827 69.0377 29.2089 70.0476 30.2188C71.0574 31.2286 71.7836 32.445 72.0394 33.5565C72.2312 34.3942 72.1394 35.0794 71.7853 35.4335Z" fill="#1D94A4"/>
</g>
<defs>
<clipPath id="clip0">
<rect y="0.634277" width="100" height="100" fill="white"/>
</clipPath>
</defs>
</svg>
