<svg width="33" height="44" viewBox="0 0 33 44" fill="#1a818f" xmlns="http://www.w3.org/2000/svg">
<path fill-rule="evenodd" clip-rule="evenodd" d="M32.8682 10.4689C32.8656 10.2697 32.801 10.0729 32.661 9.91736L24.0898 0.349942C24.089 0.348531 24.0876 0.347622 24.0863 0.346721C24.0851 0.345911 24.0839 0.345106 24.0831 0.343948C24.032 0.288187 23.9733 0.242205 23.9103 0.201665C23.8932 0.190849 23.8753 0.181021 23.8574 0.171158L23.8523 0.168382C23.7979 0.139515 23.7408 0.115538 23.6804 0.0980291C23.674 0.0961221 23.6676 0.093886 23.6612 0.0916296C23.6522 0.0884735 23.643 0.0852775 23.6336 0.0828859C23.569 0.067585 23.5017 0.0585938 23.4344 0.0585938H2.37018C1.40915 0.0585938 0.626953 0.823088 0.626953 1.76228V41.7971C0.626953 42.7367 1.40915 43.5008 2.37018 43.5008H31.1335C32.0945 43.5008 32.8768 42.7367 32.8768 41.7971V10.5643C32.8767 10.5406 32.8739 10.5172 32.8711 10.4937L32.8682 10.4689ZM2.37018 28.9846V1.76228H22.5628V10.4787C22.5628 10.9488 22.9527 11.3305 23.4344 11.3305H31.1335L31.1343 28.9846H2.37018ZM7.82384 37.3631H4.16465V39.8407H8.45912V41.3717H2.25882V32.1221H8.44641V33.6658H4.16465V35.8702H7.82384V37.3631ZM10.8325 38.1127V41.3717H8.92668V32.1221H12.5351C13.2296 32.1221 13.8395 32.2491 14.3646 32.5032C14.894 32.7574 15.3006 33.1195 15.5844 33.5896C15.8681 34.0554 16.01 34.5869 16.01 35.1841C16.01 36.0904 15.6987 36.8062 15.0762 37.3313C14.4578 37.8523 13.6002 38.1127 12.5033 38.1127H10.8325ZM10.8325 36.569H12.5351C13.039 36.569 13.4223 36.4504 13.6849 36.2133C13.9517 35.9761 14.0851 35.6373 14.0851 35.1968C14.0851 34.7437 13.9517 34.3773 13.6849 34.0978C13.4181 33.8183 13.0496 33.6743 12.5795 33.6658H10.8325V36.569ZM23.6753 38.2144V32.1221H21.7631V38.2779C21.7461 39.4045 21.2019 39.9677 20.1304 39.9677C19.618 39.9677 19.2156 39.8301 18.9234 39.5548C18.6354 39.2753 18.4914 38.8327 18.4914 38.2271V32.1221H16.5856V38.2843C16.5983 39.2838 16.9223 40.0694 17.5575 40.6411C18.1928 41.2129 19.0504 41.4988 20.1304 41.4988C21.2273 41.4988 22.0913 41.2044 22.7223 40.6157C23.3576 40.027 23.6753 39.2266 23.6753 38.2144ZM24.5875 41.3717V32.1221H27.8274C28.9497 32.1221 29.801 32.3381 30.3812 32.7701C30.9615 33.1978 31.2516 33.8267 31.2516 34.6568C31.2516 35.11 31.1351 35.5102 30.9022 35.8575C30.6692 36.2006 30.3452 36.4525 29.9302 36.6135C30.4045 36.7321 30.7772 36.9714 31.0483 37.3313C31.3236 37.6913 31.4612 38.1318 31.4612 38.6527C31.4612 39.5421 31.1774 40.2155 30.6099 40.6729C30.0424 41.1303 29.2335 41.3632 28.1832 41.3717H24.5875ZM26.4933 37.344V39.8407H28.126C28.5749 39.8407 28.9243 39.7348 29.1742 39.523C29.4283 39.307 29.5554 39.0106 29.5554 38.6337C29.5554 37.7866 29.117 37.3568 28.2404 37.344H26.4933ZM26.4933 35.9973H27.9037C28.865 35.9803 29.3457 35.597 29.3457 34.8474C29.3457 34.4281 29.2229 34.1274 28.9773 33.9453C28.7359 33.759 28.3526 33.6658 27.8274 33.6658H26.4933V35.9973ZM11.5666 15.925L16.7387 21.0674L23.6345 14.2116L24.6923 15.263C25.0602 15.6287 25.0602 16.222 24.6923 16.5881L17.4051 23.8327C17.0373 24.1986 16.4405 24.1986 16.0723 23.8327L8.78512 16.5881C8.41723 16.222 8.41723 15.6287 8.78512 15.263L16.0723 8.01819C16.4405 7.6521 17.0373 7.6521 17.4051 8.01819L21.9107 12.4974L16.7386 17.6391L15.0145 15.925L18.4629 12.4972L16.7387 10.7833L11.5666 15.925Z"/>
</svg>
