<svg width="70" height="69" viewBox="0 0 70 69" fill="none" xmlns="http://www.w3.org/2000/svg">
<path d="M26.6509 35.9858C26.6509 34.664 27.7386 33.5918 29.0795 33.5918C30.4205 33.5918 31.5082 34.664 31.5082 35.9858C31.5082 37.3076 30.4213 38.3797 29.0804 38.3797C27.7394 38.3797 26.6509 37.3076 26.6509 35.9858ZM38.5486 49.4288C37.4961 50.6423 35.9629 51.3379 34.3438 51.3379C32.862 51.3379 31.4678 50.7692 30.4256 49.736C29.829 49.1462 29.8316 48.19 30.4282 47.6027C31.0266 47.0146 31.9967 47.0171 32.595 47.6052C33.5711 48.5682 35.3207 48.5056 36.2221 47.4673C36.7716 46.8352 37.7399 46.7598 38.3812 47.3023C39.0234 47.8422 39.0981 48.795 38.5486 49.4288ZM40.4433 38.3797C39.1023 38.3797 38.0138 37.3076 38.0138 35.9858C38.0138 34.664 39.1023 33.5918 40.4433 33.5918C41.7843 33.5918 42.8711 34.664 42.8711 35.9858C42.8711 37.3076 41.7843 38.3797 40.4433 38.3797Z" fill="black"/>
<path d="M29.0803 38.3797C30.4216 38.3797 31.5089 37.3079 31.5089 35.9858C31.5089 34.6636 30.4216 33.5918 29.0803 33.5918C27.739 33.5918 26.6516 34.6636 26.6516 35.9858C26.6516 37.3079 27.739 38.3797 29.0803 38.3797Z" fill="black"/>
<path d="M40.4433 38.3797C41.7846 38.3797 42.872 37.3079 42.872 35.9858C42.872 34.6636 41.7846 33.5918 40.4433 33.5918C39.102 33.5918 38.0146 34.6636 38.0146 35.9858C38.0146 37.3079 39.102 38.3797 40.4433 38.3797Z" fill="black"/>
<path d="M15.767 38.9717C15.7301 38.9734 15.6923 38.9708 15.6545 38.9725C17.0221 49.772 24.9236 58.081 34.4408 58.081C34.4614 58.081 34.4828 58.0793 34.5026 58.0793C25.0069 58.043 17.132 49.7466 15.767 38.9717Z" fill="black"/>
<path d="M34.5024 58.0793C34.5239 58.0793 34.5445 58.081 34.566 58.081C44.0823 58.081 51.9855 49.772 53.3513 38.9725C53.3153 38.9708 53.2766 38.9734 53.2397 38.9717C51.8747 49.7466 43.9981 58.043 34.5024 58.0793Z" fill="black"/>
<path d="M36.2212 47.4672C35.3198 48.5063 33.5702 48.5681 32.5941 47.6051C31.9957 47.017 31.0257 47.0144 30.4273 47.6026C29.8306 48.1898 29.8281 49.1461 30.4247 49.7359C31.4678 50.7691 32.862 51.3378 34.3428 51.3378C35.9628 51.3378 37.4961 50.6422 38.5477 49.4287C39.098 48.7949 39.0224 47.842 38.3794 47.3013C37.7381 46.7597 36.7706 46.835 36.2212 47.4672Z" fill="black"/>
<path d="M56.1758 26.2487L62.8625 24.8161L58.2602 19.8242L56.1758 26.2487L62.8625 24.8161L58.2602 19.8242L56.1758 26.2487Z" fill="black"/>
<path d="M53.6131 21.3535C50.7861 14.0574 42.7739 10.0573 34.5024 11.2251C26.2326 10.0573 18.2204 14.0574 15.3925 21.3535C12.0625 29.9655 -4.64622 32.615 5.03234 36.2563C7.83272 37.309 12.211 39.0836 15.6544 38.9727C15.6921 38.971 15.7299 38.9735 15.7668 38.9719C17.1318 49.7468 25.0076 58.0431 34.5024 58.0795C43.999 58.0431 51.8747 49.7468 53.2397 38.9719C53.2766 38.9735 53.3152 38.971 53.3513 38.9727C56.7955 39.0836 61.1738 37.309 63.9742 36.2563C73.6519 32.615 56.9441 29.9655 53.6131 21.3535ZM34.5659 55.0636C34.5445 55.0636 34.5239 55.0619 34.5024 55.0619C34.4827 55.0619 34.4612 55.0636 34.4406 55.0636C25.6549 55.0636 18.5063 46.3526 18.5063 35.6437C18.5063 34.1526 18.6574 32.7081 18.9183 31.3136C20.3683 32.3332 22.7884 32.5033 25.2797 32.3146C25.3698 32.2452 25.4591 32.1742 25.5493 32.1082C28.6596 29.8581 31.1766 29.8064 34.5015 30.5553C37.8282 29.8064 40.3444 29.8581 43.4547 32.1082C43.5474 32.1742 43.635 32.2452 43.7251 32.3146C46.2156 32.5042 48.6365 32.3332 50.0865 31.3136C50.3483 32.7081 50.4986 34.1526 50.4986 35.6437C50.5003 46.3526 43.3525 55.0636 34.5659 55.0636ZM53.8776 30.7576L51.224 26.5062L56.2865 26.3674L53.8776 30.7576Z" fill="black"/>
</svg>
