<svg width="33" height="44" viewBox="0 0 33 44" fill="#1a818f" xmlns="http://www.w3.org/2000/svg">
<path d="M16.1294 32.7661C15.5957 32.7661 15.251 32.8123 15.0469 32.858V39.6188C15.2514 39.665 15.5808 39.665 15.8785 39.665C18.0428 39.6799 19.4549 38.5154 19.4549 36.0469C19.4702 33.9004 18.1842 32.7661 16.1294 32.7661Z"/>
<path d="M6.88887 32.7358C6.40286 32.7358 6.07342 32.7816 5.90039 32.8273V35.8785C6.10465 35.9243 6.35581 35.94 6.69961 35.94C7.97128 35.94 8.75525 35.3112 8.75525 34.2535C8.75533 33.3032 8.08039 32.7358 6.88887 32.7358Z"/>
<path d="M32.8975 10.4689C32.8949 10.2697 32.8303 10.0729 32.6903 9.91736L24.1191 0.349942C24.1174 0.347261 24.1141 0.346393 24.1124 0.343948C24.0613 0.288187 24.0026 0.242205 23.9396 0.201665C23.9208 0.189835 23.9012 0.179187 23.8816 0.168382C23.8271 0.139515 23.7701 0.115538 23.7097 0.0980291C23.6944 0.0934546 23.6791 0.0869872 23.6629 0.0828859C23.5983 0.067585 23.531 0.0585938 23.4637 0.0585938H2.39948C1.43844 0.0585938 0.65625 0.823088 0.65625 1.76228V41.7971C0.65625 42.7367 1.43844 43.5008 2.39948 43.5008H31.1628C32.1238 43.5008 32.9061 42.7367 32.9061 41.7971V10.5643C32.906 10.5323 32.9009 10.5009 32.8975 10.4689ZM10.1521 36.6446C9.33664 37.3957 8.12865 37.7335 6.71655 37.7335C6.40326 37.7335 6.12006 37.7177 5.90127 37.6878V41.382H3.53258V31.1869C4.2695 31.0647 5.30543 30.9723 6.76457 30.9723C8.23881 30.9723 9.28999 31.2484 9.99568 31.8C10.6706 32.3215 11.1243 33.18 11.1243 34.1915C11.1243 35.2038 10.7801 36.0623 10.1521 36.6446ZM20.2395 40.1559C19.127 41.06 17.4327 41.4893 15.3626 41.4893C14.1231 41.4893 13.2451 41.4127 12.648 41.3362V31.1869C13.5266 31.0497 14.6723 30.9723 15.8799 30.9723C17.8868 30.9723 19.1891 31.325 20.2093 32.0761C21.3077 32.8734 21.998 34.1458 21.998 35.97C21.9972 37.9481 21.26 39.3123 20.2395 40.1559ZM30.0306 32.9655H25.967V35.3262H29.7633V37.2278H25.967V41.382H23.5676V31.0497H30.0306V32.9655ZM2.39948 28.9846V1.76228H22.5921V10.4787C22.5921 10.9488 22.982 11.3305 23.4637 11.3305H31.1628L31.1636 28.9846H2.39948Z"/>
<path d="M25.7243 18.3675C25.6732 18.3629 24.4449 18.2533 22.5596 18.2533C21.9689 18.2533 21.3739 18.2646 20.7866 18.2862C17.0634 15.5557 14.0139 12.8231 12.3813 11.2916C12.4111 11.123 12.4316 10.9897 12.4411 10.8874C12.6564 8.66596 12.4171 7.16631 11.732 6.42997C11.2835 5.94878 10.6247 5.78867 9.93772 5.97205C9.51111 6.08128 8.72141 6.48573 8.46856 7.30907C8.18941 8.21892 8.63813 9.32319 9.81698 10.6037C9.83571 10.6231 10.2358 11.0328 10.9627 11.7269C10.4902 13.9285 9.2535 18.6792 8.65346 20.9606C7.24411 21.6965 6.06985 22.583 5.16079 23.6L5.10123 23.6666L5.06273 23.7465C4.96912 23.9387 4.52161 24.9364 4.85758 25.7379C5.011 26.1022 5.29847 26.3684 5.689 26.5082L5.79368 26.5357C5.79368 26.5357 5.8881 26.5557 6.05411 26.5557C6.78127 26.5557 8.57614 26.1822 9.53887 22.7151L9.77211 21.8366C13.1326 20.2403 17.3332 19.7254 20.378 19.5819C21.9441 20.7169 23.5026 21.7596 25.0127 22.683L25.062 22.7109C25.1352 22.7475 25.7974 23.067 26.5729 23.0677C27.6811 23.0677 28.4906 22.403 28.7919 21.2447L28.8072 21.1656C28.8914 20.5036 28.7212 19.9069 28.3152 19.4405C27.4599 18.4579 25.8673 18.3723 25.7243 18.3675ZM6.08123 25.2773C6.07445 25.2694 6.07122 25.262 6.06783 25.2537C5.99552 25.0835 6.08228 24.6709 6.20995 24.3686C6.7581 23.7696 7.41609 23.2198 8.17536 22.7248C7.43594 25.064 6.36063 25.2662 6.08123 25.2773ZM10.776 9.73592C9.64048 8.50065 9.65751 7.88821 9.7186 7.68205C9.81884 7.33746 10.2713 7.20724 10.2751 7.20606C10.5031 7.14549 10.6414 7.1574 10.7645 7.28951C11.0431 7.58851 11.2823 8.49087 11.1878 10.146C10.9197 9.88278 10.776 9.73592 10.776 9.73592ZM10.1893 20.2552L10.2089 20.182L10.2063 20.1828C10.7749 18.0066 11.5948 14.8199 12.0663 12.773L12.0833 12.7889L12.085 12.7791C13.6104 14.1828 15.9492 16.2361 18.7496 18.3716L18.7181 18.3728L18.7644 18.407C16.1263 18.6247 12.9755 19.133 10.1893 20.2552ZM27.5144 20.9691C27.3135 21.6904 26.9271 21.789 26.573 21.789C26.1618 21.789 25.7661 21.6218 25.6758 21.5814C24.6476 20.9516 23.5956 20.2653 22.5341 19.531C22.5425 19.531 22.5502 19.531 22.5596 19.531C24.3794 19.531 25.5915 19.6389 25.6391 19.6423C25.9431 19.6533 26.9049 19.7921 27.3194 20.2683C27.4819 20.455 27.5442 20.6781 27.5144 20.9691Z"/>
</svg>
