<svg width="43" height="24" viewBox="0 0 43 24" fill="none" xmlns="http://www.w3.org/2000/svg">
<mask id="mask0_1988_2306" style="mask-type:alpha" maskUnits="userSpaceOnUse" x="22" y="4" width="16" height="16">
<path fill-rule="evenodd" clip-rule="evenodd" d="M36.4504 4C37.2804 4 37.9504 4.67 37.9504 5.5V18.5C37.9504 19.33 37.2804 20 36.4504 20C35.6204 20 34.9504 19.33 34.9504 18.5V5.5C34.9504 4.67 35.6204 4 36.4504 4ZM24.4504 14C25.2804 14 25.9504 14.67 25.9504 15.5V18.5C25.9504 19.33 25.2804 20 24.4504 20C23.6204 20 22.9504 19.33 22.9504 18.5V15.5C22.9504 14.67 23.6204 14 24.4504 14ZM31.9504 10.5C31.9504 9.67 31.2804 9 30.4504 9C29.6204 9 28.9504 9.67 28.9504 10.5V18.5C28.9504 19.33 29.6204 20 30.4504 20C31.2804 20 31.9504 19.33 31.9504 18.5V10.5Z" fill="black"/>
</mask>
<g mask="url(#mask0_1988_2306)">
<rect x="18.4504" width="24" height="24" fill="#D65649"/>
</g>
<path d="M11.4494 20L15.0494 15.2C14.0494 14.45 12.7994 14 11.4494 14C10.0994 14 8.84941 14.45 7.84941 15.2L11.4494 20ZM11.4494 2C7.39941 2 3.65941 3.34 0.649414 5.6L2.44941 8C4.94941 6.12 8.06941 5 11.4494 5C14.8294 5 17.9494 6.12 20.4494 8L22.2494 5.6C19.2394 3.34 15.4994 2 11.4494 2ZM11.4494 8C8.74941 8 6.25941 8.89 4.24941 10.4L6.04941 12.8C7.54941 11.67 9.41941 11 11.4494 11C13.4794 11 15.3494 11.67 16.8494 12.8L18.6494 10.4C16.6394 8.89 14.1494 8 11.4494 8Z" fill="#D65649"/>
</svg>
