<svg width="39" height="33" viewBox="0 0 39 33" fill="none" xmlns="http://www.w3.org/2000/svg">
<path d="M0 0.015625L6.18826 6.34122L8.56495 4.20767L6.41263 0.034389L0 0.015625Z" fill="white"/>
<path d="M27.8971 17.7352C29.0669 18.0566 30.3237 17.3951 30.6575 16.2069C30.9789 15.0372 30.2958 13.8083 29.1168 13.4777L28.1998 13.2218L27.0112 17.4729L27.8971 17.7352Z" fill="white"/>
<path d="M27.1765 12.9503L19.7686 10.8634C19.2819 10.7357 18.7924 11.0287 18.6583 11.5154L17.9628 13.9919C17.8255 14.4786 18.0906 14.9776 18.5896 15.1241L25.9975 17.189L27.1765 12.9503Z" fill="white"/>
<path d="M28.3462 19.987C27.7816 19.4504 27.0798 19.0232 26.2593 18.7984L17.2796 16.2844L11.762 6.49657C11.4718 5.99113 11.0043 5.58909 10.399 5.4234C9.18892 5.08325 7.93171 5.7947 7.60114 7.0048C7.43585 7.57891 7.5137 8.165 7.776 8.66086L14.6785 20.7659C14.6785 20.7659 15.243 21.6734 16.6655 22.1413L29.2137 25.6594L35.0339 31.567C35.2271 31.7698 35.4798 31.9255 35.7825 32.0129C36.6588 32.2561 37.5759 31.7323 37.8318 30.8651C37.9971 30.2507 37.8006 29.6051 37.3639 29.2059L28.3498 19.987H28.3462Z" fill="white"/>
<path d="M35.0446 22.4323L36.3486 24.1382L38.9999 21.2437L36.7606 19.9961C36.9726 18.4271 35.9996 16.9084 34.4402 16.4684C32.7246 15.9913 30.9404 16.9862 30.4633 18.7017C29.9767 20.4265 30.9812 22.2015 32.6967 22.6786C33.5104 22.9126 34.3404 22.7848 35.0438 22.4323H35.0446Z" fill="white"/>
</svg>
