<svg width="95" height="94" viewBox="0 0 95 94" fill="none" xmlns="http://www.w3.org/2000/svg">
<path d="M37.6818 33.2536C37.6818 33.2536 37.6818 33.039 37.4684 33.039L31.2788 25.1011V15.0178C32.5594 15.0178 33.4131 14.1597 33.4131 12.8724C33.4131 11.5852 32.5594 10.7271 31.2788 10.7271H18.4727C17.1921 10.7271 16.3383 11.5852 16.3383 12.8724C16.3383 14.1597 17.1921 15.0178 18.4727 15.0178V25.1011L12.2831 33.039L12.0696 33.2536C11.2159 34.7553 11.2159 36.6862 12.0696 38.4025C12.9234 39.9043 14.6308 40.9769 16.3383 40.9769H33.4131C35.3341 40.9769 36.8281 40.1188 37.6818 38.4025C38.5356 36.6862 38.5356 34.7553 37.6818 33.2536ZM27.0101 15.0178V25.7447C27.0101 26.1738 27.2235 26.6029 27.437 27.032L29.7847 30.0355H19.9667L22.3145 27.032C22.5279 26.6029 22.7414 26.1738 22.7414 25.7447V15.0178H27.0101Z" fill="#1D94A4"/>
<path d="M40.4563 70.7978V66.5071H35.9742C35.7608 65.2198 35.1205 63.9326 34.4802 62.6454L37.6817 59.4273L34.6936 56.4238L31.4921 59.6418C30.4249 58.9982 29.1443 58.3546 27.6502 58.1401V53.6348H23.3815V58.1401C22.1009 58.3546 20.8203 58.9982 19.5397 59.6418L16.3382 56.4238L13.3501 59.4273L16.5516 62.6454C15.9113 63.7181 15.271 65.0053 15.0576 66.5071H10.5754V70.7978H15.0576C15.271 72.0851 15.9113 73.3723 16.5516 74.6595L13.3501 77.8776L16.3382 80.8811L19.5397 77.6631C20.6069 78.3067 21.8875 78.9503 23.3815 79.1648V83.6701H27.6502V79.1648C28.9309 78.9503 30.2115 78.3067 31.4921 77.6631L34.6936 80.8811L37.6817 77.8776L34.4802 74.6595C35.1205 73.5868 35.7608 72.2996 35.9742 70.7978H40.4563ZM25.3025 72.9432C22.9547 72.9432 21.0338 71.0124 21.0338 68.6525C21.0338 66.2925 22.9547 64.3617 25.3025 64.3617C27.6502 64.3617 29.5712 66.2925 29.5712 68.6525C29.5712 71.0124 27.6502 72.9432 25.3025 72.9432Z" fill="#1D94A4"/>
<path d="M81.2228 60.0706V55.7798H60.0927C60.0927 55.7798 55.1837 55.7798 53.6897 62.645C53.6897 62.645 53.4762 63.9322 54.5434 63.5032C56.0375 63.0741 55.6106 59.2124 61.5868 59.856C61.5868 59.856 62.2271 72.5138 56.6778 78.0918C56.6778 78.0918 54.33 80.0226 56.8912 81.7389C58.1718 82.8116 62.4405 81.3099 64.148 77.0191C66.0689 71.6556 66.2823 59.856 66.2823 59.856H70.3376C70.3376 59.856 66.2823 82.3826 75.6735 82.3826C80.3691 82.3826 81.4362 74.0156 81.4362 74.0156H80.5825C80.5825 74.0156 77.8078 80.4517 75.4601 77.2336C72.2585 72.9429 74.6063 60.0706 74.6063 60.0706H81.2228Z" fill="#1D94A4"/>
<path d="M47.5 22.5268L50.4881 25.5304C58.812 17.1634 72.2585 17.1634 80.369 25.5304L83.3571 22.5268C73.5391 12.4435 57.318 12.4435 47.5 22.5268Z" fill="#1D94A4"/>
<path d="M53.903 27.8908L56.891 30.8944C59.2388 28.5345 62.2269 27.2472 65.4284 27.2472C68.63 27.2472 71.8315 28.5345 73.9658 30.8944L76.9539 27.8908C70.7643 21.2402 60.306 21.2402 53.903 27.8908Z" fill="#1D94A4"/>
<path d="M65.4286 39.0469C67.7861 39.0469 69.6973 37.1258 69.6973 34.7561C69.6973 32.3864 67.7861 30.4653 65.4286 30.4653C63.0711 30.4653 61.1599 32.3864 61.1599 34.7561C61.1599 37.1258 63.0711 39.0469 65.4286 39.0469Z" fill="#1D94A4"/>
<rect x="1.5" y="1.5" width="92" height="91" stroke="#1D94A4" stroke-width="3"/>
</svg>
