<svg width="112" height="41" viewBox="0 0 112 41" fill="none" xmlns="http://www.w3.org/2000/svg">
<path d="M55.6682 3.90298C50.1384 3.90298 45.6547 8.36395 45.6547 13.8658C45.6547 19.3677 50.1384 23.6799 55.6682 23.6799C61.198 23.6799 65.6816 19.3677 65.6816 13.8658C65.6816 8.36395 61.198 3.90298 55.6682 3.90298Z" fill="#1a818f"/>
<path d="M64.1871 24.126C61.9453 26.0591 58.9562 27.1 55.6682 27.1C52.3802 27.1 49.3911 26.0591 47.1493 24.126L36.6875 29.3305C33.3995 30.9662 31.4566 34.0889 31.4566 37.8063V40.3342H79.8798V37.8063C79.8798 34.0889 77.9369 30.9662 74.6489 29.3305L64.1871 24.126Z" fill="#1a818f"/>
<path d="M87.0536 0.334213C81.5238 0.334213 77.0402 4.79518 77.0402 10.297C77.0402 15.7989 81.5238 20.2599 87.0536 20.2599C92.5834 20.2599 97.067 15.7989 97.067 10.297C97.067 4.79518 92.5834 0.334213 87.0536 0.334213Z" fill="#1a818f"/>
<path d="M95.5724 20.5573C93.1812 22.4904 90.3415 23.6799 87.0535 23.6799C83.7656 23.6799 80.7765 22.4904 78.5346 20.5573L71.3608 24.126L75.9939 26.5052C80.1786 28.587 82.7194 32.3045 83.0183 36.7654H111.265V34.2376C111.265 30.5201 109.322 27.3974 106.034 25.7617L95.5724 20.5573Z" fill="#1a818f"/>
<path d="M24.2827 0.334213C18.7529 0.334213 14.2693 4.79518 14.2693 10.297C14.2693 15.7989 18.7529 20.2599 24.2827 20.2599C29.8125 20.2599 34.2962 15.7989 34.2962 10.297C34.2962 4.79518 29.8125 0.334213 24.2827 0.334213Z" fill="#1a818f"/>
<path d="M32.8017 20.5573C30.5598 22.4904 27.5708 23.6799 24.2828 23.6799C20.9948 23.6799 18.0057 22.4904 15.7639 20.5573L5.30207 25.7617C2.01407 27.3974 0.071167 30.5201 0.071167 34.2376V36.7654H28.318C28.6169 32.3045 31.1577 28.587 35.3424 26.5052L39.9755 24.126L32.8017 20.5573Z" fill="#1a818f"/>
</svg>
