<svg width="35" height="38" viewBox="0 0 35 38" fill="#1a818f" xmlns="http://www.w3.org/2000/svg">
<g clip-path="url(#clip0)">
<path fill-rule="evenodd" clip-rule="evenodd" d="M28.8329 27.2986H28.2311C28.2294 27.329 28.2274 27.3602 28.225 27.3921C28.1951 27.8035 28.1134 28.3437 27.9082 28.9406C27.8876 29.0006 27.8657 29.0611 27.8425 29.1222C27.7963 29.2438 27.7448 29.3675 27.6875 29.4925C27.6788 29.5114 27.67 29.5304 27.6611 29.5495C27.5695 29.744 27.4637 29.9416 27.3415 30.1403C27.1613 30.4333 26.9455 30.7284 26.6872 31.0187C26.7759 31.0848 26.8684 31.1499 26.9648 31.214C27.4212 31.5174 27.9653 31.7975 28.6121 32.0434C28.6844 32.0709 28.758 32.098 28.8329 32.1247C28.8747 32.1395 28.917 32.1543 28.9596 32.1689L29.0255 32.1912L29.0274 32.1918C29.194 32.2495 29.3201 32.3713 29.3869 32.5209C29.4469 32.655 29.4592 32.8115 29.4104 32.9638C29.3253 33.2191 29.0882 33.3772 28.8329 33.3772C28.7726 33.3772 28.7063 33.3652 28.6399 33.3472L28.6384 33.3468L28.6287 33.3435C28.2138 33.2041 27.831 33.0516 27.4781 32.8882C27.0993 32.7128 26.755 32.5249 26.4423 32.3273C26.272 32.2196 26.1111 32.1091 25.959 31.9962C25.9027 31.9543 25.8475 31.9121 25.7936 31.8696C25.7397 31.9121 25.6846 31.9543 25.6282 31.9962C25.4762 32.1091 25.3152 32.2196 25.1449 32.3273C24.8322 32.5249 24.4879 32.7128 24.1092 32.8881C23.7563 33.0516 23.3735 33.2041 22.9585 33.3435L22.9489 33.3468L22.9407 33.349C22.8766 33.366 22.8127 33.3772 22.7543 33.3772C22.499 33.3772 22.262 33.2191 22.1769 32.9638C22.128 32.8115 22.1403 32.655 22.2003 32.5209C22.2672 32.3713 22.3932 32.2495 22.5598 32.1918L22.5617 32.1912L22.6277 32.1693C22.6703 32.1549 22.7125 32.1404 22.7543 32.1257C22.8298 32.0992 22.904 32.0722 22.9769 32.0447C23.623 31.8009 24.1666 31.5184 24.6226 31.2142C24.719 31.15 24.8114 31.0847 24.9001 31.0187C24.6418 30.7284 24.426 30.4333 24.2458 30.1403C24.1236 29.9417 24.0178 29.744 23.9262 29.5495C23.9172 29.5304 23.9084 29.5114 23.8997 29.4925C23.8424 29.3675 23.791 29.2438 23.7447 29.1222C23.7216 29.0611 23.6997 29.0006 23.6791 28.9406C23.4738 28.3437 23.3921 27.8034 23.3622 27.3921C23.3599 27.3602 23.3579 27.329 23.3561 27.2986H22.7543C22.42 27.2986 22.1465 27.0251 22.1465 26.6908C22.1465 26.3564 22.42 26.0829 22.7543 26.0829H23.3561H23.3622H23.4386H25.1094H25.1858V25.475C25.1858 25.3361 25.233 25.2076 25.3122 25.105C25.4236 24.9606 25.5982 24.8672 25.7936 24.8672C25.989 24.8672 26.1636 24.9606 26.275 25.105C26.3542 25.2077 26.4015 25.3361 26.4015 25.475V26.0829H26.4779H28.1486H28.225H28.2311H28.8329C29.1672 26.0829 29.4408 26.3564 29.4408 26.6908C29.4408 27.0251 29.1672 27.2986 28.8329 27.2986ZM27.0243 27.4255C26.9878 28.0759 26.769 29.2309 25.7964 30.3372C24.8117 29.2369 24.5929 28.0759 24.5625 27.4255H27.0243Z"/>
<path d="M17.2856 3.91091C17.2856 2.56755 16.1975 1.47949 14.8542 1.47949H2.69705C1.35369 1.47949 0.265625 2.56755 0.265625 3.91091V16.068C0.265625 17.4114 1.35369 18.4994 2.69705 18.4994H14.8542C16.1975 18.4994 17.2856 17.4114 17.2856 16.068V3.91091ZM16.0699 16.068C16.0699 16.7367 15.5228 17.2837 14.8542 17.2837H2.69705C2.02841 17.2837 1.48134 16.7367 1.48134 16.068V3.91091C1.48134 3.24227 2.02841 2.6952 2.69705 2.6952H14.8542C15.5228 2.6952 16.0699 3.24227 16.0699 3.91091V16.068Z"/>
<path d="M34.3055 22.7544C34.3055 21.4111 33.2175 20.323 31.8741 20.323H19.717C18.3736 20.323 17.2856 21.4111 17.2856 22.7544V34.9116C17.2856 36.2549 18.3736 37.343 19.717 37.343H31.8741C33.2175 37.343 34.3055 36.2549 34.3055 34.9116V22.7544ZM33.0898 34.9116C33.0898 35.5802 32.5428 36.1273 31.8741 36.1273H19.717C19.0484 36.1273 18.5013 35.5802 18.5013 34.9116V22.7544C18.5013 22.0858 19.0484 21.5387 19.717 21.5387H31.8741C32.5428 21.5387 33.0898 22.0858 33.0898 22.7544V34.9116Z"/>
<path d="M9.33674 6.10843C9.24234 5.88231 9.0209 5.73448 8.77575 5.73448C8.5306 5.73448 8.30916 5.88231 8.21476 6.10843L6.52407 10.1662C6.4132 10.2763 6.34433 10.4286 6.34433 10.5973L5.17554 13.4027C5.04613 13.7126 5.19274 14.0687 5.50263 14.1975C5.81251 14.3269 6.16805 14.1809 6.29746 13.8704L7.40795 11.2052H10.1435L11.2541 13.8705C11.3514 14.1038 11.577 14.2445 11.815 14.2445C11.8934 14.2445 11.9723 14.2296 12.0489 14.1976C12.3588 14.0688 12.5054 13.7126 12.376 13.4028L9.33674 6.10843ZM7.91454 9.98947L8.77575 7.92252L9.63696 9.98947H7.91454Z"/>
<path d="M19.2102 10.9132C19.2438 10.9668 19.2812 11.0151 19.3293 11.0557C19.3387 11.0637 19.3426 11.0761 19.3525 11.0835L21.784 12.9071C21.8932 12.989 22.0208 13.0288 22.1478 13.0288C22.333 13.0288 22.5153 12.9451 22.6346 12.7854C22.8364 12.5171 22.7818 12.1359 22.5129 11.9347L21.5405 11.2052H23.3641C23.538 11.2052 27.6191 11.2604 27.6191 16.068C27.6191 16.404 27.891 16.6759 28.227 16.6759C28.5629 16.6759 28.8348 16.404 28.8348 16.068C28.8348 10.059 23.4187 9.98949 23.3641 9.98949H21.5405L22.5129 9.25994C22.7818 9.05868 22.8364 8.67762 22.6346 8.40931C22.4333 8.13979 22.0523 8.08581 21.784 8.28762L19.3525 10.1112C19.3426 10.1186 19.3387 10.131 19.3293 10.139C19.2812 10.1796 19.2437 10.228 19.2102 10.2816C19.197 10.3025 19.18 10.3195 19.1696 10.3419C19.1329 10.4201 19.1091 10.5052 19.1091 10.5973C19.1091 10.6895 19.1329 10.7746 19.1696 10.8528C19.18 10.8753 19.1971 10.8922 19.2102 10.9132Z"/>
<path d="M15.3611 26.0859C15.3276 26.0322 15.2899 25.9839 15.2418 25.9432C15.2325 25.9353 15.2285 25.9229 15.2187 25.9155L12.7873 24.0919C12.5196 23.8912 12.1384 23.9447 11.9366 24.2136C11.7348 24.4819 11.7894 24.863 12.0583 25.0642L13.0307 25.7937H11.207C11.0331 25.7937 6.95204 25.7385 6.95204 20.9309C6.95204 20.5949 6.68014 20.323 6.34418 20.323C6.00822 20.323 5.73633 20.5949 5.73633 20.9309C5.73633 26.9399 11.1524 27.0094 11.207 27.0094H13.0307L12.0583 27.739C11.7894 27.9402 11.7348 28.3213 11.9366 28.5896C12.0559 28.7493 12.2381 28.833 12.4233 28.833C12.5504 28.833 12.678 28.7932 12.7872 28.7113L15.2186 26.8877C15.2286 26.8803 15.2325 26.8679 15.2418 26.86C15.2899 26.8193 15.3275 26.771 15.361 26.7174C15.3741 26.6964 15.3911 26.6795 15.4016 26.6571C15.4382 26.5789 15.462 26.4938 15.462 26.4016C15.462 26.3094 15.4382 26.2242 15.4016 26.146C15.3912 26.1237 15.3742 26.1068 15.3611 26.0859Z"/>
</g>
<defs>
<clipPath id="clip0">
<path d="M0 0.911621H35V37.9116H0V0.911621Z" fill="white"/>
</clipPath>
</defs>
</svg>
