<svg width="13" height="12" viewBox="0 0 13 12" fill="none" xmlns="http://www.w3.org/2000/svg">
<rect x="5" y="4" width="3" height="7" fill="white"/>
<path d="M7.07591 7.28823C7.08414 7.61202 6.8239 7.87895 6.50001 7.87895C6.17612 7.87895 5.91588 7.61202 5.92411 7.28823L5.98731 4.79984C5.99438 4.52176 6.22184 4.3 6.50001 4.3C6.77818 4.3 7.00564 4.52176 7.01271 4.79984L7.07591 7.28823ZM7.09092 9.81436C7.09092 10.1407 6.82636 10.4053 6.50001 10.4053C6.17366 10.4053 5.9091 10.1407 5.9091 9.81436V9.73302C5.9091 9.40667 6.17366 9.14211 6.50001 9.14211C6.82636 9.14211 7.09092 9.40667 7.09092 9.73302V9.81436ZM0.799662 10.8237C0.438749 11.49 0.921184 12.3 1.67896 12.3H11.3211C12.0788 12.3 12.5613 11.49 12.2003 10.8237L7.3793 1.92331C7.00106 1.22502 5.99896 1.22502 5.62072 1.92331L0.799662 10.8237Z" fill="#D65649"/>
</svg>
